<?xml version="1.0" encoding="utf-8"?>
<!-- Generator: Adobe Illustrator 16.0.4, SVG Export Plug-In . SVG Version: 6.00 Build 0)  -->
<!DOCTYPE svg PUBLIC "-//W3C//DTD SVG 1.1//EN" "http://www.w3.org/Graphics/SVG/1.1/DTD/svg11.dtd">
<svg version="1.1" id="Layer_1" xmlns="http://www.w3.org/2000/svg" xmlns:xlink="http://www.w3.org/1999/xlink" x="0px" y="0px"
	 width="104.893px" height="81.029px" viewBox="0 0 104.893 81.029" enable-background="new 0 0 104.893 81.029"
	 xml:space="preserve">
<path fill="#FFFFFF" d="M103.433,36.174c-7.392-4.875-13.416-10.486-19.795-16.428C76.58,13.176,69.283,6.378,59.87,0.493
	c-1.134-0.704-2.577-0.65-3.65,0.137C55.147,1.42,54.665,2.785,55,4.073c0.838,3.193,0.692,6.738,0.533,10.493
	c-0.041,0.958-0.082,1.93-0.104,2.91c-5.786,0.028-12.597,0.2-19.735,0.378c-11.134,0.282-22.646,0.571-31.034,0.313
	c-0.032,0-0.067,0-0.102,0c-0.003,0-0.005,0.001-0.008,0.001c-0.115,0-0.23,0.021-0.347,0.034c-0.107,0.012-0.215,0.017-0.319,0.038
	c-0.007,0.002-0.014,0.001-0.021,0.003c-0.058,0.013-0.108,0.038-0.165,0.054c-0.144,0.04-0.288,0.08-0.423,0.139
	c-0.081,0.035-0.153,0.081-0.23,0.122c-0.107,0.057-0.215,0.11-0.315,0.179c-0.078,0.054-0.146,0.116-0.219,0.176
	c-0.088,0.072-0.178,0.142-0.258,0.224c-0.062,0.063-0.116,0.134-0.172,0.201c-0.077,0.092-0.154,0.183-0.221,0.282
	c-0.046,0.068-0.082,0.143-0.123,0.215c-0.061,0.108-0.122,0.217-0.17,0.333c-0.033,0.078-0.055,0.16-0.081,0.24
	c-0.039,0.117-0.077,0.232-0.103,0.354c-0.019,0.092-0.025,0.186-0.036,0.279c-0.011,0.094-0.033,0.183-0.036,0.278
	c-0.001,0.027,0.006,0.053,0.005,0.079c0,0.089,0.012,0.178,0.019,0.268c0.01,0.134,0.02,0.267,0.046,0.396
	c0.003,0.017,0.002,0.033,0.006,0.05c1.272,5.805,0.819,8.176,0.066,12.108c-0.416,2.174-0.933,4.881-1.209,8.645
	c-0.358,4.85-0.251,8.351-0.137,12.058c0.063,2.044,0.13,4.208,0.127,6.795c0,0.001,0,0.002,0,0.003s0,0.002,0,0.003
	c0,0.136,0.024,0.264,0.04,0.395c0.011,0.086,0.009,0.174,0.026,0.257c0.214,1.054,0.938,1.92,1.902,2.334
	c0.004,0.002,0.008,0.005,0.013,0.007c0.132,0.057,0.275,0.092,0.416,0.131c0.066,0.018,0.128,0.046,0.195,0.061
	c0.105,0.021,0.217,0.021,0.327,0.033c0.108,0.011,0.214,0.033,0.326,0.033c0.003,0,0.003,0,0.006,0
	c2.333,0,4.824,0.022,7.259,0.045c4.79,0.044,9.315,0.082,12.115-0.048c5.046-0.241,9.734-0.787,14.27-1.313
	c5.945-0.692,11.527-1.454,17.681-1.302c-0.568,4.967-1.016,10.826-0.238,15.914c0.182,1.184,1,2.174,2.13,2.57
	c0.353,0.127,0.718,0.188,1.083,0.188c0.796,0,1.583-0.295,2.189-0.851c8.1-7.389,13.98-12.609,17.979-15.961
	c3.377-2.825,6.376-5.637,9.557-8.617c4.603-4.313,9.362-8.775,16.155-14.168c0.815-0.647,1.27-1.647,1.225-2.688
	S104.303,36.748,103.433,36.174z M83.064,50.858c-3.11,2.914-6.047,5.666-9.28,8.376c-3.177,2.66-7.49,6.456-13.108,11.527
	c0.105-3.885,0.606-7.89,1.013-11.137c0.111-0.892-0.152-1.793-0.729-2.485c-0.578-0.691-1.416-1.114-2.317-1.161
	c-7.988-0.444-14.917,0.364-22.265,1.222c-4.424,0.514-9.001,1.047-13.828,1.279c-2.612,0.123-7.049,0.085-11.743,0.041
	c-1.362-0.013-2.74-0.024-4.101-0.033c-0.025-1.328-0.061-2.572-0.099-3.766c-0.114-3.682-0.213-6.865,0.121-11.375
	c0.25-3.389,0.708-5.789,1.114-7.906c0.642-3.358,1.173-6.168,0.602-10.697c7.998,0.088,17.841-0.154,27.414-0.389
	c8.487-0.216,16.517-0.4,22.804-0.375c0.838-0.044,1.74-0.349,2.355-0.987c0.615-0.635,0.945-1.494,0.914-2.38
	c-0.066-1.863,0.013-3.761,0.099-5.773c0.069-1.631,0.14-3.285,0.127-4.948c6.315,4.615,11.756,9.678,17.053,14.612
	c5.3,4.936,10.756,10.014,17.027,14.584C90.925,43.489,86.787,47.367,83.064,50.858z"/>
</svg>
