<?xml version="1.0" encoding="utf-8"?>
<!-- Generator: Adobe Illustrator 18.0.0, SVG Export Plug-In . SVG Version: 6.00 Build 0)  -->
<!DOCTYPE svg PUBLIC "-//W3C//DTD SVG 1.1//EN" "http://www.w3.org/Graphics/SVG/1.1/DTD/svg11.dtd">
<svg version="1.1" id="Layer_1" xmlns="http://www.w3.org/2000/svg" xmlns:xlink="http://www.w3.org/1999/xlink" x="0px" y="0px"
	 viewBox="0 0 104.9 81" enable-background="new 0 0 104.9 81" xml:space="preserve">
<path fill="#FFFFFF" d="M103.4,36.2C96,31.3,90,25.7,83.6,19.7C76.6,13.2,69.3,6.4,59.9,0.5c-1.1-0.7-2.6-0.7-3.7,0.1
	c-1.1,0.8-1.6,2.2-1.2,3.4c0.8,3.2,0.7,6.7,0.5,10.5c0,1-0.1,1.9-0.1,2.9c-5.8,0-12.6,0.2-19.7,0.4c-11.1,0.3-22.6,0.6-31,0.3
	c0,0-0.1,0-0.1,0c0,0,0,0,0,0c-0.1,0-0.2,0-0.3,0c-0.1,0-0.2,0-0.3,0c0,0,0,0,0,0c-0.1,0-0.1,0-0.2,0.1c-0.1,0-0.3,0.1-0.4,0.1
	c-0.1,0-0.2,0.1-0.2,0.1c-0.1,0.1-0.2,0.1-0.3,0.2c-0.1,0.1-0.1,0.1-0.2,0.2c-0.1,0.1-0.2,0.1-0.3,0.2c-0.1,0.1-0.1,0.1-0.2,0.2
	c-0.1,0.1-0.2,0.2-0.2,0.3c0,0.1-0.1,0.1-0.1,0.2c-0.1,0.1-0.1,0.2-0.2,0.3c0,0.1-0.1,0.2-0.1,0.2c0,0.1-0.1,0.2-0.1,0.4
	c0,0.1,0,0.2,0,0.3c0,0.1,0,0.2,0,0.3c0,0,0,0.1,0,0.1c0,0.1,0,0.2,0,0.3c0,0.1,0,0.3,0,0.4c0,0,0,0,0,0c1.3,5.8,0.8,8.2,0.1,12.1
	c-0.4,2.2-0.9,4.9-1.2,8.6c-0.4,4.8-0.3,8.4-0.1,12.1c0.1,2,0.1,4.2,0.1,6.8c0,0,0,0,0,0s0,0,0,0c0,0.1,0,0.3,0,0.4
	c0,0.1,0,0.2,0,0.3c0,0.2,0.1,0.4,0.2,0.6c0,0,0,0,0,0c0.3,0.8,0.9,1.4,1.7,1.7c0,0,0,0,0.1,0c0.1,0.1,0.3,0.1,0.4,0.1
	c0.1,0,0.1,0.1,0.2,0.1c0.1,0,0.2,0,0.3,0c0.1,0,0.2,0,0.3,0c0,0,0,0,0,0c2.3,0,4.8,0,7.3,0c4.8,0,9.3,0.1,12.1,0
	c5-0.2,9.7-0.8,14.3-1.3c5.9-0.7,11.5-1.5,17.7-1.3c-0.6,5-1,10.8-0.2,15.9c0.2,1.2,1,2.2,2.1,2.6c0.4,0.1,0.7,0.2,1.1,0.2
	c0.8,0,1.6-0.3,2.2-0.9c8.1-7.4,14-12.6,18-16c3.4-2.8,6.4-5.6,9.6-8.6c4.6-4.3,9.4-8.8,16.2-14.2c0.8-0.6,1.3-1.6,1.2-2.7
	C104.8,37.7,104.3,36.7,103.4,36.2z M83.1,50.9c-3.1,2.9-6,5.7-9.3,8.4c-3.2,2.7-7.5,6.5-13.1,11.5c0.1-3.9,0.6-7.9,1-11.1
	c0.1-0.9-0.2-1.8-0.7-2.5c-0.6-0.7-1.4-1.1-2.3-1.2c-8-0.4-14.9,0.4-22.3,1.2c-4.4,0.5-9,1-13.8,1.3c-2.6,0.1-7,0.1-11.7,0
	c-1.4,0-2.7,0-4.1,0c0-1.3-0.1-2.6-0.1-3.8C6.5,51,6.4,47.9,6.7,43.3C7,40,7.4,37.6,7.8,35.4c0.6-3.4,1.2-6.2,0.6-10.7
	c8,0.1,17.8-0.2,27.4-0.4c8.5-0.2,16.5-0.4,22.8-0.4c0.8,0,1.7-0.3,2.4-1c0.6-0.6,0.9-1.5,0.9-2.4c-0.1-1.9,0-3.8,0.1-5.8
	c0.1-1.6,0.1-3.3,0.1-4.9c6.3,4.6,11.8,9.7,17.1,14.6c5.3,4.9,10.8,10,17,14.6C90.9,43.5,86.8,47.4,83.1,50.9z"/>
<g>
</g>
<g>
</g>
<g>
</g>
<g>
</g>
<g>
</g>
<g>
</g>
</svg>
