<?xml version="1.0" encoding="utf-8"?>
<!-- Generator: Adobe Illustrator 18.0.0, SVG Export Plug-In . SVG Version: 6.00 Build 0)  -->
<!DOCTYPE svg PUBLIC "-//W3C//DTD SVG 1.1//EN" "http://www.w3.org/Graphics/SVG/1.1/DTD/svg11.dtd">
<svg version="1.1" id="Layer_1" xmlns="http://www.w3.org/2000/svg" xmlns:xlink="http://www.w3.org/1999/xlink" x="0px" y="0px"
	 viewBox="0 0 40.5 39.7" enable-background="new 0 0 40.5 39.7" xml:space="preserve">
<path fill="#FFFFFF" d="M5,9.3c-3,0-5-2.1-5-4.7C0,2,2,0,5.1,0c3,0,5,2,5,4.6C10.1,7.2,8.2,9.3,5,9.3L5,9.3z M9.3,13.5v26.2H0.9
	V13.5H9.3z M22.8,24.5c0-3.4,2.2-5.1,4.7-5.1c2.5,0,4.6,1.7,4.6,5.9v14.4h8.5V24.5c0-7.6-4.2-11.8-10.1-11.8c-3.4,0-5.9,1.9-7.6,4.5
	l-0.3-3.6h-8.3c0,0.9,0.1,5.9,0.1,5.9v20.3h8.5V24.5z"/>
<g>
</g>
<g>
</g>
<g>
</g>
<g>
</g>
<g>
</g>
<g>
</g>
</svg>
