<?xml version="1.0" encoding="utf-8"?>
<!-- Generator: Adobe Illustrator 18.0.0, SVG Export Plug-In . SVG Version: 6.00 Build 0)  -->
<!DOCTYPE svg PUBLIC "-//W3C//DTD SVG 1.1//EN" "http://www.w3.org/Graphics/SVG/1.1/DTD/svg11.dtd">
<svg version="1.1" id="Layer_1" xmlns="http://www.w3.org/2000/svg" xmlns:xlink="http://www.w3.org/1999/xlink" x="0px" y="0px"
	 viewBox="0 0 40.5 40.5" enable-background="new 0 0 40.5 40.5" xml:space="preserve">
<path fill="#FFFFFF" d="M39.7,40.5h-5.9c-0.5,0-0.9-0.4-0.9-0.9C32.9,22,18.6,7.6,0.9,7.6C0.4,7.6,0,7.2,0,6.8V0.9
	C0,0.4,0.4,0,0.9,0c21.9,0,39.7,17.8,39.7,39.7C40.5,40.2,40.2,40.5,39.7,40.5z M27,40.5h-5.9c-0.5,0-0.9-0.4-0.9-0.9
	c0-10.7-8.7-19.4-19.4-19.4c-0.5,0-0.9-0.4-0.9-0.9v-5.9c0-0.5,0.4-0.9,0.9-0.9c14.9,0,27,12.1,27,27C27.9,40.2,27.5,40.5,27,40.5z
	 M6.3,40.5c-3.5,0-6.3-2.8-6.3-6.3c0-3.5,2.8-6.3,6.3-6.3c3.5,0,6.3,2.9,6.3,6.3C12.7,37.7,9.8,40.5,6.3,40.5z"/>
<g>
</g>
<g>
</g>
<g>
</g>
<g>
</g>
<g>
</g>
<g>
</g>
</svg>
