<?xml version="1.0" encoding="utf-8"?>
<!-- Generator: Adobe Illustrator 16.0.4, SVG Export Plug-In . SVG Version: 6.00 Build 0)  -->
<!DOCTYPE svg PUBLIC "-//W3C//DTD SVG 1.1//EN" "http://www.w3.org/Graphics/SVG/1.1/DTD/svg11.dtd">
<svg version="1.1" id="Layer_1" xmlns="http://www.w3.org/2000/svg" xmlns:xlink="http://www.w3.org/1999/xlink" x="0px" y="0px"
	 width="89.813px" height="90.366px" viewBox="0 0 89.813 90.366" enable-background="new 0 0 89.813 90.366" xml:space="preserve">
<g>
	<path fill="#2FA9CE" d="M80.856,18.545C69.124,2.646,49.803-5.052,31.942,3.606c-4.381,2.123-8.912,4.318-13.938,6.256
		c-0.771,0.298-1.158,1.166-0.859,1.939c0.299,0.771,1.164,1.157,1.939,0.859c0.426-0.164,0.826-0.339,1.246-0.506
		C-0.152,20.071-2.558,48.406,1.874,66.366c3.807,15.42,30.123,24,34.129,24c3.121,0,6.408-0.264,9.842-0.797
		c19.043-2.963,33.068-11.842,39.496-25C91.709,51.527,92.161,33.866,80.856,18.545z M55.967,49.243
		c-1.939,12.209-3.02,12.211-3.481,12.211l-0.204-0.033c-1.568-0.517-6.613-2.993-9.481-4.422c-0.033-0.017-0.068-0.024-0.111-0.024
		c-0.756,0-2.213,1.924-3.084,3.073c-0.391,0.517-0.748,0.986-1.039,1.315c-0.232,0.26-0.471,0.316-0.629,0.316l0,0
		c-0.181,0-0.442-0.068-0.668-0.389c-0.854-1.22-1.092-7.187-0.885-7.754c0.061-0.164,0.18-0.315,2.068-2.541
		c2.371-2.79,8.271-9.738,9.456-12.025c-0.713,0.357-1.876,1.053-2.782,1.82c-4.611,3.906-12.603,10.641-12.603,10.641l-0.167,0.142
		l-0.217-0.027c-1.946-0.241-8.33-1.194-8.756-3.34c-0.227-1.145,1.142-1.918,1.591-2.172l11.281-6.376
		c2.221-1.255,4.788-2.848,7.271-4.389c5.698-3.536,10.62-6.591,12.636-6.591c0.185,0,0.346,0.023,0.493,0.072
		C57.389,28.988,58.791,31.464,55.967,49.243z"/>
	<path fill="#FFFFFF" d="M56.656,28.749c-0.147-0.048-0.309-0.072-0.493-0.072c-2.016,0-6.938,3.055-12.636,6.591
		c-2.482,1.541-5.05,3.134-7.271,4.389l-11.281,6.376c-0.449,0.254-1.817,1.027-1.591,2.172c0.426,2.146,6.81,3.099,8.756,3.34
		l0.217,0.027l0.167-0.142c0,0,7.991-6.735,12.603-10.641c0.906-0.768,2.069-1.463,2.782-1.82
		c-1.185,2.287-7.085,9.235-9.456,12.025c-1.889,2.226-2.008,2.377-2.068,2.541c-0.207,0.567,0.031,6.534,0.885,7.754
		c0.226,0.32,0.487,0.389,0.668,0.389l0,0c0.158,0,0.396-0.057,0.629-0.316c0.291-0.329,0.648-0.798,1.039-1.315
		c0.871-1.149,2.328-3.073,3.084-3.073c0.043,0,0.078,0.008,0.111,0.024c2.868,1.43,7.913,3.905,9.481,4.422l0.204,0.033
		c0.462,0,1.542-0.002,3.481-12.211C58.791,31.464,57.389,28.988,56.656,28.749z"/>
</g>
</svg>
