<?xml version="1.0" encoding="utf-8"?>
<!-- Generator: Adobe Illustrator 18.0.0, SVG Export Plug-In . SVG Version: 6.00 Build 0)  -->
<!DOCTYPE svg PUBLIC "-//W3C//DTD SVG 1.1//EN" "http://www.w3.org/Graphics/SVG/1.1/DTD/svg11.dtd">
<svg version="1.1" id="Layer_1" xmlns="http://www.w3.org/2000/svg" xmlns:xlink="http://www.w3.org/1999/xlink" x="0px" y="0px"
	 viewBox="0 0 151.5 150.8" enable-background="new 0 0 151.5 150.8" xml:space="preserve">
<g>
	<g>
		<path fill="#2FA9CE" d="M119.5,111.8l-4.4-1.5c-14.1-4.8-29.5-2.8-44.4-0.9c-12.5,1.6-25.5,3.2-37.9,1l-1.9-0.3l-0.1-1.9
			c-0.9-13.1,1.6-31.6,3.6-46.6C35,56,35.6,51.2,36,47.4c-0.1,0-0.2-0.1-0.4-0.1l0.5-1.9c0-0.2,0-0.5,0.1-0.7l0.1,0l0.6-2.2
			c6.7,1.9,22.7,3,31.7,1.7c1.4-0.2,2.8-0.4,4.2-0.6c11.5-1.8,22.3-3.5,34.2-1.1c2.7,0.5,5.4,0.4,8.2-0.6l3.2-1.1l0.1,3.4
			c0.2,7.5-0.5,15.6-1.1,23.4c-1.1,13.6-2.3,27.6,0.9,39.8L119.5,111.8z M35.6,105.8c11.1,1.6,23,0.1,34.5-1.4
			c14.1-1.8,28.6-3.6,42.5-0.1c-2.2-11.9-1.1-24.8-0.1-37.3c0.6-6.9,1.1-13.4,1.1-19.7c-2.5,0.4-5,0.4-7.5-0.1
			C95,45,84.6,46.7,73.6,48.4c-1.4,0.2-2.8,0.4-4.2,0.6c-7.9,1.2-20.2,0.6-28.5-0.7c-0.4,3.8-1,8.6-1.7,13.8
			C37.3,76.1,35,93.3,35.6,105.8z"/>
	</g>
	<g>
		<path fill="#2FA9CE" d="M111.3,100.3c-0.2-0.3-0.3-0.6-0.3-0.8c-2.7-2.9-4.6-6.6-6.5-10.1c-1.2-2.3-2.4-4.4-3.6-6.3
			c-1.4-2-2.5-4.2-3.6-6.3c-1.1-2.1-2-4-3.2-5.7c-0.1-0.1-0.2-0.3-0.3-0.4c0,0-0.1,0-0.1,0C89.5,70.8,82.9,76,78.3,81
			c-0.5,0.5-0.9,1-1.4,1.5c-3,3.3-6.1,6.7-10.3,9.1c-0.3,0.2-0.7,0.4-1,0.6c-2.4,1.4-5.7,3.4-8.9,1.8c-1.3-0.7-2.3-1.9-3.1-2.9
			c-0.4-0.5-0.9-1.2-1.3-1.5c-0.3,0.4-0.8,1.4-1.1,2c-0.7,1.4-1.3,2.8-2.5,3.7c-1.4,1.2-2.1,1.6-3.9,1.4c-0.2,0-0.5,0-0.9-0.1
			c-0.4,0-1.7,0.1-2.9,0.1c-7.4,0.4-10.2,0.5-10.4-2.5l5-0.4c-0.1-1.2-1-1.9-1.5-2c0.9,0.2,4.8,0,6.7-0.1c1.7-0.1,2.8-0.1,3.4-0.1
			c0.5,0,0.8,0,1.1,0.1c0,0,0,0,0,0c0.1-0.1,0.2-0.2,0.3-0.3c0.3-0.3,0.8-1.4,1.2-2.1c0.9-1.8,1.8-3.8,3.8-4.6
			c3.4-1.4,5.7,1.4,7.1,3.1c0.4,0.5,1.1,1.4,1.4,1.6c0.8,0.4,2.8-0.8,4.1-1.6c0.4-0.2,0.8-0.5,1.1-0.7c3.5-2,6.2-4.9,9-8.1
			c0.5-0.5,0.9-1,1.4-1.5c2.5-2.7,11.3-11.6,18.8-11.9c0.3,0,0.4,0,0.6,0c1.9-0.2,2.7,0.5,3.6,1.9c0.1,0.2,0.3,0.4,0.4,0.6
			c1.4,2,2.5,4.2,3.6,6.3c1.1,2.1,2,4,3.3,5.8c1.4,2.1,2.7,4.4,3.9,6.7c1.9,3.6,3.9,7.3,6.4,9.8l1.6,1.6l-0.8,1c0,0,0,0.1,0,0.1
			l-0.1,0l-0.6,0.7c0.2-0.2,0.3-0.4,0.3-0.7l-3.4,0.2l-0.6,0.7c-0.2-0.2-0.4-0.4-0.6-0.6l-0.1,0
			C111.2,100.1,111.3,100.3,111.3,100.3z"/>
	</g>
	<g>
		<path fill="#2FA9CE" d="M60.3,79.3c-0.7,0-1.3-0.1-1.8-0.2c-5.3-1.2-9.2-7.7-9.8-13c-0.4-4.2,1.1-7.6,4.4-9.1l9.4-4.4l-3.9,5
			c1.3,0,2.3,0.2,2.3,0.2c3.6,0.7,6.7,3.1,8.2,6.5c1.4,3.2,1.1,6.8-0.8,9.8C65.6,78.3,62.6,79.3,60.3,79.3z M54.5,62.1
			c-0.8,0.9-0.9,2.3-0.7,3.4c0.4,3.8,3.3,8,5.9,8.7c1.5,0.4,3-0.6,4.4-2.9c1.4-2.1,0.8-4.1,0.4-5.1c-0.8-1.8-2.5-3.2-4.5-3.5
			c-1.1-0.2-3.5-0.2-4.1,0.1c0.4-0.2,0.8-1.1,0.5-1.7L54.5,62.1z"/>
	</g>
	<g>
		<path fill="#2FA9CE" d="M85.7,150.8c-5.4,0-11.1-0.6-16.9-1.7c-22.6-4.5-49.8-12.4-60.3-33.7c-15.8-32-7.1-57.3,7.9-81.2l-3.5-2.3
			C25.3,12.3,46.6,0.8,71.3,0c26.4-0.8,51,8.9,65.8,25.7c20.2,23,16.5,62.1,4.6,88.6C131.1,138.1,111.1,150.8,85.7,150.8z
			 M28.1,21.5l1.8,1.3c-19.1,27.1-34.8,54.4-17,90.4c9.6,19.4,35.4,26.8,56.8,31c31,6.2,55.6-5.4,67.5-31.8
			c16.1-35.8,9.3-68.3-3.8-83.2c-13.8-15.8-37-24.8-61.9-24C54.7,5.5,39.6,11.4,28.1,21.5z"/>
	</g>
</g>
<g>
</g>
<g>
</g>
<g>
</g>
<g>
</g>
<g>
</g>
<g>
</g>
</svg>
