<?xml version="1.0" encoding="utf-8"?>
<!-- Generator: Adobe Illustrator 18.0.0, SVG Export Plug-In . SVG Version: 6.00 Build 0)  -->
<!DOCTYPE svg PUBLIC "-//W3C//DTD SVG 1.1//EN" "http://www.w3.org/Graphics/SVG/1.1/DTD/svg11.dtd">
<svg version="1.1" id="Layer_1" xmlns="http://www.w3.org/2000/svg" xmlns:xlink="http://www.w3.org/1999/xlink" x="0px" y="0px"
	 viewBox="0 0 40.5 40.5" enable-background="new 0 0 40.5 40.5" xml:space="preserve">
<path fill="#FFFFFF" d="M40.5,38c0,1.4-1.1,2.5-2.5,2.5H27.9V24.8h5.1l0.9-5.8h-5.9v-4.6c0-1.7,0.9-2.6,2.5-2.6h3.8V6.5
	c0,0-1.7-0.3-4.2-0.3c-5.6,0-8.4,3.1-8.4,7.7v5h-5.1v5.8h5.1v15.8H2.5C1.1,40.5,0,39.4,0,38V2.5C0,1.1,1.1,0,2.5,0H38
	c1.4,0,2.5,1.1,2.5,2.5V38z"/>
<g>
</g>
<g>
</g>
<g>
</g>
<g>
</g>
<g>
</g>
<g>
</g>
</svg>
