<?xml version="1.0" encoding="utf-8"?>
<!-- Generator: Adobe Illustrator 18.0.0, SVG Export Plug-In . SVG Version: 6.00 Build 0)  -->
<!DOCTYPE svg PUBLIC "-//W3C//DTD SVG 1.1//EN" "http://www.w3.org/Graphics/SVG/1.1/DTD/svg11.dtd">
<svg version="1.1" id="Layer_1" xmlns="http://www.w3.org/2000/svg" xmlns:xlink="http://www.w3.org/1999/xlink" x="0px" y="0px"
	 viewBox="0 0 40.5 32.9" enable-background="new 0 0 40.5 32.9" xml:space="preserve">
<path fill="#FFFFFF" d="M36.4,8.2c0,0.4,0,0.7,0,1.1c0,11-8.4,23.7-23.6,23.7c-4.7,0-9.1-1-12.8-3.4c0.7,0.1,1.3,0.1,2,0.1
	c3.9,0,7.5-1.7,10.3-3.9c-3.6,0-6.7-2.5-7.7-5.8c0.5,0.1,1,0.2,1.5,0.2c0.8,0,1.5-0.1,2.2-0.3c-3.8-0.8-6.7-4.1-6.7-8.2
	c0,0,0,0,0-0.1c1.1,0.6,2.4,1,3.8,1c-2.3-1.5-3.7-4-3.7-6.9c0-1.5,0.4-2.8,1.1-4c4.1,5,10.2,8.2,17.1,8.5c-0.1-0.6-0.2-1.3-0.2-1.9
	c0-4.6,3.7-8.3,8.3-8.3c2.4,0,4.6,1,6.1,2.6c1.9-0.4,3.7-1.1,5.2-2c-0.6,1.9-1.9,3.6-3.7,4.6C37.5,5,39,4.6,40.5,3.9
	C39.4,5.6,38,7,36.4,8.2z"/>
<g>
</g>
<g>
</g>
<g>
</g>
<g>
</g>
<g>
</g>
<g>
</g>
</svg>
