<?xml version="1.0" encoding="utf-8"?>
<!-- Generator: Adobe Illustrator 18.0.0, SVG Export Plug-In . SVG Version: 6.00 Build 0)  -->
<!DOCTYPE svg PUBLIC "-//W3C//DTD SVG 1.1//EN" "http://www.w3.org/Graphics/SVG/1.1/DTD/svg11.dtd">
<svg version="1.1" id="Layer_1" xmlns="http://www.w3.org/2000/svg" xmlns:xlink="http://www.w3.org/1999/xlink" x="0px" y="0px"
	 viewBox="0 0 149.2 149" enable-background="new 0 0 149.2 149" xml:space="preserve">
<g>
	<g>
		<path fill="#2FA9CE" d="M109.6,112.6c-4.4-5.6-8-10.2-11.1-14.6c-0.3-0.5-0.9-1.3-1.6-2.2c-1.7-2.4-6.7-9.7-8-10.7
			c0,0,0.5,0.3,1.2,0.2l-0.6-5c2.1-0.2,3.5,1,11.5,12.6c0.6,0.9,1.2,1.7,1.5,2.1c2.9,4,6.2,8.3,10.2,13.4l0.3-0.2
			c0.2,0.4,0.3,0.7,0.4,0.9c0,0.1,0.1,0.2,0.1,0.3L109.6,112.6z"/>
	</g>
	<g>
		<path fill="#2FA9CE" d="M65.6,92.6c-6.1,0-12.2-1.2-16.5-5.3c-7.4-7.1-6.7-17.2-4.3-26.5l-1.5,0.8c-1.8-3.5-2.2-6.8-1-9.8
			c2.2-5.8,9.4-8.9,15.3-11.1c9.2-3.3,19-2.8,26.2,1.2c10,5.5,13.5,19.2,12.4,29.5C95.1,82.9,87.1,90.4,74.4,92
			C71.6,92.3,68.6,92.6,65.6,92.6z M52.8,48.3l1,0.3c-0.4,1.4-0.9,2.9-1.4,4.5c-3.4,10.3-7.7,23.2,0.1,30.7
			c4.9,4.7,13.9,4.2,21.2,3.3c6-0.8,16.3-3.9,17.5-16c1.2-12.5-4.3-21.5-9.9-24.6c-6-3.3-14.3-3.7-22.1-0.9
			C57.3,46.2,54.9,47.1,52.8,48.3z M46.9,53.7C46.9,53.7,46.9,53.7,46.9,53.7c-0.1,0.2-0.1,0.4-0.2,0.6C46.8,54,46.9,53.9,46.9,53.7
			z"/>
	</g>
	<g>
		<path fill="#2FA9CE" d="M83.9,149c-10.9,0-21.9-2.4-32.9-5.8l-1.3,4C27.6,140.1,11,122.4,4,98.7c-7.5-25.4-4.4-51.6,8.2-70.2
			C29.3,3.1,68-3.3,96.7,1.5c31,5.2,50,27.7,52.1,61.8c1.4,23,0.7,51.3-17.3,66.9C115.6,144,99.7,149,83.9,149z M36.5,132.9
			c31.1,11.6,61.5,19.8,91.7-6.5c16.3-14.2,16.9-41,15.6-62.8C141.9,32,124.4,11.2,95.9,6.4c-38.7-6.5-68.4,8.4-79.5,24.9
			C4.6,48.6,1.8,73.3,8.8,97.3c4.7,16.1,14.2,29.2,26.9,37.7L36.5,132.9z"/>
	</g>
</g>
<g>
</g>
<g>
</g>
<g>
</g>
<g>
</g>
<g>
</g>
<g>
</g>
</svg>
