<?xml version="1.0" encoding="utf-8"?>
<!-- Generator: Adobe Illustrator 18.0.0, SVG Export Plug-In . SVG Version: 6.00 Build 0)  -->
<!DOCTYPE svg PUBLIC "-//W3C//DTD SVG 1.1//EN" "http://www.w3.org/Graphics/SVG/1.1/DTD/svg11.dtd">
<svg version="1.1" id="Layer_1" xmlns="http://www.w3.org/2000/svg" xmlns:xlink="http://www.w3.org/1999/xlink" x="0px" y="0px"
	 viewBox="0 0 155.8 155.2" enable-background="new 0 0 155.8 155.2" xml:space="preserve">
<g>
	<g>
		<path fill="#2FA9CE" d="M73.1,124.1c-0.5,0-0.9-0.1-1.4-0.2l-3.2-0.9l1.7-2.9c0.2-0.4,0.4-0.7,0.6-1.1l-3.2-3.9
			c-0.4,0.3-0.5,0.8-0.6,0.9c0.1-1.6-2.9-7.5-3.9-9.4c-0.4-0.8-0.7-1.4-0.9-1.8c-0.7-1.4-1.3-2.9-2-4.3c-2.1-4.6-4.3-9.3-6.8-13.8
			c-1.3-2.3-2.5-4.8-3.6-7.1c-1.8-3.8-3.5-7.4-5.9-10.6l-2.9-3.8l4.8-0.2c12.4-0.5,25,0.2,35.8,1c6.3,0.4,12.9,0.4,19.2,0.3
			c5.2-0.1,10.5-0.1,15.7,0.1l4.4,0.2l-2.4,3.7c-2.1,3.3-5.4,5.8-8.7,8.2c-2.7,2.1-5.3,4-7,6.3c-2.4,3.1-5,6.2-7.4,9.1
			c-2,2.4-4.1,5-6.1,7.5c-5.3,6.6-10.4,14-14.9,21.4l-0.7-0.4L74,124C73.7,124,73.4,124.1,73.1,124.1z M50.5,69.9
			c1.5,2.5,2.7,5.1,3.9,7.6c1.1,2.4,2.2,4.6,3.4,6.8c2.7,4.7,4.9,9.5,7,14.2c0.6,1.4,1.3,2.8,2,4.2c0.2,0.4,0.5,1,0.8,1.7
			c2.9,5.7,4.9,10,4.3,12.7c4.1-6.6,8.8-13.1,13.4-19c2-2.6,4.1-5.1,6.2-7.6c2.4-2.9,5-6,7.3-9c2.2-2.8,5.1-5,8-7.2
			c1.4-1.1,2.8-2.1,4.1-3.2c-3.4,0-6.8,0-10.1,0c-6.4,0.1-13.1,0.2-19.6-0.3C71.9,70.4,61.2,69.7,50.5,69.9z"/>
	</g>
	<g>
		<path fill="#2FA9CE" d="M118.9,69.6c-1.1-1.7-2.2-3.5-3.3-5.2c-3-4.7-6.1-9.5-8.5-14.5c-12.1-2.5-25.2-1.1-37.8,0.2l-0.5,0.1
			c-1.2,0.1-2.5,0.2-3.9,0.2c-3.6,0.1-8.5,0.3-10.3,1.8c-0.9,0.7-1.6,2.1-2.3,3.5c-0.6,1.2-1.2,2.4-2.1,3.5l-0.8,1.1
			c-1.9,2.4-4.2,5.5-6.6,7.4l-0.7,0.6l-0.9,0c-1,0-1.8-0.5-2.4-1.2c-0.3-0.5-0.8-1.4-0.3-2.8l2.1,0.7l-0.9-1.2
			c1.9-1.5,4-4.3,5.8-6.5l0.9-1.1c0.6-0.7,1.1-1.7,1.6-2.7c0.9-1.7,1.9-3.7,3.6-5.1c3.1-2.5,8.5-2.7,13.3-2.9
			c1.4-0.1,2.6-0.1,3.6-0.2l0.5-0.1c13.4-1.4,27.4-2.9,40.6,0.2l1.2,0.3l0.5,1.1c2.4,5.1,5.6,10.1,8.8,15.1c1.1,1.8,2.3,3.5,3.4,5.3
			L118.9,69.6z M41.1,65.1l2,0.7c0.1-0.3,0.2-1-0.3-1.7c-0.5-0.7-1.1-0.9-1.6-0.9L41.1,65.1z"/>
	</g>
	<g>
		<path fill="#2FA9CE" d="M64,70l-1.4-4.3c-0.4-1.2-1.7-2.7-2.9-4.2c-2.1-2.6-4.4-5.3-4.3-8.3l5,0.2c0,1.2,1.7,3.3,3.1,5
			c0.6,0.8,1.3,1.5,1.9,2.3c3.9-4.2,9.6-9.4,14.2-12.5l2.8,4.2c-5,3.4-12.1,10-15.4,14.2L64,70z"/>
	</g>
	<g>
		<path fill="#2FA9CE" d="M97.8,69.6l-2.9-3.5c-3.4-4.1-10.4-10.8-15.4-14.2l2.8-4.2c4.5,3,10.2,8.3,14.2,12.5
			c0.6-0.8,1.2-1.6,1.9-2.3c1.4-1.7,3.1-3.8,3.1-5l5-0.2c0.1,3.1-2.1,5.8-4.3,8.3c-1.2,1.5-2.5,3-2.9,4.2L97.8,69.6z"/>
	</g>
	<g>
		<path fill="#2FA9CE" d="M73.5,122.3l-5-0.3c0.5-9.4-0.5-19.1-1.5-28.5c-1-9.3-2-18.9-1.6-28.4l5,0.2C70,74.4,71,83.9,72,93
			C73,102.6,74,112.5,73.5,122.3z"/>
	</g>
	<g>
		<path fill="#2FA9CE" d="M73.4,124.6l-4.9-0.8c0.6-3.8,2.4-8.1,3.9-11.8c0.6-1.5,1.2-2.8,1.7-4.1c0.6-1.5,1.1-3,1.7-4.5
			c3.1-8.4,6.3-17.1,11.2-25.2c0.5-0.8,1.1-1.7,1.6-2.5c1.4-2.1,2.9-4.3,3.3-6.3l4.9,1.2c-0.7,2.9-2.4,5.5-4,8
			c-0.5,0.8-1,1.6-1.5,2.3c-4.7,7.7-7.8,16.2-10.8,24.4c-0.6,1.5-1.1,3-1.7,4.5c-0.5,1.4-1.1,2.8-1.7,4.3
			C75.5,117.5,73.9,121.3,73.4,124.6z"/>
	</g>
	<g>
		<path fill="#2FA9CE" d="M71.8,155.2c-22.3,0-41.6-12.4-54.7-35.7C5.8,99.5-5.9,73.7,3.4,51.8c14-32.9,38.8-42.7,66.7-47l-0.6-4.2
			c23-3.2,45.7,5.5,62.3,23.7c17.8,19.5,26.5,44.5,23.4,66.7c-4.3,30.3-36.3,53-64.2,61.2C84.4,154.2,78,155.2,71.8,155.2z
			 M87.4,5.6l0.2,2.2c-33,3.2-63.9,9.1-79.6,46c-8.5,19.9,2.8,44.3,13.5,63.3c15.5,27.6,40.3,38.6,68.1,30.5
			c37.7-11.1,57.9-37.4,60.7-57.1c3-20.8-5.3-44.2-22.1-62.6C116.8,15.3,102.6,7.7,87.4,5.6z"/>
	</g>
</g>
<g>
</g>
<g>
</g>
<g>
</g>
<g>
</g>
<g>
</g>
<g>
</g>
</svg>
