<?xml version="1.0" encoding="utf-8"?>
<!-- Generator: Adobe Illustrator 18.0.0, SVG Export Plug-In . SVG Version: 6.00 Build 0)  -->
<!DOCTYPE svg PUBLIC "-//W3C//DTD SVG 1.1//EN" "http://www.w3.org/Graphics/SVG/1.1/DTD/svg11.dtd">
<svg version="1.1" id="Layer_1" xmlns="http://www.w3.org/2000/svg" xmlns:xlink="http://www.w3.org/1999/xlink" x="0px" y="0px"
	 viewBox="0 0 151.6 144.5" enable-background="new 0 0 151.6 144.5" xml:space="preserve">
<path opacity="0.5" fill="#CE4E63" d="M150.2,84.2c-2.5-3.7-7.5-4.6-11.2-2.1c-0.5,0.3-0.9,0.6-1.4,1c5.5-11.8,10.1-24.1,9.9-37.2
	c-0.1-2.8-1.6-5.4-4-6.8c-2.4-1.4-5.4-1.5-7.9-0.2c-1.8,1-3.5,2-5.2,3.1c2-5.8,3.3-11.7,3.4-17.7c0-2.3-0.9-4.5-2.6-6
	c-1.7-1.6-3.9-2.3-6.2-2.1c-5.3,0.5-10.2,4-14.9,9.4c0-0.5,0-1.1,0-1.6c-0.1-2.7-1.4-5.1-3.7-6.6c-2.2-1.5-5.1-1.7-7.5-0.7
	c-4.6,1.9-8.5,5.6-12,10.2c1.7-5,3.1-9.9,4-14.6c0.7-3.5-1-7.1-4.1-8.8c-3.2-1.7-7.1-1-9.6,1.6c-0.4,0.4-0.8,0.9-1.2,1.3
	c-0.4-1.8-1.4-3.4-2.9-4.5c-1.9-1.5-4.4-2.1-6.8-1.5c-4.6,1.1-7.7,4.3-10,7.6c-1.5,0.2-2.8,0.9-3.9,1.9c0,0-0.1-0.1-0.1-0.1
	c-2.6-2.1-6.2-2.3-9.1-0.6c-0.5,0.3-1,0.6-1.4,0.8C41,8.9,40,8.3,38.8,7.9c-1.2-0.4-2.2-0.5-3.2-0.4c-0.2-0.1-0.4-0.3-0.6-0.4
	C27.8,2.8,22,10,16.3,18.4c-3.4,5-3.2,8.5-1.9,10.9C7.9,41.8,1.5,55.4,0,69c-0.4,3.7,1.8,7.2,5.2,8.4c0.7,1.3,1.8,2.4,3.2,3.1
	c2.3,1.3,5.1,1.2,7.4,0.1c-2.6,8.4-4.5,15.6-4.6,19.8c-0.1,3.5,2.1,6.7,5.5,7.9c2,0.7,4,0.5,5.8-0.3c-1.7,3.9-0.1,8.6,3.8,10.5
	c2.4,1.2,5.1,1.1,7.3-0.1c-1.5,6-2.5,11.9-2.8,17.5c-0.2,3.6,2,6.9,5.4,8.1c0.9,0.3,1.8,0.4,2.6,0.4c2.6,0,5.1-1.3,6.6-3.5
	c3.6-5.1,7.5-12.2,11.6-20.2c0.5,0.8,1.2,1.5,2.1,2.1c2.8,1.9,6.5,2,9.2,0c5.1-3.6,8.2-9.4,10.8-14c0.2-0.4,0.4-0.7,0.6-1.1
	c-1.7,3.6-3.2,7.1-4.7,10.7c-1.5,3.5-0.3,7.6,2.8,9.7c3.1,2.2,7.3,1.9,10.1-0.7c10.4-9.7,17.6-23,24.6-35.8
	c4.5-8.3,8.8-16.3,13.8-23.1c-2.1,5.2-4.7,10.5-7.3,16c-5,10.2-10.1,20.7-12.4,31.7c-0.6,2.9,0.4,5.9,2.7,7.9
	c2.3,1.9,5.4,2.4,8.2,1.3c8.6-3.5,14.2-11,19.7-18.2c3.7-4.8,7.1-9.4,10.9-11.9C151.7,92.8,152.7,87.8,150.2,84.2z"/>
<g>
</g>
<g>
</g>
<g>
</g>
<g>
</g>
<g>
</g>
<g>
</g>
</svg>
