<?xml version="1.0" encoding="utf-8"?>
<!-- Generator: Adobe Illustrator 18.0.0, SVG Export Plug-In . SVG Version: 6.00 Build 0)  -->
<!DOCTYPE svg PUBLIC "-//W3C//DTD SVG 1.1//EN" "http://www.w3.org/Graphics/SVG/1.1/DTD/svg11.dtd">
<svg version="1.1" id="Layer_1" xmlns="http://www.w3.org/2000/svg" xmlns:xlink="http://www.w3.org/1999/xlink" x="0px" y="0px"
	 viewBox="0 0 142.9 150.4" enable-background="new 0 0 142.9 150.4" xml:space="preserve">
<g>
	<g>
		<path fill="#2FA9CE" d="M95.2,105.1c-2.2,0-4.1-0.6-5.9-1.1c-0.4-0.1-0.8-0.2-1.3-0.4c-4.8-1.3-9.5-1.8-15.8-1.5
			c-2.1,0.1-4.9,0.5-7.9,0.9c-8.8,1.3-19.8,2.9-26-1.8l-1.3-1l0.4-1.6c1.2-4.4,1-10.2,0.8-15.9c-0.1-2.7-0.2-5.2-0.1-7.5
			c0.1-4-0.1-8.6-0.3-13c-0.2-4.6-0.4-9.4-0.3-13.7l0.1-2.4h2.4c4.9,0,9.6,0,13.2,0.5c1.5,0.2,2.2,0.1,3,0c0.9-0.1,2-0.3,4-0.2
			c1.9,0.1,3.7,0.5,5.4,0.9c1.9,0.4,3.7,0.8,5.4,0.8c0,0,0,0,0.1,0l0,5c-2.3,0-4.5-0.5-6.6-0.9c-1.6-0.4-3.2-0.7-4.7-0.8
			c-1.4-0.1-2.1,0-2.9,0.1c-1,0.2-2.2,0.3-4.4,0c-2.7-0.4-6.3-0.4-10.1-0.5c0,3.5,0.1,7.2,0.3,10.9c0.2,4.5,0.4,9.1,0.3,13.3
			c-0.1,2.2,0,4.6,0.1,7.2c0.2,5.3,0.3,10.7-0.6,15.5c4.9,2.4,13.7,1.1,20.9,0c3.1-0.5,6.1-0.9,8.5-1c6.8-0.3,12.1,0.3,17.4,1.7
			c0.5,0.1,0.9,0.3,1.3,0.4c1,0.3,1.9,0.6,2.8,0.7c-0.7-7-0.6-14.1-0.5-21c0-1.5,0-3,0-4.5l0-0.3c-0.1,0.8,0.4,2.1,1.7,2.5
			c0.6,0.2,1.1,0.2,1.6,0l-2.7-3.7c-0.4,0.3-0.5,0.6-0.6,0.6l0.1-0.1c1.1-2,2.7-1.7,3.2-1.5c1,0.3,1.8,1.3,1.7,2.7
			c0,1.5,0,2.9,0,4.4c-0.1,7.7-0.2,15.7,0.8,23.3l0.3,2.5l-2.5,0.3C96.1,105.1,95.7,105.1,95.2,105.1z"/>
	</g>
	<g>
		<path fill="#2FA9CE" d="M56.2,87.3L57,84c0.1-0.5,0.3-1.1,0.6-1.9c0.4-1.1,1.2-3.6,1.2-4.3c0,0.2,0.2,0.9,0.8,1.4l0.1-0.1
			l-0.8-1.2l1-1.4c8-11.2,18.5-21.1,29.5-31.1l0.5-0.5c4.8-4.3,9.7-8.8,14.7-12.9l2-1.6l1.6,2c0.6,0.8,1.7,1.4,2.9,2
			c1,0.5,1.9,1.1,2.9,1.8l2.4,1.8l-2.3,2c-3.9,3.5-7.8,7.2-11.5,10.8c-4.1,4-8.4,8.1-12.8,12c-4.6,4-10,8.9-15.1,14.2
			c-0.8,0.8-1.4,1.7-2,2.6c-1.2,1.6-2.5,3.4-4.7,4.7l-0.1,1.6L65.7,86c-0.5,0-1.7,0.3-2.8,0.5c-1.3,0.3-2.5,0.5-3.3,0.6L56.2,87.3z
			 M65.2,77.7c0.4,0.4,0.9,0.9,1.3,1.5c0.7-0.6,1.3-1.5,2.1-2.6c0.7-0.9,1.5-2,2.4-3.1C76.3,68,81.8,63.1,86.5,59
			c4.3-3.8,8.6-7.9,12.7-11.8c3-2.9,6-5.8,9.1-8.7c-0.7-0.4-1.4-0.8-2.1-1.3c-4.4,3.6-8.7,7.6-12.9,11.4L92.8,49
			C82.5,58.4,72.7,67.6,65.2,77.7z"/>
	</g>
	<g>
		<path fill="#2FA9CE" d="M68.2,150.4c-18.5,0-35.7-5.9-48.1-17c-22-19.7-23.6-59.1-15.8-87.3c8.5-30.6,32-47.3,64.5-46
			c21.9,0.9,48.7,4.5,61.4,24.1c19.1,29.4,14,55.8,3,82l3.7,1.6c-9.3,21.4-28,36.3-51.2,40.9C79.8,149.8,73.9,150.4,68.2,150.4z
			 M65.2,5C36.9,5,16.6,20.3,9.1,47.4c-10.6,38.2,0,69.5,14.3,82.3c15,13.5,37.9,18.7,61.3,14.1c15.7-3.1,29.2-11.3,38.7-23.3
			l-1.9-0.9c14.5-30,25.8-59.7,4.4-92.7C114.5,9.2,89.2,5.9,68.5,5.1C67.4,5,66.3,5,65.2,5z"/>
	</g>
</g>
<g>
</g>
<g>
</g>
<g>
</g>
<g>
</g>
<g>
</g>
<g>
</g>
</svg>
