<?xml version="1.0" encoding="utf-8"?>
<!-- Generator: Adobe Illustrator 18.0.0, SVG Export Plug-In . SVG Version: 6.00 Build 0)  -->
<!DOCTYPE svg PUBLIC "-//W3C//DTD SVG 1.1//EN" "http://www.w3.org/Graphics/SVG/1.1/DTD/svg11.dtd">
<svg version="1.1" id="Layer_1" xmlns="http://www.w3.org/2000/svg" xmlns:xlink="http://www.w3.org/1999/xlink" x="0px" y="0px"
	 viewBox="0 0 149.2 149" enable-background="new 0 0 149.2 149" xml:space="preserve">
<g>
	<g>
		<path fill="#2FA9CE" d="M116.3,98.8l-3.7-2.4c-0.2,0-0.7,0.2-1,0.3c-1,0.3-2.2,0.7-3.6,0.4c-8.1-1.4-17.7-2.1-27.6-2.1
			c-6.7,0-13.4-0.2-19.9-0.4c-8.5-0.3-17.4-0.5-26-0.3l-3,0.1l0.4-2.9c0.7-5.4,1-11,1.3-16.4c0.2-3,0.3-6,0.5-9.1l0.1-1.6
			c0.3-4.1,0.6-7.9,0.2-11.8l-2.5,1.2l0.2-4.2c0.1-0.9,0.1-1.8,0.3-2.5c-0.1-0.8,0-1.7,0-2.5l4.7,0.3l1.3-1.3l0.3,3c0,0,0,0,0,0
			c0.4,0,0.9,0,1.2,0c2.7-0.1,5.4-0.3,8.1-0.5c6.3-0.4,12.7-0.8,19.1-0.9l3.2-0.1c13.5-0.3,27.5-0.6,41.3,0l3,0.1l-0.7,2.9
			c-0.8,3.5,0,8.4,0.6,12.8c0.3,1.9,0.6,3.7,0.7,5.4c0.9,10.1,1.6,18,1.6,27.7L116.3,98.8z M81,90c10,0,19.6,0.7,27.8,2.1
			c0.2,0,0.9-0.2,1.3-0.3c0.4-0.1,0.8-0.2,1.2-0.3c-0.1-8.3-0.7-15.5-1.6-24.5c-0.1-1.5-0.4-3.3-0.7-5.1c-0.6-3.8-1.2-8-1-11.7
			c-12.8-0.4-25.7-0.2-38.3,0.1l-3.2,0.1c-6.3,0.1-12.7,0.5-18.9,0.9c-2.7,0.2-5.4,0.3-8.1,0.5c-0.2,0-0.5,0-0.8,0
			c0.6,4.4,0.2,8.8-0.1,13l-0.1,1.6c-0.2,3-0.4,6-0.5,9c-0.2,4.6-0.5,9.3-1,14c7.8-0.1,15.7,0.1,23.4,0.3C67,89.8,73.7,90,80.3,90
			C80.5,90,80.7,90,81,90z"/>
	</g>
	<g>
		<path fill="#2FA9CE" d="M116,105c-0.1,0-0.3,0-0.4,0c0.1,0,0.5,0,1-0.2l-0.7-1.4l-0.2,1.4c-2.2-0.3-4.5-0.2-7-0.1
			c-1.6,0.1-3.3,0.1-5,0.1c-6.2-0.2-12.6-0.4-18.7-0.5c-4.9-0.1-9.7-0.2-14.6-0.4c-3.2-0.1-6.5-0.2-9.7-0.4
			c-9.1-0.4-18.5-0.8-27.6-0.3l-0.3-5l0.8,0v0c9.1-0.4,18.4,0,27.3,0.3c3.2,0.1,6.5,0.3,9.7,0.4c4.9,0.1,9.7,0.3,14.6,0.4
			c6.1,0.2,12.5,0.3,18.7,0.5c1.5,0,3,0,4.6-0.1c2.5-0.1,5.1-0.2,7.8,0.2l1.9,0.2l0.3,1.9c0.2,1.2-0.4,2-0.7,2.3
			C117.5,104.6,116.9,105,116,105z M114.6,100.4c-0.1,0.1-0.2,0.2-0.3,0.3c-0.6,0.6-0.7,1.4-0.7,1.9l1.9-0.2L114.6,100.4z"/>
	</g>
	<g>
		<path fill="#2FA9CE" d="M83.9,149c-10.9,0-21.9-2.4-32.9-5.8l-1.3,4C27.6,140.1,11,122.4,4,98.7c-7.5-25.4-4.4-51.6,8.2-70.2
			C29.3,3.1,68-3.3,96.7,1.5c31,5.2,50,27.7,52.1,61.8c1.4,23,0.7,51.3-17.3,66.9C115.6,144,99.7,149,83.9,149z M36.5,132.9
			c31.1,11.6,61.5,19.8,91.7-6.5c16.3-14.2,16.9-41,15.6-62.8C141.9,32,124.4,11.2,95.9,6.4c-38.7-6.5-68.4,8.4-79.5,24.9
			C4.6,48.6,1.8,73.3,8.8,97.3c4.7,16.1,14.2,29.2,26.9,37.7L36.5,132.9z"/>
	</g>
	<g>
		<path fill="#2FA9CE" d="M47.8,74.3c-0.1,0-0.2,0-0.4,0c-0.2,0-0.4,0-0.7,0c-0.2,0-0.5,0-0.7,0c-0.2,0-0.3,0-0.4,0h-0.9
			c-0.2,0-0.5,0-0.7,0c-0.2,0-0.5-0.1-0.7-0.2c-0.2-0.1-0.4-0.2-0.5-0.4c-0.1-0.2-0.2-0.4-0.2-0.7c0-0.3,0.1-0.5,0.2-0.6
			c0.2-0.2,0.3-0.4,0.5-0.6c0.1-0.1,0.2-0.2,0.3-0.4c0.2-0.2,0.3-0.4,0.5-0.7c0.2-0.2,0.4-0.4,0.5-0.6c0.2-0.2,0.3-0.4,0.3-0.4
			c0.1-0.2,0.2-0.4,0.3-0.5c0.1-0.1,0.3-0.3,0.3-0.5l3-4.8c0.1-0.2,0.2-0.4,0.3-0.6c0.1-0.2,0.1-0.4,0.2-0.6
			c0.1-0.2,0.2-0.4,0.3-0.5c0.1-0.1,0.3-0.2,0.6-0.2c0.4,0,0.8,0.2,1,0.5c0.3,0.3,0.4,0.7,0.4,1c0,0,0,0.1,0,0.2
			c0,0.1-0.1,0.1-0.1,0.2L48,69.7c-0.1,0.2-0.2,0.4-0.4,0.6c-0.2,0.2-0.4,0.4-0.6,0.7c-0.2,0.2-0.4,0.4-0.5,0.7
			c-0.1,0.2-0.2,0.5-0.2,0.7c1.3,0,2.5,0,3.7,0.1c1.2,0.1,2.4,0.2,3.7,0.3c0.1,0.1,0.1,0.2,0.3,0.3c0.1,0.1,0.2,0.1,0.4,0.2
			c0.1,0.1,0.2,0.1,0.3,0.2c0.1,0.1,0.1,0.2,0.1,0.4c0,0.8-0.4,1.2-1.2,1.2c-0.3,0-0.5,0-0.7-0.1c-0.2-0.1-0.4-0.2-0.6-0.2
			c-0.7-0.2-1.5-0.3-2.2-0.3C49.3,74.3,48.6,74.3,47.8,74.3z"/>
		<path fill="#2FA9CE" d="M53.5,75.5c-0.4,0-0.7-0.1-0.9-0.2c-0.1-0.1-0.3-0.1-0.4-0.1c-0.7-0.2-1.4-0.3-2.2-0.3
			c-0.7-0.1-1.5-0.1-2.2-0.1c-0.1,0-0.2,0-0.4,0c-0.2,0-0.4,0-0.7,0c-0.3,0-0.5,0-0.7,0c-0.2,0-0.4,0-0.4,0h-0.9c-0.2,0-0.5,0-0.8,0
			c-0.3,0-0.6-0.1-0.8-0.2c-0.3-0.1-0.5-0.3-0.7-0.5c-0.2-0.3-0.3-0.6-0.3-1c0-0.4,0.1-0.7,0.4-1c0.2-0.2,0.3-0.3,0.5-0.5l0.3-0.4
			c0.2-0.2,0.3-0.4,0.5-0.7l0.5-0.7c0.1-0.1,0.2-0.3,0.3-0.3c0.1-0.3,0.2-0.5,0.4-0.6c0.1-0.1,0.1-0.2,0.2-0.3l3.1-4.8
			c0.1-0.1,0.2-0.3,0.2-0.5c0.1-0.2,0.2-0.5,0.3-0.7c0.1-0.3,0.3-0.5,0.4-0.6c0.2-0.2,0.5-0.3,0.9-0.3c0.6,0,1.1,0.2,1.4,0.6
			c0.3,0.4,0.5,0.8,0.6,1.3c0,0.1,0,0.3,0,0.5c0,0.1-0.1,0.2-0.2,0.3l-3.6,5.7c-0.1,0.2-0.3,0.5-0.5,0.7l-0.6,0.7
			c-0.1,0.2-0.3,0.3-0.4,0.5c1,0,2,0,3,0.1c1.2,0.1,2.4,0.2,3.7,0.3l0.3,0l0.1,0.2c0.2,0.1,0.3,0.2,0.4,0.3c0.2,0.1,0.3,0.2,0.4,0.3
			c0.2,0.2,0.3,0.5,0.3,0.8C55.2,74.9,54.6,75.5,53.5,75.5z M47.8,73.8c0.8,0,1.5,0,2.3,0.1c0.7,0.1,1.5,0.2,2.3,0.3
			c0.3,0,0.5,0.1,0.7,0.3c0.1,0,0.2,0.1,0.4,0.1c0.5,0,0.7-0.2,0.7-0.7c0-0.1,0-0.1,0-0.1c0,0-0.1-0.1-0.2-0.1
			c-0.1-0.1-0.2-0.1-0.3-0.2c-0.1-0.1-0.2-0.1-0.3-0.2c-1.2-0.1-2.3-0.2-3.4-0.3c-1.2-0.1-2.4-0.1-3.6-0.1h-0.5v-0.5
			c0-0.3,0.1-0.6,0.3-0.9c0.2-0.3,0.3-0.5,0.6-0.7l0.6-0.7c0.2-0.2,0.3-0.4,0.4-0.5l3.7-5.8c0-0.3-0.1-0.5-0.3-0.8
			c-0.2-0.2-0.4-0.3-0.6-0.3c-0.2,0-0.2,0-0.3,0.1c-0.1,0.1-0.2,0.2-0.2,0.3c-0.1,0.2-0.1,0.4-0.2,0.6c-0.1,0.3-0.2,0.5-0.3,0.7
			l-3,4.8c-0.1,0.2-0.2,0.4-0.4,0.6c-0.1,0.1-0.1,0.1-0.2,0.2l0,0.1c-0.1,0.1-0.2,0.3-0.4,0.5l-0.5,0.6c-0.2,0.2-0.4,0.4-0.5,0.7
			l-0.3,0.4c-0.2,0.2-0.4,0.4-0.6,0.6c0,0-0.1,0.1-0.1,0.3c0,0.2,0,0.3,0.1,0.4c0.1,0.1,0.2,0.2,0.3,0.2c0.2,0.1,0.3,0.1,0.5,0.1
			c0.2,0,0.5,0,0.7,0h0.9c0.1,0,0.2,0,0.4,0c0.2,0,0.4,0,0.7,0c0.3,0,0.5,0,0.7,0C47.6,73.8,47.8,73.8,47.8,73.8z"/>
	</g>
	<g>
		<path fill="#2FA9CE" d="M57.4,72c0,0.2,0,0.2,0-0.1c0-0.3,0.1-0.8,0.2-1.4c0.1-0.6,0.2-1.4,0.3-2.3c0.1-0.9,0.3-1.8,0.5-2.7
			c0.2-0.9,0.4-1.7,0.6-2.6c0.2-0.8,0.4-1.5,0.7-2c0.2-0.7,0.6-1.3,1-1.9c0.4-0.6,0.8-1.2,1.3-1.7c0.1-0.1,0.2-0.2,0.3-0.3
			c0.1-0.1,0.3-0.1,0.5-0.1c0.3,0,0.5,0.1,0.7,0.3c0.2,0.2,0.3,0.5,0.3,0.8c0,0.3-0.1,0.5-0.2,0.8c-0.1,0.3-0.3,0.5-0.4,0.8
			c-0.2,0.3-0.4,0.5-0.5,0.8c-0.2,0.2-0.3,0.5-0.4,0.6c-0.3,0.7-0.7,1.5-1,2.5c-0.3,1-0.6,2-0.9,3c-0.3,1-0.5,2-0.6,3
			c-0.1,1-0.2,1.7-0.1,2.3c0,0.8,0.1,1.5,0.3,2.2c0.2,0.7,0.6,1.3,1.2,1.8c0.1,0.1,0.2,0.2,0.4,0.3c0.2,0.1,0.4,0.3,0.6,0.4
			c0.2,0.1,0.4,0.3,0.6,0.4c0.2,0.1,0.3,0.2,0.4,0.2c0,0,0,0.1,0,0.1c0,0.1,0,0.1,0,0.1c0,0.2-0.1,0.3-0.3,0.4
			c-0.2,0.1-0.4,0.1-0.5,0.1c-0.7,0-1.4-0.2-1.9-0.5c-0.6-0.4-1.1-0.8-1.5-1.4c-0.4-0.6-0.7-1.2-1-1.8C57.6,73.3,57.4,72.6,57.4,72z
			"/>
		<path fill="#2FA9CE" d="M62.2,78.2c-0.8,0-1.5-0.2-2.2-0.6c-0.6-0.4-1.2-0.9-1.6-1.5c-0.4-0.6-0.8-1.3-1-2
			c-0.2-0.6-0.3-1.2-0.4-1.8c-0.1-0.1-0.1-0.3,0-0.6c0-0.3,0.1-0.8,0.2-1.4c0.1-0.6,0.2-1.4,0.3-2.3c0.1-0.9,0.3-1.8,0.5-2.7
			c0.2-0.9,0.4-1.8,0.6-2.6c0.2-0.8,0.5-1.5,0.7-2.1c0.2-0.7,0.6-1.3,1-2c0.4-0.6,0.8-1.2,1.3-1.8c0.1-0.1,0.2-0.3,0.4-0.4
			c0.5-0.4,1.3-0.3,1.8,0.2c0.3,0.3,0.5,0.7,0.5,1.1c0,0.3-0.1,0.7-0.2,1c-0.1,0.3-0.3,0.6-0.5,0.9c-0.2,0.3-0.4,0.5-0.6,0.8
			c-0.2,0.2-0.3,0.4-0.4,0.6c-0.3,0.7-0.6,1.5-1,2.5c-0.3,1-0.6,2-0.9,3c-0.3,1-0.5,2-0.6,2.9C60,70.3,60,71,60.1,71.6
			c0,0.8,0.1,1.5,0.3,2.1c0.1,0.6,0.5,1.1,1.1,1.5l0.4,0.3c0.2,0.1,0.4,0.3,0.6,0.4l0.6,0.4c0.2,0.1,0.3,0.2,0.3,0.2l0.3,0.1V77
			c0,0.2,0,0.2,0,0.3c0,0.4-0.2,0.8-0.6,0.9C62.7,78.2,62.4,78.2,62.2,78.2z M57.9,72L57.9,72c0,0.6,0.1,1.2,0.4,1.8
			c0.2,0.6,0.5,1.2,0.9,1.7c0.4,0.5,0.8,0.9,1.4,1.3c0.5,0.3,1.1,0.5,1.7,0.5c0.1,0,0.1,0,0.2,0c0,0-0.1,0-0.1-0.1l-0.6-0.4
			c-0.2-0.1-0.4-0.3-0.6-0.4L60.8,76c-0.7-0.6-1.2-1.3-1.4-2.1c-0.2-0.7-0.3-1.5-0.3-2.3c-0.1-0.6-0.1-1.4,0.1-2.4
			c0.1-1,0.4-2,0.6-3c0.3-1,0.6-2.1,0.9-3.1c0.3-1,0.7-1.9,1-2.6c0.1-0.2,0.3-0.5,0.5-0.7c0.2-0.2,0.3-0.5,0.5-0.7
			c0.2-0.2,0.3-0.5,0.4-0.7c0.1-0.2,0.1-0.4,0.1-0.6c0-0.2-0.1-0.3-0.2-0.4c-0.2-0.2-0.5-0.2-0.5-0.1c-0.1,0.1-0.2,0.2-0.2,0.3
			c-0.4,0.6-0.9,1.1-1.2,1.7c-0.4,0.6-0.7,1.2-0.9,1.8c-0.3,0.5-0.5,1.2-0.7,2c-0.2,0.8-0.4,1.6-0.6,2.5c-0.2,0.9-0.3,1.8-0.5,2.6
			c-0.1,0.9-0.3,1.6-0.3,2.3C58,71.1,57.9,71.6,57.9,72C57.9,71.9,57.9,71.9,57.9,72z"/>
	</g>
	<g>
		<path fill="#2FA9CE" d="M66.3,77c0-0.2,0.1-0.3,0.3-0.5c0.2-0.2,0.4-0.4,0.4-0.5c0.4-0.6,0.8-1.1,1.1-1.5c0.3-0.5,0.7-1,1-1.5
			c0.1-0.2,0.2-0.5,0.3-0.9c0.1-0.3,0.2-0.6,0.4-0.8c0.3-1,0.5-2,0.7-2.9c0.2-0.9,0.2-1.9,0.2-3c0-1.2-0.1-2.3-0.3-3.5
			c-0.2-1.2-0.4-2.3-0.8-3.4c-0.1-0.2-0.2-0.5-0.3-0.7c-0.2-0.2-0.3-0.4-0.5-0.6c-0.2-0.2-0.3-0.4-0.4-0.6c-0.1-0.2-0.2-0.4-0.2-0.6
			c0-0.2,0.1-0.4,0.3-0.6c0.2-0.2,0.4-0.3,0.6-0.3c0.4,0,0.7,0.1,1,0.4c0.3,0.2,0.6,0.5,0.8,0.9c0.2,0.3,0.5,0.7,0.6,1.1
			c0.2,0.4,0.3,0.7,0.4,1c0.2,0.5,0.3,1,0.4,1.6c0.1,0.6,0.2,1.1,0.3,1.7c0.1,0.6,0.1,1.2,0.2,1.7c0,0.6,0.1,1.1,0.1,1.6
			c0,1.1-0.1,2.3-0.2,3.3c-0.1,1.1-0.4,2.2-0.8,3.3c0,0,0,0.1-0.1,0.3c-0.1,0.2-0.2,0.4-0.3,0.6c-0.1,0.2-0.2,0.5-0.3,0.7
			c-0.1,0.2-0.2,0.4-0.2,0.5c-0.1,0.2-0.3,0.5-0.6,1c-0.3,0.5-0.6,0.9-0.9,1.4c-0.3,0.5-0.7,0.8-1.1,1.2c-0.4,0.3-0.7,0.5-1,0.5
			c-0.1,0-0.2,0-0.4,0c-0.1,0-0.3-0.1-0.4-0.1c-0.1-0.1-0.2-0.1-0.3-0.2C66.3,77.3,66.3,77.1,66.3,77z"/>
		<path fill="#2FA9CE" d="M67.5,78.3c-0.1,0-0.3,0-0.5-0.1c-0.2,0-0.4-0.1-0.5-0.2c-0.2-0.1-0.4-0.2-0.5-0.4
			c-0.2-0.2-0.3-0.4-0.3-0.7c0-0.3,0.1-0.6,0.4-0.9c0.2-0.2,0.3-0.3,0.4-0.5c0.4-0.6,0.8-1.1,1.1-1.5c0.3-0.4,0.6-0.9,0.9-1.5
			c0.1-0.2,0.2-0.5,0.3-0.8c0.1-0.3,0.2-0.6,0.4-0.9c0.3-1,0.5-1.9,0.6-2.8c0.1-0.9,0.2-1.9,0.2-2.9c0-1.1-0.1-2.3-0.3-3.4
			c-0.2-1.1-0.4-2.3-0.7-3.4c0-0.2-0.1-0.4-0.2-0.5c-0.2-0.2-0.3-0.4-0.5-0.6c-0.2-0.2-0.3-0.4-0.4-0.6c-0.2-0.3-0.2-0.6-0.2-0.9
			c0-0.3,0.1-0.7,0.4-1c0.7-0.7,1.6-0.5,2.3,0c0.3,0.3,0.7,0.6,0.9,1c0.3,0.4,0.5,0.8,0.7,1.2c0.2,0.4,0.3,0.7,0.4,1
			c0.2,0.5,0.3,1,0.4,1.6c0.1,0.6,0.2,1.1,0.3,1.7c0.1,0.6,0.1,1.2,0.2,1.8c0,0.6,0.1,1.1,0.1,1.7c0,1.2-0.1,2.3-0.2,3.4
			c-0.1,1.1-0.4,2.2-0.8,3.3c0,0.1-0.1,0.2-0.2,0.4c-0.1,0.2-0.2,0.4-0.3,0.6c-0.1,0.2-0.2,0.5-0.3,0.7c-0.1,0.2-0.2,0.4-0.2,0.5
			c-0.1,0.3-0.3,0.6-0.6,1.1c-0.3,0.5-0.6,0.9-0.9,1.4c-0.4,0.5-0.7,0.9-1.1,1.3C68.4,78,68,78.3,67.5,78.3z M69.3,55.4
			c-0.1,0-0.2,0-0.3,0.1c-0.1,0.1-0.1,0.2-0.1,0.3c0,0.1,0,0.3,0.1,0.4c0.1,0.2,0.2,0.4,0.4,0.5c0.2,0.2,0.3,0.4,0.5,0.6
			c0.2,0.3,0.3,0.5,0.4,0.8c0.3,1.1,0.6,2.3,0.8,3.5c0.2,1.2,0.3,2.4,0.3,3.6c0,1.1-0.1,2.1-0.2,3.1c-0.2,1-0.4,2-0.7,3l-0.1,0.1
			c-0.1,0.2-0.2,0.4-0.3,0.7c-0.1,0.3-0.2,0.7-0.3,0.9c-0.3,0.6-0.7,1.2-1,1.6c-0.3,0.4-0.7,0.9-1.1,1.5c-0.1,0.2-0.3,0.3-0.5,0.6
			c-0.1,0.2-0.2,0.2-0.2,0.2c0,0.1,0.1,0.1,0.2,0.1c0.1,0,0.2,0.1,0.3,0.1c0.1,0,0.2,0,0.3,0c0.1,0,0.3,0,0.6-0.4
			c0.3-0.3,0.7-0.7,1-1.1c0.3-0.4,0.6-0.9,0.9-1.3c0.3-0.4,0.5-0.8,0.6-1c0-0.1,0.1-0.3,0.2-0.5c0.1-0.2,0.2-0.5,0.3-0.7
			c0.1-0.2,0.2-0.5,0.3-0.6c0-0.1,0.1-0.2,0.1-0.2c0.4-1.1,0.6-2.2,0.8-3.3c0.1-1.1,0.2-2.2,0.2-3.3c0-0.5,0-1-0.1-1.6
			c0-0.6-0.1-1.1-0.2-1.7c-0.1-0.6-0.2-1.1-0.3-1.7c-0.1-0.5-0.2-1-0.4-1.5c-0.1-0.3-0.2-0.6-0.4-0.9c-0.2-0.3-0.4-0.7-0.6-1
			c-0.2-0.3-0.5-0.6-0.7-0.8C69.8,55.5,69.5,55.4,69.3,55.4z"/>
	</g>
	<g>
		<path fill="#2FA9CE" d="M77.9,81.2c0,0,1-1.3,1-1.3c0.1-0.6,0.1-0.3,0.1-0.4l1.1-4.8l0-1.9c0,0,0.1-0.1,0.2-0.2
			c0.1-0.1,0.2-0.2,0.3-0.2c0,0,0.1,0,0.1,0c0,0,0.1,0,0.1,0c0.5,0,0.8,0.1,1.1,0.4c0.2,0.3,0.3,0.7,0.3,1.1c0,0.5,0,1-0.1,1.5
			c0,0.2-0.1,0.4-0.1,0.7c0,0.3-0.1,0.5-0.1,0.8c0,0.3-0.1,0.6-0.2,1L81.5,78l-0.6,2.7c0,0.2-0.4,0.4-0.6,0.5
			c-0.2,0.1-0.6,0.7-0.8,0.6C78.7,81.9,77.9,82,77.9,81.2z M80.3,68.2c0-0.1,0-0.2,0.1-0.4c0-0.1,0.1-0.3,0.2-0.4
			c0.1-0.1,0.2-0.2,0.3-0.3c0.1-0.1,0.2-0.1,0.4-0.1c0.1,0,0.3,0,0.4,0.1c0.2,0.1,0.3,0.2,0.4,0.3c0.1,0.1,0.2,0.3,0.3,0.4
			c0.1,0.2,0.1,0.3,0.1,0.4l0,0.4c0,0.1-0.1,0.2-0.3,0.3c-0.2,0.1-0.3,0.2-0.3,0.3l-0.1,0c-0.3,0-0.7-0.1-1-0.2
			C80.5,68.9,80.3,68.6,80.3,68.2z"/>
		<path fill="#2FA9CE" d="M79.4,82.4l-0.1,0c-0.1,0-0.2,0-0.3,0c-0.6,0-1.6-0.1-1.6-1.2c0-0.2,0-0.2,0.5-0.9
			c0.2-0.2,0.4-0.5,0.5-0.6l1.1-5.1l0-1.8c0-0.2,0.2-0.4,0.4-0.6c0.2-0.2,0.3-0.3,0.4-0.3l0.1-0.1h0.1c0.1,0,0.1,0,0.2,0
			c0.8,0,1.2,0.3,1.5,0.6c0.3,0.4,0.5,0.9,0.5,1.4c0,0.5,0,1-0.1,1.6c0,0.2-0.1,0.4-0.1,0.7l-0.4,2l-0.1,0.2l-0.6,2.7
			c-0.1,0.3-0.4,0.6-0.7,0.7l-0.1,0.1c0,0-0.1,0.1-0.1,0.1C80,82.2,79.8,82.4,79.4,82.4z M78.4,81.3c0.1,0.1,0.4,0.1,0.6,0.1
			c0.1,0,0.2,0,0.3,0c0.1-0.1,0.3-0.2,0.3-0.3c0.1-0.1,0.2-0.2,0.2-0.2c0,0,0.1-0.1,0.2-0.1c0.1,0,0.2-0.1,0.3-0.2l0.7-2.8l0.1-0.2
			l0.3-1.7c0-0.3,0.1-0.5,0.1-0.7c0.1-0.5,0.1-1,0.1-1.4c0-0.3-0.1-0.6-0.2-0.8c0-0.1-0.2-0.3-0.7-0.3c0,0,0,0,0,0
			c0,0-0.1,0.1-0.2,0.1c0,0,0,0,0,0l0,1.7l-1,4.6l0,0L79.4,80c0,0.1,0,0.2-0.7,1C78.6,81.1,78.5,81.2,78.4,81.3z M81.8,69.8
			L81.8,69.8c-0.4,0-0.8-0.1-1.2-0.3c-0.5-0.2-0.8-0.7-0.8-1.3c0-0.2,0-0.3,0.1-0.5c0.1-0.2,0.1-0.4,0.3-0.5
			c0.1-0.2,0.2-0.3,0.4-0.5c0.4-0.3,0.9-0.3,1.4,0c0.2,0.1,0.4,0.3,0.5,0.4c0.2,0.2,0.3,0.3,0.4,0.5c0.1,0.2,0.2,0.4,0.2,0.6l0,0.5
			L83,68.9c-0.1,0.1-0.2,0.3-0.4,0.5c-0.2,0.2-0.3,0.3-0.4,0.3l-0.1,0.1L81.8,69.8z M81.3,67.4c-0.1,0.1-0.2,0.2-0.3,0.3
			c-0.1,0.1-0.1,0.2-0.1,0.3c0,0.1,0,0.2,0,0.2c0,0.2,0.1,0.3,0.2,0.4c0.2,0.1,0.5,0.2,0.7,0.2c0,0,0.1-0.1,0.2-0.1
			c0.1-0.1,0.1-0.1,0.1-0.1l0-0.2c0,0,0,0-0.1-0.2c-0.1-0.1-0.1-0.2-0.2-0.3c-0.1-0.1-0.2-0.2-0.3-0.3
			C81.3,67.4,81.3,67.4,81.3,67.4z"/>
	</g>
</g>
<g>
</g>
<g>
</g>
<g>
</g>
<g>
</g>
<g>
</g>
<g>
</g>
</svg>
