<?xml version="1.0" encoding="utf-8"?>
<!-- Generator: Adobe Illustrator 18.0.0, SVG Export Plug-In . SVG Version: 6.00 Build 0)  -->
<!DOCTYPE svg PUBLIC "-//W3C//DTD SVG 1.1//EN" "http://www.w3.org/Graphics/SVG/1.1/DTD/svg11.dtd">
<svg version="1.1" id="Layer_1" xmlns="http://www.w3.org/2000/svg" xmlns:xlink="http://www.w3.org/1999/xlink" x="0px" y="0px"
	 viewBox="0 0 155 156" enable-background="new 0 0 155 156" xml:space="preserve">
<g>
	<path fill="#2FA9CE" d="M60.2,76.3c0.3,0.2,1.1,0.9,1.5,1.3c0.5,0.5,1,1.1,1.4,1.6l0.5,0.5c1.5,1.7,3.3,3.1,5,4.3
		c1.2,0.9,2.3,1.8,3.5,2.9c1.3,1.1,2.6,2.3,4.1,3.3l1.6,1.1l1.5-1.3c2.7-2.4,5.5-4.8,8.2-7.4c1.5-1.5,2.8-3.1,4.2-4.9l0.3-0.4
		c0.4-0.6,0.7-1,1.2-1.3c0.2-0.1,0.4-0.3,0.7-0.5c0.7-0.4,1.5-0.9,2.1-1.8l-4-3c-0.1,0.1-0.5,0.4-0.8,0.5c-0.4,0.2-0.8,0.5-1.2,0.9
		c-0.9,0.7-1.4,1.4-1.9,2.1l-0.3,0.4c-1.2,1.6-2.5,3.1-3.7,4.4c-1.2,1.2-2.5,2.4-3.8,3.6c0-6.5,0.1-12.3,0.4-17.8
		c0.1-1.9-0.1-3.8-0.2-5.5l0-0.3c-0.1-1.3-0.1-2.6-0.1-4c0-1.4,0-2.9-0.1-4.5c-0.2-2.6-0.1-5.2,0.1-8c0.1-2.2,0.3-4.4,0.2-6.7
		l-5,0.2c0.1,2-0.1,4.1-0.2,6.2c-0.2,2.9-0.3,5.8-0.1,8.8c0.1,1.3,0.1,2.6,0.1,4c0,1.4,0,2.9,0.1,4.4l0,0.3c0.2,1.7,0.3,3.3,0.2,4.9
		c-0.3,5.6-0.4,11.6-0.4,18.3c-1.1-1-2.3-2-3.6-2.9c-1.5-1.1-3-2.2-4.2-3.5L66.9,76c-0.5-0.6-1-1.2-1.5-1.7
		c-2.3-2.5-3.7-3.1-5.2-2.3l2.3,4.4C61.6,76.8,60.7,76.6,60.2,76.3z"/>
	<path fill="#2FA9CE" d="M116,90.6c-0.1-1.3-0.2-2.2-0.2-2.6l-0.1-2.3l-2.3-0.1c-2.1-0.1-4.2,0-6.2,0c-0.8,0-1.7,0.1-2.5,0.1l-2.3,0
		l-0.1,2.3c-0.1,1.4,0,2.9,0,4.3c0,2,0.1,3.9-0.1,5.7c0,0.2,0,0.4-0.1,0.6c0,0.1,0,0.4-0.1,0.6c-0.9,0-1.7,0-2.6-0.1
		c-1.1,0-2.2-0.1-3.4-0.1c-4,0-7.9-0.4-12-0.7c-1.8-0.2-3.7-0.3-5.6-0.5c-4.8-0.3-9.6-0.2-14.3-0.1c-1.8,0-3.6,0.1-5.4,0.1
		c-0.6,0-1.2,0-1.8,0c-0.9,0-1.9,0-2.8,0c-0.3,0-0.6,0-1,0.1c-0.1,0-0.2,0-0.3,0c-0.1-0.7,0-2,0.3-3.8c0-0.3,0.1-0.6,0.1-0.8
		c0-0.1,0.1-0.4,0.2-0.6c0.3-1,1.2-3.6-1.2-5.3c-2.4-1.7-7.3-1.5-9.1-0.8c-3.7,1.2-3.4,5.4-3.2,7.6c0,0.5,0.1,1,0.1,1.4
		c0,0.9-0.1,1.8-0.1,2.7c-0.1,1.3-0.1,2.5-0.2,3.8c0,0.3,0,0.7-0.1,1c-0.2,2.2-0.6,7.4,4,7.9c1.4,0.2,2.7-0.1,3.8-0.4
		c0.7-0.1,1.3-0.3,1.8-0.3c1.7,0,3.1,0,4.6,0.4c2.5,0.7,5.1,0.4,7.3,0.1c0.5-0.1,0.9-0.1,1.4-0.2l0.6-0.1c2.8-0.3,5.7-0.6,8.5-0.6
		c2.1,0,4-0.1,6-0.2c1.9-0.1,3.8-0.2,5.6-0.2c0,0,0,0,0,0c1.9,0,3.9,0.1,5.8,0.1c3.1,0.1,6.4,0.1,9.7,0.2c2.5,0,5,0.1,7.5,0
		c1-0.1,2.1,0.1,3.2,0.2c1.1,0.1,2.3,0.3,3.6,0.2l0-1.9l0.6,0.3l0.4,3c2.8-0.4,2.8-3.3,2.5-9.8C116.5,98.1,116.2,93.4,116,90.6z
		 M111.7,108.1l-1.1,0.1c0-0.3,0-0.6,0.2-0.9l0.9,0.5C111.7,107.9,111.7,108,111.7,108.1z M110.1,105.3c-1.3-0.1-2.6-0.3-4-0.2
		c-2.4,0.1-4.7,0.1-7.2,0c-3.2-0.1-6.4-0.1-9.6-0.2c-2-0.1-4-0.1-6-0.1c0,0,0,0,0,0c-2,0-4,0.1-5.9,0.2c-2,0.1-3.8,0.2-5.7,0.2
		c-3.1,0-6.1,0.3-9,0.6l-0.6,0.1c-0.5,0-1,0.1-1.5,0.2c-1.9,0.2-3.9,0.5-5.4,0c-1.8-0.5-3.5-0.6-5.2-0.6c-0.2,0-0.5,0-0.7,0
		c-1,0-2,0.2-2.8,0.4c-0.6,0.1-1.2,0.3-1.7,0.3c-0.1-0.7,0-1.9,0-2.6c0-0.5,0.1-0.9,0.1-1.3c0-1.2,0.1-2.5,0.2-3.7
		c0-0.9,0.1-1.8,0.1-2.7c0-0.6,0-1.3-0.1-2c-0.1-0.7-0.2-1.9,0-2.5c0.9-0.2,2.7-0.2,3.7,0c-0.1,0.4-0.3,0.9-0.3,1.4
		c0,0.2-0.1,0.4-0.1,0.7c-0.4,2.8-1.2,7.5,2.1,9.1c1.2,0.6,2.5,0.4,3.4,0.3c0.2,0,0.4-0.1,0.5-0.1c0.9,0,1.7,0,2.6,0
		c0.6,0,1.3,0,1.9,0c1.8,0,3.6-0.1,5.5-0.1c4.6-0.1,9.3-0.2,13.8,0.1c1.8,0.1,3.7,0.3,5.5,0.5c4,0.4,8.2,0.7,12.5,0.7
		c1.1,0,2.1,0,3.2,0.1c1,0,2.1,0.1,3.1,0.1l0.2,0c0.6,0,2,0.1,3.1-1c1-1,1.2-2.5,1.3-4.1c0-0.2,0-0.3,0-0.4c0.3-2.2,0.2-4.3,0.2-6.4
		c0-0.5,0-1.1,0-1.6c0.1,0,0.1,0,0.2,0c1.2,0,2.4-0.1,3.6-0.1c0,0.1,0,0.2,0,0.4c0.5,6.8,0.7,11.6,0.7,14.5
		C111.2,105.4,110.7,105.4,110.1,105.3z"/>
	<path fill="#2FA9CE" d="M142.2,35.1l-3.4,2.5c-16.8-22.7-37-40.1-72.6-37.2C42.5,2.2,25.1,24.7,12.6,44C-5.9,72.7-4,102,18,124.6
		C34.2,141.3,59.7,156,84,156c6.1,0,12.2-0.9,18-3c21.2-7.5,39.2-26.9,48.2-51.7C158.6,78.1,155.7,53.9,142.2,35.1z M145.5,99.6
		c-8.5,23.5-25.4,41.7-45.2,48.7c-18.8,6.7-51.4,1-78.8-27.1C1.4,100.4-0.3,73.2,16.8,46.7C28.7,28.3,45.1,7,66.6,5.3
		C69,5.1,71.3,5,73.6,5c35.4,0,53.7,23.3,70.8,49.4l1.8-1.2C151.4,67.6,151.2,83.8,145.5,99.6z"/>
</g>
<g>
</g>
<g>
</g>
<g>
</g>
<g>
</g>
<g>
</g>
<g>
</g>
</svg>
