<?xml version="1.0" encoding="utf-8"?>
<!-- Generator: Adobe Illustrator 18.0.0, SVG Export Plug-In . SVG Version: 6.00 Build 0)  -->
<!DOCTYPE svg PUBLIC "-//W3C//DTD SVG 1.1//EN" "http://www.w3.org/Graphics/SVG/1.1/DTD/svg11.dtd">
<svg version="1.1" id="Layer_1" xmlns="http://www.w3.org/2000/svg" xmlns:xlink="http://www.w3.org/1999/xlink" x="0px" y="0px"
	 viewBox="0 0 56.9 57.3" enable-background="new 0 0 56.9 57.3" xml:space="preserve">
<g>
	<g>
		<path fill="#2FA9CE" d="M52.2,12.9L51,13.8C44.8,5.5,37.4-0.9,24.3,0.1c-8.7,0.7-15.1,8.9-19.7,16c-6.8,10.5-6.1,21.3,2,29.6
			c5.9,6.1,15.3,11.5,24.3,11.5c2.2,0,4.5-0.3,6.6-1.1c7.8-2.8,14.4-9.9,17.7-19C58.3,28.7,57.2,19.8,52.2,12.9z M53.4,36.6
			c-3.1,8.6-9.3,15.3-16.6,17.9C30,56.9,18,54.8,7.9,44.5c-7.4-7.6-8-17.6-1.7-27.3c4.4-6.7,10.4-14.6,18.3-15.2
			c0.9-0.1,1.7-0.1,2.6-0.1c13,0,19.7,8.6,26,18.1l0.7-0.4C55.6,24.8,55.5,30.8,53.4,36.6z"/>
	</g>
</g>
<g>
	<path fill="#2FA9CE" d="M30.1,41.1c-0.1,0-0.2,0-0.3-0.1c-0.3-0.1-0.6-0.4-0.7-0.8c-0.2-1.6-0.1-3.4,0.1-4.9
		c-1.9,0-3.6,0.2-5.4,0.4c-1.4,0.2-2.8,0.3-4.4,0.4c-0.9,0-2.3,0-3.7,0c-0.7,0-1.5,0-2.2,0c-0.6,0-1-0.4-1-1s0.4-1,1-1
		c0.7,0,1.5,0,2.3,0c1.4,0,2.8,0,3.6,0c1.5-0.1,2.9-0.2,4.3-0.4c2.3-0.3,4.4-0.5,6.9-0.4c0.3,0,0.5,0.1,0.7,0.4s0.3,0.5,0.2,0.8
		c-0.1,1-0.3,2.2-0.3,3.4c1.7-1.6,3.1-2.7,4-3.5c1-0.8,1.9-1.7,2.9-2.6c1.1-1.1,2.4-2.3,4.1-3.6c-1.9-1.4-3.6-3-5.2-4.5
		c-1.6-1.5-3.3-3.1-5.2-4.5c0,0.5,0,1,0,1.5c0,0.6-0.1,1.2,0,1.8c0,0.3-0.1,0.5-0.3,0.7c-0.2,0.2-0.5,0.3-0.7,0.3
		c-1.9,0-4.4,0-7,0.1c-3.5,0.1-7,0.2-9.7,0.1c-0.6,0-1-0.5-1-1c0-0.5,0.5-1,1-1c0,0,0,0,0,0c2.6,0.1,6.1,0,9.5-0.1
		c2.2-0.1,4.3-0.1,6.1-0.1c0-0.3,0-0.6,0-0.9c0-1.2,0.1-2.2-0.2-3.2c-0.1-0.4,0-0.8,0.4-1.1c0.3-0.2,0.8-0.3,1.1,0
		c2.9,1.8,5.1,3.9,7.3,5.9c2,1.8,3.8,3.6,6.1,5.1c0.3,0.2,0.4,0.5,0.4,0.8c0,0.3-0.1,0.6-0.4,0.8c-2.1,1.7-3.6,3-5,4.4
		c-1,0.9-1.9,1.8-2.9,2.7c-1.2,1-3,2.6-5.5,4.9C30.6,41,30.3,41.1,30.1,41.1z"/>
</g>
<g>
	<path fill="#2FA9CE" d="M13.4,36.2C13.4,36.2,13.4,36.2,13.4,36.2c-0.6,0-1-0.4-1-1c0-0.8,0-1.5,0-2.1c0-1.1-0.1-2.2,0-3.7
		c0.1-1.2,0.2-2,0.4-2.7c0.2-1.2,0.4-1.9,0-3.7c-0.1-0.5,0.2-1.1,0.8-1.2c0.5-0.1,1.1,0.2,1.2,0.8c0.5,2.2,0.3,3.2,0,4.5
		c-0.1,0.7-0.3,1.4-0.3,2.4c-0.1,1.4-0.1,2.4,0,3.5c0,0.6,0,1.3,0,2.2C14.4,35.7,13.9,36.2,13.4,36.2z"/>
</g>
<g>
</g>
<g>
</g>
<g>
</g>
<g>
</g>
<g>
</g>
<g>
</g>
</svg>
