<?xml version="1.0" encoding="utf-8"?>
<!-- Generator: Adobe Illustrator 18.0.0, SVG Export Plug-In . SVG Version: 6.00 Build 0)  -->
<!DOCTYPE svg PUBLIC "-//W3C//DTD SVG 1.1//EN" "http://www.w3.org/Graphics/SVG/1.1/DTD/svg11.dtd">
<svg version="1.1" id="Layer_1" xmlns="http://www.w3.org/2000/svg" xmlns:xlink="http://www.w3.org/1999/xlink" x="0px" y="0px"
	 viewBox="0 0 56.9 57.3" enable-background="new 0 0 56.9 57.3" xml:space="preserve">
<g>
	<g>
		<path fill="#2FA9CE" d="M4.7,44.4l1.3-0.9c6.2,8.3,13.6,14.7,26.7,13.7c8.7-0.7,15.1-8.9,19.7-16c6.8-10.5,6.1-21.3-2-29.6
			C44.4,5.4,35,0,26,0c-2.2,0-4.5,0.3-6.6,1.1C11.7,3.9,5.1,11,1.7,20.1C-1.4,28.6-0.3,37.5,4.7,44.4z M3.5,20.7
			c3.1-8.6,9.3-15.3,16.6-17.9c6.9-2.5,18.9-0.4,28.9,10c7.4,7.6,8,17.6,1.7,27.3c-4.4,6.7-10.4,14.6-18.3,15.2
			c-0.9,0.1-1.7,0.1-2.6,0.1c-13,0-19.7-8.6-26-18.1l-0.7,0.4C1.3,32.4,1.4,26.5,3.5,20.7z"/>
	</g>
</g>
<g>
	<path fill="#2FA9CE" d="M26.8,16.2c0.1,0,0.2,0,0.3,0.1c0.3,0.1,0.6,0.4,0.7,0.8c0.2,1.6,0.1,3.4-0.1,4.9c1.9,0,3.6-0.2,5.4-0.4
		c1.4-0.2,2.8-0.3,4.4-0.4c0.9,0,2.3,0,3.7,0c0.7,0,1.5,0,2.2,0c0.6,0,1,0.4,1,1c0,0.6-0.4,1-1,1c-0.7,0-1.5,0-2.3,0
		c-1.4,0-2.8,0-3.6,0c-1.5,0.1-2.9,0.2-4.3,0.4c-2.3,0.3-4.4,0.5-6.9,0.4c-0.3,0-0.5-0.1-0.7-0.4c-0.2-0.2-0.3-0.5-0.2-0.8
		c0.1-1,0.3-2.2,0.3-3.4c-1.7,1.6-3.1,2.7-4,3.5c-1,0.8-1.9,1.7-2.9,2.6c-1.1,1.1-2.4,2.3-4.1,3.6c1.9,1.4,3.6,3,5.2,4.5
		c1.6,1.5,3.3,3.1,5.2,4.5c0-0.5,0-1,0-1.5c0-0.6,0.1-1.2,0-1.8c0-0.3,0.1-0.5,0.3-0.7c0.2-0.2,0.5-0.3,0.7-0.3c1.9,0,4.4,0,7-0.1
		c3.5-0.1,7-0.2,9.7-0.1c0.6,0,1,0.5,1,1c0,0.5-0.5,1-1,1c0,0,0,0,0,0c-2.6-0.1-6.1,0-9.5,0.1c-2.2,0.1-4.3,0.1-6.1,0.1
		c0,0.3,0,0.6,0,0.9c0,1.2-0.1,2.2,0.2,3.2c0.1,0.4,0,0.8-0.4,1.1c-0.3,0.2-0.8,0.3-1.1,0c-2.9-1.8-5.1-3.9-7.3-5.9
		c-2-1.8-3.8-3.6-6.1-5.1c-0.3-0.2-0.4-0.5-0.4-0.8c0-0.3,0.1-0.6,0.4-0.8c2.1-1.7,3.6-3,5-4.4c1-0.9,1.9-1.8,2.9-2.7
		c1.2-1,3-2.6,5.5-4.9C26.3,16.3,26.6,16.2,26.8,16.2z"/>
</g>
<g>
	<path fill="#2FA9CE" d="M43.5,21.1C43.5,21.1,43.5,21.1,43.5,21.1c0.6,0,1,0.4,1,1c0,0.8,0,1.5,0,2.1c0,1.1,0.1,2.2,0,3.7
		c-0.1,1.2-0.2,2-0.4,2.7c-0.2,1.2-0.4,1.9,0,3.7c0.1,0.5-0.2,1.1-0.8,1.2c-0.5,0.1-1.1-0.2-1.2-0.8c-0.5-2.2-0.3-3.2,0-4.5
		c0.1-0.7,0.3-1.4,0.3-2.4c0.1-1.4,0.1-2.4,0-3.5c0-0.6,0-1.3,0-2.2C42.5,21.6,43,21.1,43.5,21.1z"/>
</g>
<g>
</g>
<g>
</g>
<g>
</g>
<g>
</g>
<g>
</g>
<g>
</g>
</svg>
