<?xml version="1.0" encoding="utf-8"?>
<!-- Generator: Adobe Illustrator 18.0.0, SVG Export Plug-In . SVG Version: 6.00 Build 0)  -->
<!DOCTYPE svg PUBLIC "-//W3C//DTD SVG 1.1//EN" "http://www.w3.org/Graphics/SVG/1.1/DTD/svg11.dtd">
<svg version="1.1" id="Layer_1" xmlns="http://www.w3.org/2000/svg" xmlns:xlink="http://www.w3.org/1999/xlink" x="0px" y="0px"
	 viewBox="0 0 150.5 150" enable-background="new 0 0 150.5 150" xml:space="preserve">
<g>
	<g>
		<path fill="#2FA9CE" d="M84.8,150c-3.5,0-7.1-0.2-10.8-0.7c-22.8-2.7-50.6-8.5-62.8-28.9C-7.1,89.7-0.3,63.9,12.7,38.8l-3.7-2
			C20,16.4,40.4,3.2,64.9,0.6c26.3-2.8,51.6,4.9,67.6,20.6c21.9,21.4,21.3,60.6,11.5,88C134.6,135.5,113.3,150,84.8,150z M23.5,25.3
			l1.9,1.1C8.5,54.9-5,83.4,15.5,117.9c11,18.6,37.4,23.9,59.1,26.5c31.4,3.8,55-9.7,64.8-37c13.3-37,4-68.8-10.3-82.7
			C114,10,90.3,2.9,65.4,5.5C48.8,7.3,34.2,14.3,23.5,25.3z"/>
	</g>
	<g>
		<path fill="#2FA9CE" d="M103,93.2l-3.8,1.9c-0.5-0.3-0.9-0.7-1.3-1.2l1.4-1L98,92.8c0.1-1.4-0.1-3-0.3-4.6
			c-0.1-1.2-0.3-2.4-0.3-3.7c0-1,0-2.1,0-3.3c0-3.4,0.1-8-1.1-10.2c-0.7-1.4-1.7-1.5-5-1.5c-0.4,0-0.9,0-1.3,0
			c-3.3,0-6.7,0.1-10,0.2c-3.7,0.1-7.5,0.2-11.3,0.2c-3.1,0-6.2-0.6-9.1-1.3c-2.8-0.6-5.6-1.1-8.1-1.2c0,1.2,0.1,2.4,0.2,3.6
			c0.1,1.3,0.2,2.7,0.2,4c0,0.8,0.1,2.3,0.3,3.9c0.6,7.1,0.6,9.3-0.5,10.7l-3.8-3.2c-0.2,0.3-0.3,0.5-0.3,0.5c0.3-1-0.1-5.3-0.3-7.5
			c-0.2-1.8-0.3-3.3-0.3-4.3c0-1.1-0.1-2.3-0.2-3.6c-0.2-2.2-0.4-4.5-0.1-6.7l0.3-1.9l1.9-0.2c4-0.5,8,0.3,11.8,1.1
			c2.9,0.6,5.6,1.1,8.1,1.2c3.7,0,7.5-0.1,11.2-0.2c3.3-0.1,6.8-0.2,10.2-0.2c0.4,0,0.8,0,1.3,0c3.2-0.1,7.2-0.1,9.5,4.1
			c1.8,3.3,1.7,8.5,1.7,12.6c0,1.1,0,2.2,0,3c0,1,0.2,2.1,0.3,3.2C103,89.4,103.2,91.3,103,93.2L103,93.2z"/>
	</g>
	<g>
		<path fill="#2FA9CE" d="M76.3,94c-0.6,0-1.3-0.2-1.9-0.9c0,0-0.1-0.1-0.2-0.2l1.3-1.3l-1.7,0.1c0-0.3-0.1-0.7,0-1.5
			c0-0.9-0.2-2.1-0.5-3.2c-0.2-0.8-0.4-1.7-0.5-2.6c-0.4-3.6-0.4-7.3-0.4-10.8c0-1.9,0-3.9-0.1-5.8c-0.2-4.2-0.3-9.3-1.5-13.4
			l4.8-1.4c1.3,4.6,1.5,10.2,1.7,14.6c0.1,2,0.1,4,0.1,5.9c0,3.5,0,6.9,0.4,10.2c0.1,0.6,0.2,1.3,0.4,2.1c0.3,1.5,0.6,3,0.6,4.5
			c0,0.3,0,0.5,0,0.6c0.2,1.9-1.2,2.6-1.4,2.7C77.2,93.8,76.8,94,76.3,94z M76.3,89c-0.3,0-0.7,0.1-1,0.2l0.8,1.7l1.5-1.6
			C77.3,89.1,76.8,89,76.3,89z"/>
	</g>
	<g>
		<path fill="#2FA9CE" d="M69.6,54.6c-1.3,0-2.5,0-3.8-0.1l-1.8-0.1l-0.5-1.7c-0.9-3.4-0.9-6.9-0.8-10.3c0-1.4,0.1-2.7,0-4l-0.4,0
			c0-0.6,0.1-1,0.3-1.4c-0.1-1.4-0.4-2.8-0.8-4.1l4.7-1.7c0.5,1.3,0.8,2.6,1,4c0.7-0.1,1.5-0.2,2.4-0.3c3-0.4,6.7-0.7,9.3-1
			c1.4-0.1,2.5-0.2,2.9-0.3l2.5-0.3l0.3,2.5c0.6,5,2.2,10.7,3.5,15.2l0.9,3.3l-3.4-0.1c-3-0.1-6.2,0-9.2,0.2
			C74.5,54.6,72.1,54.6,69.6,54.6z M68,49.6c2.9,0.1,5.8-0.1,8.7-0.2c2-0.1,4.1-0.2,6.1-0.2c-0.9-3.2-1.8-6.9-2.4-10.4
			c-0.2,0-0.4,0-0.6,0.1c-2.7,0.3-8.8,0.8-11.9,1.3c0,0.8,0,1.6,0,2.3C67.7,45.1,67.7,47.4,68,49.6z"/>
	</g>
	<g>
		<path fill="#2FA9CE" d="M64.8,113.6l-3.6,0c-1.9,0-3.6-0.7-5-1.3c-1.2-0.5-2.3-0.9-3.4-1c-0.5,0-1.5,0.1-2.5,0.2
			c-2.4,0.3-5,0.5-6.8-0.4c-5.5-2.8-4.9-16.2-4.3-22l0,0l4-5l0.2,0.3c1.1,0.1,2.3,0.1,3.4,0.2c4.5,0.3,9.2,0.5,14,1.6l1.8,0.4
			l0.2,1.8c0.3,3.3,0.1,6.3-0.1,9.3c-0.3,4.3-0.6,8.3,1,12.7L64.8,113.6z M52.5,106.3c0.2,0,0.4,0,0.6,0c1.7,0.1,3.3,0.7,4.6,1.2
			c-0.6-3.7-0.4-7-0.1-10.4c0.2-2.1,0.3-4.3,0.2-6.6c-3.7-0.6-7.5-0.9-11.4-1.1c-0.8,0-1.6-0.1-2.4-0.1c-0.9,8,0.1,16.4,1.6,17.2
			c0.6,0.3,2.8,0,4-0.1C50.7,106.4,51.7,106.3,52.5,106.3z"/>
	</g>
	<g>
		<path fill="#2FA9CE" d="M70.9,110.7c-1.9,0-3.7-0.6-4.7-2.6c-0.8-1.5-0.7-3.7-0.5-7c0.1-1.1,0.2-2.7,0.1-3.2
			c-0.5-2.5-0.3-3.4,0-5.3c0.1-0.3,0.1-0.7,0.2-1.2l0.6-3.4l1,0.5c0.4-0.5,0.9-1,1.7-1.2l1.2-0.3l1,0.8l-0.6,0.8
			c4.3-1.4,11.6-1.7,13.2-1.6l1.7,0.1l0.5,1.6c0.2,0.8,0.7,1.9,1.1,3.1c1.9,5,3.3,9.1,2.6,12.1c-1.2,4.7-5.4,4.6-7.8,4.6
			c-0.6,0-1.2,0-1.8,0c-0.7,0-2,0.4-3.3,0.8C75.2,110,73,110.7,70.9,110.7z M70.6,105.7c0.9,0.2,3.6-0.6,5-1c1.6-0.5,3.1-1,4.4-1
			c0.8-0.1,1.5,0,2.2,0c2.7,0.1,2.7-0.1,2.9-0.8c0.4-1.7-1.3-6.4-2.4-9.1c-0.2-0.6-0.4-1.2-0.6-1.7c-3.5,0.1-9.4,1-10.5,1.7
			c0,0,0.1-0.1,0.2-0.2L71,92.7c-0.1,0.1-0.1,0.2-0.2,0.3c0,0.2-0.1,0.3-0.1,0.5c-0.3,1.5-0.3,1.8,0,3.5c0.2,1.1,0.1,2.7,0,4.5
			C70.6,102.7,70.5,104.8,70.6,105.7z"/>
	</g>
	<g>
		<path fill="#2FA9CE" d="M99.9,112.4c-1.1,0-2.1,0-2.9-0.1l-2.1-0.3l-0.1-2.1c-0.1-2-0.4-4-0.7-6.1c-0.2-1.2-0.4-2.3-0.5-3.5
			c-0.1-0.8-0.1-1.9-0.1-3.3c0-1.8-0.1-5.5-0.5-6.4c0,0.1,0.2,0.3,0.6,0.5l2.3-4.4c1.1,0.6,1.8,1.7,2.1,3.2
			c3.1-0.8,7.1-1.3,10.1-0.8c0.6,0.1,1,0.1,1.3,0.1c1.7,0.1,2.3,0.7,3.3,2c0.1,0.2,0.3,0.4,0.4,0.6c2,2.8,2.3,6.9,2.6,10.4
			c0.1,1.8,0.2,3.6,0.6,4.9l0.5,1.9l-1.8,0.9C111.4,111.5,104.6,112.4,99.9,112.4z M99.6,107.4c3.4,0,8.2-0.5,11.2-1.4
			c-0.1-1.1-0.2-2.3-0.3-3.5c-0.2-2.9-0.4-6.1-1.6-7.8c-0.1-0.2-0.3-0.4-0.4-0.5c-0.3,0-0.7-0.1-1.3-0.1c-2.5-0.4-6.3,0.1-8.9,0.9
			c0,0.6,0,1.3,0,2c0,1.1,0,2.2,0.1,2.7c0.1,1.1,0.3,2.2,0.5,3.4C99.2,104.4,99.5,105.9,99.6,107.4z"/>
	</g>
</g>
<g>
</g>
<g>
</g>
<g>
</g>
<g>
</g>
<g>
</g>
<g>
</g>
</svg>
