<?xml version="1.0" encoding="utf-8"?>
<!-- Generator: Adobe Illustrator 18.0.0, SVG Export Plug-In . SVG Version: 6.00 Build 0)  -->
<!DOCTYPE svg PUBLIC "-//W3C//DTD SVG 1.1//EN" "http://www.w3.org/Graphics/SVG/1.1/DTD/svg11.dtd">
<svg version="1.1" id="Layer_1" xmlns="http://www.w3.org/2000/svg" xmlns:xlink="http://www.w3.org/1999/xlink" x="0px" y="0px"
	 viewBox="0 0 148.1 143.2" enable-background="new 0 0 148.1 143.2" xml:space="preserve">
<g>
	<g>
		<path fill="#2FA9CE" d="M71.8,50.4c-2.3-1.2-6.8-1.1-10.8-1c-2.6,0.1-5,0.1-7.1-0.1l0.6-5c1.7,0.2,4,0.1,6.4,0.1
			c4.8-0.1,9.7-0.2,13.1,1.5L71.8,50.4z"/>
	</g>
	<g>
		<path fill="#2FA9CE" d="M64.3,60.9l-4.8-1.5c0.5-1.7,0.4-4,0.3-6.2c-0.1-1.3-0.1-2.5-0.1-3.8c0-0.7,0.1-1.6,0.2-2.6
			c0.2-1.7,0.7-6.2,0.1-7.2c0,0,0,0.1,0.2,0.2l3.1-3.9c2.4,1.9,2.2,6.2,1.6,11.5c-0.1,0.9-0.2,1.7-0.2,2.2c0,1,0,2.1,0.1,3.4
			C65,55.7,65.1,58.4,64.3,60.9z"/>
	</g>
	<g>
		<path fill="#2FA9CE" d="M97.5,66.2l-0.6-0.4c-1.2-0.8-1.4-1.9-1.2-2.8c0.2-0.8,0.9-1.8,2.3-2c-0.4,0-0.9,0.3-1.4,0.8l1.6,1.4
			l0-2.1c1.1,0,2.2,0,3.3,0c1.7,0,3.3,0,4.9-0.1l0.6,0c1.4-0.1,2.8-0.1,4.2-0.1l0.4,0v0c0,0,0.1,0,0.1,0l0.1,0
			c2.5,0.2,2.5,2.4,2.5,2.5c0,0.1-0.1,2.3-2.6,2.5v0l-0.2,0c0,0-0.1,0-0.1,0l-0.4,0c-1.3,0-2.6,0.1-4,0.1l-0.6,0
			c-1.8,0.1-3.5,0.1-5.2,0.1c-1.1,0-2.1,0-3.2,0L97.5,66.2z M98.4,63.4l1.8,1.6c0.2-0.2,0.3-0.5,0.4-0.9c0.3-1.1-0.3-2.1-1-2.6
			L98.4,63.4z"/>
	</g>
	<g>
		<path fill="#2FA9CE" d="M108.2,70.3l-5-0.3c0.2-4.2,0-10.2-1.1-13.9l4.8-1.4C108.2,59.3,108.4,66,108.2,70.3z"/>
	</g>
	<g>
		<path fill="#2FA9CE" d="M101.4,84.1c-0.2,0-0.4,0-0.6-0.1c-0.4-0.1-1-0.2-1.7-0.2l0-0.4c-1,0-1.9,0.1-3,0.2
			c-1.3,0.1-2.7,0.2-4.1,0.2c-2.8,0-5.5-0.4-8-0.8c-1.6-0.2-3.1-0.4-4.6-0.6l0.4-5c1.7,0.1,3.3,0.4,4.9,0.6c2.5,0.4,4.9,0.7,7.3,0.7
			c1.1,0,2.3-0.1,3.6-0.2c2-0.2,4.1-0.3,6.2-0.1l4,0.5l-2.2,3.4C103.5,82.9,102.8,84.1,101.4,84.1z"/>
	</g>
	<g>
		<path fill="#2FA9CE" d="M94.4,96.5L91,94.4c-0.6-0.4-1.6-1.2-1.4-2.9c0,0,0,0,0,0s0,0.2,0,0.4l0.2-0.1c0.8-8.6,0.2-15.4-1.7-19.1
			l4.5-2.2c3,5.9,2.8,15.2,2.2,22L94.4,96.5z M93.6,90.2l-0.5,0.9l1.2-0.3C94.1,90.5,93.9,90.3,93.6,90.2z"/>
	</g>
	<g>
		<path fill="#2FA9CE" d="M42.3,111.5l-2.4-1.6c-1.1-0.8-2.5-1.7-3.5-2.8c-0.4-0.4-0.7-0.9-1.1-1.4c-0.6,0.3-1,0.2-1.6,0l1.1-3.7
			l-1.1-0.4l1-0.8c-0.8-0.1-1.4,0.2-1.6,0.4c0.8-0.6,4.9-4.8,8-7.9c3.8-3.9,6.2-6.3,7.2-7.1c3.4-2.9,6.6-6,9.8-9
			c4-3.9,8.1-7.9,12.7-11.4c4.9-3.8,10-7.8,13.8-12.5c0.5-0.6,0.9-1.1,1.4-1.7c1.7-2.1,3.4-4.2,5.5-6.1l2.3-2.1l1.4,2.6
			c0.2,0.1,0.6,0.4,0.9,0.6c1,0.6,2.1,1.2,2.6,2.5c1.7,4.2-4,8.1-8.6,11.2c-0.8,0.6-1.6,1.1-2,1.4c-5.5,4.6-10.6,10.2-15.6,15.6
			c-2.6,2.9-5.3,5.9-8.1,8.6c-8.4,8.5-15.4,16.5-20.8,23.7L42.3,111.5z M39.1,102.3c0.3,0.5,0.7,1,0.9,1.3c0.3,0.3,0.7,0.7,1.1,1
			c5.3-6.9,11.9-14.4,19.7-22.3c2.7-2.7,5.3-5.7,7.9-8.5c0.2-0.2,0.3-0.3,0.5-0.5c-2.7,2.4-5.3,4.9-7.8,7.3c-3.2,3.1-6.5,6.3-10,9.3
			c-0.8,0.7-4,3.9-6.8,6.8C42.2,99.2,40.5,101,39.1,102.3z M93.2,50.6c-0.9,1-1.8,2-2.7,3.2c1.3-1,2.6-2.1,3.2-2.8
			c-0.1,0-0.1-0.1-0.2-0.1C93.4,50.8,93.3,50.7,93.2,50.6z"/>
	</g>
	<g>
		<path fill="#2FA9CE" d="M75.9,38.5L73.3,36c0-1.8,1.2-2.3,2.6-2.5l0,0l0,0c0.5-0.1,0.9-0.1,1.4-0.1c0.9,0,2.1-0.1,2.9-0.1l1.3,0
			c2.1-0.1,5.6-0.1,7.4-0.1l0.6,0l0,5l-0.6,0c-1.7,0-5.2,0-7.2,0.1l-1.3,0.1c-1.3,0-4,0.2-4.3,0.2l-0.2-2.3L75.9,38.5z"/>
	</g>
	<g>
		<path fill="#2FA9CE" d="M78.1,143.2c-21.9,0-47.3-2.7-61.2-19.4C-5.3,97.1-2.2,70.9,6.8,46l-3.9-1.5C10.8,23.6,29,8.4,52.8,2.8
			c25.4-6.1,51.4-2,69.4,10.8c24.6,17.5,29.6,54.9,23.8,82.2c-6.3,29.6-29.3,46.8-63.3,47.3C81.1,143.1,79.6,143.2,78.1,143.2z
			 M15.6,31.7l2,0.9c-12.6,29.2-21.8,57.9,3.2,88c13.5,16.2,40.2,17.9,61.9,17.6c31.4-0.5,52.7-16.3,58.5-43.4
			c7.8-36.8-5.8-65.7-21.8-77.1C102.4,5.6,78,1.9,53.9,7.6C37.8,11.5,24.5,20,15.6,31.7z"/>
	</g>
</g>
<g>
</g>
<g>
</g>
<g>
</g>
<g>
</g>
<g>
</g>
<g>
</g>
</svg>
