<?xml version="1.0" encoding="utf-8"?>
<!-- Generator: Adobe Illustrator 18.0.0, SVG Export Plug-In . SVG Version: 6.00 Build 0)  -->
<!DOCTYPE svg PUBLIC "-//W3C//DTD SVG 1.1//EN" "http://www.w3.org/Graphics/SVG/1.1/DTD/svg11.dtd">
<svg version="1.1" id="Layer_1" xmlns="http://www.w3.org/2000/svg" xmlns:xlink="http://www.w3.org/1999/xlink" x="0px" y="0px"
	 viewBox="0 0 232.4 390.8" enable-background="new 0 0 232.4 390.8" xml:space="preserve">
<g>
	<path fill-rule="evenodd" clip-rule="evenodd" fill="none" stroke="#FFFFFF" stroke-miterlimit="10" d="M226.1,6.1
		c0,63.7,1.2,127.6-1.3,191c-0.8,19.9,2.7,39.4,2.7,59.3c0,12.5-2.3,25.7-1.5,37.9c2.1-7.1,4-11.3,4.4-19.3
		c0.6-12.6,0.1-25.2,0.7-37.8c0.3-6.5,1.4-12.8-0.1-19.2c-1.4-5.6-3.2-9.5-3.5-15.6c-0.7-14.9,0.9-29.9,2.4-44.6
		c3-30.4-1.6-61.1,0-91.6c0.7-12.4,2.9-23.9,0.5-36.3c-1.5-7.8-2.1-15.8-2.2-23.9"/>
	<g>
		<g>
			<path fill-rule="evenodd" clip-rule="evenodd" fill="#FFFFFF" d="M225.9,372c-5.4,0.3-10.8,0.6-16.2,0.9c-3.7,0.2-7.3,0.6-11,0.6
				c-1.7,0-3.5-0.7-5.2-0.6c-6.2,0.7-12.4,1.9-18.6,2.4c-10.9,0.9-21.9,1.6-32.9,1.9c-10.3,0.3-20.5,0-30.8,0.3
				c-8,0.2-16,0.9-24,1.4c-1,0.1-2.1,0.2-3.1,0.2c-6.1-0.2-12.2-0.6-18.3-0.5c-15.1,0.1-30.1,2.7-45.3,1.2c-2.4-0.2-5.5,0.8-7-0.4
				c-1.4-1.1-1-4.4-1.4-7.1c-0.2,1.3-0.3,2.3-0.5,4.3c-1.8-3.9-3.1-6.8-4.5-9.9c3.2-0.5,3.5-1,2.5-4.1c-1.1-3.7-2.2-7.3-3.4-11.5
				c3.8,0.7,4-0.7,3.3-2.8c-1-2.8-1.9-5.6-2.8-8.4c0.3-0.1,0.6-0.2,0.9-0.4c1.6,1.4,3.3,2.8,5.6,4.9c0.6-7.6-4.8-12.3-5.5-19.2
				c1.7,2,2.9,3.5,4.5,5.4c1.1-5.8-2.9-9.1-4.1-13.7c1.2,0.8,2.1,1.3,3.4,2.2v-5.7c-0.3,0.7-0.4,1.3-0.8,2.2
				c-0.8-1.9-1.5-3.3-2.2-5.1c1.2,0.4,2.1,0.7,3,1c0.3-0.2,0.7-0.4,1-0.6c-1.8-4.5-3.7-9-5.6-13.6c4.9-0.4,3.1,3.8,4.6,5.9v-10.5
				c-0.2,0-0.4,0-0.6,0c-0.2,0.7-0.3,1.5-0.7,3.1c-1.5-4.4-2.7-8-4-11.5c0.3-0.2,0.6-0.3,1-0.5c1.4,1.8,2.7,3.6,4.1,5.5
				c0.3-0.1,0.6-0.2,0.9-0.3c-1.7-5.1-3.4-10.2-5.1-15.3c0.2-0.1,0.5-0.2,0.7-0.3c1.5,2.1,3,4.2,4.6,6.3c0.4-0.2,0.7-0.5,1.1-0.7
				c-0.3-2.9-1.3-5.6-3.5-7.8c0,0,0,0,0,0l0,0c0,0,0,0-0.1-0.1c0.3,1,0.5,2,0.8,2.9c-0.3,0.1-0.6,0.3-0.9,0.4
				c-1.2-2.3-2.3-4.5-3.5-6.8c0.3-0.1,0.6-0.3,0.9-0.4c0.9,1.3,1.9,2.7,2.8,4c0,0,0,0,0,0c-0.5-2.1-1.1-4.1-1.6-6.2
				c0.1,0,0.3-0.1,0.4-0.1c1.3,1.7,2.5,3.4,3.8,5.2c0.4-0.2,0.8-0.4,1.1-0.7c-1.9-7.8-3.8-15.7-5.8-23.6c0.8,0.2,1.5,0.4,2.7,0.7
				c-1.1-4.3-2.1-8.3-3.1-12.2c0.3-0.1,0.6-0.2,1-0.4c0.8,0.5,1.7,0.9,3.2,1.8c-0.4-1.9-0.6-3-0.9-4.2c-0.8-3.1-1.9-6.1-2.3-9.3
				c-0.4-3-0.1-6.1-0.1-9.1c0-0.6,0.2-1.6,0.5-1.7c2.6-0.7,1.1-2.4,0.8-3.6c-0.3-1.4-0.9-2.7-1.6-4.5c1.3,0.3,2,0.5,3,0.8
				c-0.1-1,0.1-1.7-0.2-2.2c-3.3-6.2-0.3-12.7-1.1-19c2.8-1.8,0.3-3.9,0.3-5.9c-0.1-2.2,0.4-4.5,0.5-6.7c0.1-0.6,0.1-1.3,0-2
				c-0.6-5.7-1.6-11.4-1.9-17.2c-0.3-7.4,1.1-14.9-0.3-22c-1.1-5.7,1-11.5-1.5-16.9c-0.5-1,0.1-2.5,0.2-3.7c0-0.6,0.2-1.3,0.2-1.9
				C6.9,101.3,6.4,96,6.3,90.6c0-2.7,0.3-5.6,1.5-8c0.9-1.7,1-2.8,0.8-4.6c-0.5-5.2-0.4-10.4-1.6-15.5c-0.1-0.3,0.8-0.7,0.8-1.1
				c0-1.2-0.3-2.3-0.5-3.4c-3,1-1.6-1.7-2-2.6c-0.5-1.3-0.1-2.8-0.1-4.3c0.9,0.6,1.6,1.1,2.4,1.5c0.3-0.4,0.6-0.7,0.9-1.1
				c-1.4-1.2-3.3-2.3-3.9-3.8C4,46,4.5,43.9,4.5,41.5C5.8,43,6.7,44,7.6,45.1c0.3-0.3,0.7-0.5,1-0.8c-2.1-2.6-4.2-5.1-6.4-7.7
				c0.3-0.2,0.5-0.4,0.8-0.6c0.5,0.1,0.9,0.3,1.6,0.5c-1.1-3.6-2.1-6.9-3.4-11c1.3,1.2,1.8,1.6,3,2.8c-1-2.6-1.7-4.2-2.4-6
				c1.2,0.1,1.9,0.1,3,0.2C4,20,3.2,17.8,2.4,15.7c0.2-0.1,0.5-0.2,0.7-0.3c1.2,0.8,2.3,1.5,3.5,2.3c0.2-0.1,0.4-0.3,0.6-0.4
				c-0.4-1.2-0.8-2.4-1.4-4.2c-0.5,1-0.7,1.4-1,1.8c-0.3,0-0.6,0-0.9,0v-4.8c1.4,1.1,2.1,1.7,3.5,2.9c-1.4-4.9,0.8-5.6,4.2-5.5
				c1.4,0.1,2.8-0.1,4.2-0.1C48.9,7.9,82,8.1,115.1,8.6c31.6,0.4,63.1,1,94.7,1.7c4,0.1,8,1.5,12,2.6c2.4,0.6,3.4,2.4,3.2,5
				c-0.1,2.2,0.3,4.3,0.5,6.5c0.4-0.1,0.9-0.2,1.3-0.3c-2.4-4.1,3.4-10.5-5.1-13.3c5.2,0.9,4.9-2.1,4.5-5c-0.1-0.5-0.1-0.9,0-1.4
				c0.5-3.5-0.9-4.5-4.4-4.5c-67.5,0.1-135,0-202.5,0c-0.3,0.3-0.8,0.5-1.3,0.5C11.5,0.6,2.7,0.9,1,8.3c1.1,0.7,1.2,2.2,0.6,3.3
				c-1.5,3.3-1.5,6.9-1.5,10.3c0,5.4,0.7,10.8,1.2,16.2c0.3,3.2,0.3,6.4,0.9,9.5c0.5,2.9,1.6,5.7,2.4,8.6c-0.4,0-0.8,0-1.2,0
				c-0.4,0.8-1.2,1.7-1,2.2C3,59.9,4,61.4,4.7,62.9c0.7,1.4,1.2,2.9,2.2,5.3c-2.1-1.4-3.2-2.2-4.3-3c-0.2,0.1-0.5,0.3-0.7,0.4
				l5.6,11.9c-0.3,0.2-0.6,0.3-0.9,0.5c-1.1-0.6-2.2-1.2-3.3-1.8C3,76.4,2.9,76.7,2.7,77c1.2,0.9,3.1,1.6,3.4,2.8
				c0.3,1.3-0.8,3-1.2,4.6c0.2,1.5,0.4,3,0.6,4.5c-0.5,0-0.9,0-1.4-0.1c-1,0.3-2.1,0.6-3.1,0.8c1.2,7.8,2.5,15.5,3.6,22.8
				c-0.4-0.2-1.2-0.7-2-1.2c-0.3,0.1-0.5,0.3-0.8,0.4c0.8,3.4,1.5,6.8,2.3,10.2c0.4-0.1,0.8-0.2,1.1-0.3c-0.3-1.2-0.7-2.3-0.9-3.5
				c-0.3-1.3-0.5-2.6-0.8-4.3c2.6,2.4,3.9,10.3,2.3,12.4c-0.1,0.1-0.6-0.1-0.9-0.2l0.1,0.1c0,0,0,0-0.1,0.1c0.7,2.4,1.3,4.7,2,7.1
				c-0.4,0.1-0.8,0.3-1.3,0.4c-0.7-2.1-1.4-4.2-2-6.4c-0.1-0.2,0.8-0.7,1.2-1.1c0-0.1,0-0.1,0-0.2c0,0,0,0,0,0
				c-0.6-0.9-1.3-1.7-1.9-2.6c-0.4,0.2-0.7,0.3-1.1,0.5c0.7,2.8,1.5,5.6,2.2,8.5c0.2,0.8,0.6,1.9,0.3,2.5c-1.8,2.7-0.4,5,0.8,7.3
				c0.6,1.1,1,2.3,1.8,4.1c-1.6-0.6-2.3-0.9-3.9-1.5c1.7,3.6,3,6.4,4.6,9.7c-1.3-0.2-2-0.2-3-0.4c0.4,1.6,0.8,2.8,0.9,4
				c0.4,3.6,4.8,6.6,1.3,10.8c-0.5,0.7,0.8,2.7,1.1,4.2c0.3,1.6,0.5,3.2,0.7,4.8c-0.2,0.1-0.5,0.1-0.7,0.2c-0.9-1.2-1.9-2.5-2.8-3.7
				c-0.4,0.2-0.8,0.4-1.2,0.7c0.5,2.1,0.9,4.2,1.4,6.3c0.3,0,0.5-0.1,0.8-0.1c-0.2-1.3-0.3-2.5-0.5-4.2c2.9,2.8,3.7,7.9,1.9,10.9
				c0,0.1-0.4-0.1-0.6-0.1c0.5,1.9,1,3.7,1.4,5.6c-0.5,0.1-0.9,0.3-1.4,0.4c-0.9-2.4-1.8-4.8-2.5-7.2c-0.1-0.2,0.7-0.6,1.1-0.9
				c-0.9-1.1-1.8-2.2-2.7-3.3l-1.1,0.6c2,5.1,4.1,10.2,6.1,15.3c-1.4-0.5-1.9-1.4-2.5-2.2c-0.6-0.7-1.3-1.3-2.1-2.1
				c0.2,5.4,5.2,8.9,3.6,14.4c-1-0.6-1.7-1-2.9-1.7c1.3,3.7,2.3,6.8,3.6,10.5c-1.5-0.6-2.1-0.9-3.4-1.4c0.8,3.1,1.7,5.5,2.1,7.9
				c0.4,2,1.1,5.5,0.3,5.9c-3.6,1.8-0.9,4-0.8,5.9c0.1,1.7,0.4,3.4,0.6,5.1c-0.2,0-0.5,0-0.7,0c-0.6-0.7-1.3-1.5-2.1-2.4
				c-0.1,0.7-0.3,1.1-0.2,1.4c3.8,9.9,2.1,20,1.5,30.1c-0.6,9.8-1.5,19.6-1.5,29.4c0,15,0.7,30,1.1,45c0,0.6-0.2,1.7-0.5,1.7
				c-2.4,0.6-1.1,2.1-0.9,3.3c0.7,3.3,1.5,6.5,2.1,9.8c0.1,0.8-0.8,1.7-1.5,3c0,2.3,0,5.2,0,8.1c0,1.6,0,3.2,0.4,4.8
				c0.9,4,1,8,0,11.9c0.1,0.3,0.3,0.6,0.4,0.9c2.5,4.4,6.4,3.8,10.5,1.9c0.5-0.3,1-0.3,1.5-0.1c1.1-0.3,2.7-0.4,4.8-0.4
				c12.8-0.4,25.6-0.8,38.5-1.4c16.3-0.7,32.6-1.5,48.9-2.2c2.1-0.1,4.3,0.4,6.4,0.3c2.3-0.1,4.5-0.8,6.8-0.9
				c2.3-0.1,4.6,0.4,6.8,0.3c5.6-0.3,11.3-1,16.9-1.3c12.2-0.5,24.5-0.8,36.7-1.1c10.2-0.2,20.3-0.2,30.5-0.4
				c4.3-0.1,8.6-0.4,12.9-0.6c0-0.4,0-0.7,0-1.1h-19.3c0-0.2,0-0.4,0-0.6c3.6-0.9,7.3-1.9,11.1-2.8c-0.6,0.9-1.1,1.5-1.6,2.2
				c0.1,0.3,0.3,0.5,0.4,0.8c3.2-0.7,6.4-1.3,9.6-2l-0.2-1c-1.3,0.2-2.6,0.3-3.9,0.5c1.5-1.6,3-3,4.4-4.5
				C226.3,372.6,226.1,372.3,225.9,372z M64.6,2.7c6.9-0.1,13.7-0.1,20.6-0.2c10.6-0.2,21.2-0.6,31.7-0.5C130.9,2.1,145,2.7,159,3
				c4.9,0.1,9.9-0.2,14.8-0.1c1.2,0,2.5,0.9,3.7,1.4c-0.2,0.4-0.3,0.8-0.5,1.2c-37.7-0.6-75.3-1.3-113.4-1.9
				C64.1,3.1,64.3,2.7,64.6,2.7z M4.2,99.1c-0.7-2.4-1.3-4.8-2.1-7.7C5,93.1,5,93.1,4.2,99.1z M5.6,316c1.7,3.5,3.3,6.7,4.9,10
				C8.4,323,3.4,321.3,5.6,316z M5.5,325.6c2.4,5.5,4.5,10.4,6.7,15.2C6,337.6,4.2,332.6,5.5,325.6z M28.6,386
				c3.8-1.6,6.9-2.9,9.9-4.2C36.8,386.1,33.8,387.5,28.6,386z M38.9,385.4l11.2-3.9c0.1,0.3,0.2,0.6,0.3,0.9
				C47.3,385.2,43.9,387.3,38.9,385.4z M50.2,385.2c3.3-1.3,6.6-2.6,9.9-3.9C57.8,385.2,54.5,386.5,50.2,385.2z M64.4,384.4
				c2.5-0.7,5.1-1.4,8.4-2.3C70.3,385.9,67.2,384.8,64.4,384.4z M79.1,385.1c-0.1-0.4-0.2-0.8-0.3-1.2c3.4-1,6.9-1.9,10.3-2.9
				c0.1,0.5,0.3,1,0.4,1.4C86.1,383.3,82.6,384.2,79.1,385.1z M125.2,383.4l-0.2-1.1c2.9-0.6,5.8-1.3,8.7-1.9
				c0.1,0.4,0.2,0.9,0.3,1.3C131,382.2,128.1,382.8,125.2,383.4z M150.6,381.4c2.1-0.6,4.1-1.1,6.9-1.9
				C155.9,384,152.7,381.1,150.6,381.4z M195.6,380.8c-11-0.1-21.9,0-31.9,0c2.3-0.6,5.6-1.6,9-2.5c0,0.3,0,0.6,0,0.9
				c1.4,0.3,2.9,1,4.2,0.8c3.4-0.8,6.6-2,9.9-3c1.2-0.4,2.4-0.6,4.2-1c-0.8,1.3-1.2,2.1-2.2,3.9c5.9-1.4,10.8-2.5,15.7-3.7
				C203,380.8,199.4,380.8,195.6,380.8z M206.4,378.8c2.7-3.3,6.3-4.4,13.1-4C215.4,376.1,211.2,377.3,206.4,378.8z"/>
			<path fill-rule="evenodd" clip-rule="evenodd" fill="#FFFFFF" d="M185.9,347.3c-5.2,0.6-9.6,1.5-14,1.6c-2,0.1-4.1-1.3-6.1-2.1
				c0.7-1.8,1-4,2.2-5.4c3.6-4.3,9-4.1,13.9-4.8c1.1-0.1,2.4,1.9,4,3.3c0.2-1.9,0.4-3.9,0.6-5.9c2.9-35.9,3.3-71.8,3.4-107.7
				c0.1-17.4,0.2-34.9-0.4-52.3c-0.4-12.7-2.2-25.3-2.9-38c-0.9-16.1-1.5-32.3-2.1-48.5c-0.5-16-0.9-32.1-1.2-48.2
				c-0.2-9.1,0-18.1,0-27.2c0.2,1.5,0.5,3.1,0.6,4.7c0.4,20,0.5,40,1.1,59.9c0.5,15.7,1.1,31.4,2.2,47.1
				c2.3,33.4,4.8,66.8,3.8,100.4c-0.6,22.2-0.1,44.4-0.5,66.6c-0.2,10.8-1.4,21.7-1.8,32.5c-0.5,12.9-0.7,25.9-0.9,38.8
				c0,2.5,0.7,5,0.9,7.5c0,0.7-0.8,1.4-1.2,2.1c-0.5-0.5-1.4-1-1.5-1.5c-0.2-2.2-0.1-4.4-0.1-6.7
				C185.9,358.2,185.9,352.8,185.9,347.3z M178,339.6c0,2.3,0,4.4,0,6.7c2.8,0.1,5.6,0.5,6.2-2.9C184.7,341,182.5,339.7,178,339.6z"
				/>
			<path fill-rule="evenodd" clip-rule="evenodd" fill="#FFFFFF" d="M45,282.6c3,0.3,6,0.5,9,0.9c4.6,0.7,8.8,5.8,9.4,11.2
				c1.6,13.8-6.8,21.1-18.9,21.7c-3,0.2-6.1-0.4-9.1-0.9c-12.6-1.9-15.1-18.2-10.3-26c2.6-4.3,6.6-5.3,11-5.9
				C39.1,283.2,42,283,45,282.6z M53.6,298.2c-0.4-0.6-0.9-2.5-2.2-3.2c-2.1-1.2-4.6-2.3-6.9-2.2c-3.6,0.1-6.6,2.6-9.6,4.4
				c-0.3,0.2-0.4,0.8-0.6,1.2c-0.8,2.3,1.8,7.4,4.5,7.8c3,0.5,6.2,0.7,9.1,0.2C52,305.8,53.6,303.4,53.6,298.2z M48.4,285
				c-1.4,3.1-0.9,5.3,2.1,6.8c1.2,0.6,2.1,1.7,3.2,2.6c0.5,0.4,1.1,1.1,1.6,1c1.9-0.1,3.8-0.5,5.7-0.8C60,287.6,57.2,285.4,48.4,285
				z M24.7,294.4c0.3,0.3,0.6,0.7,1,1c2.5,0,5.6,0.9,7.3-0.2c3.1-2.1,5.4-5.5,5.2-10.7c-1.8,1.1-3.4,2.1-5,3.1
				c-0.5,0.3-1.1,0.5-1.7,0.7c-0.1-0.6-0.2-1.2-0.6-3.1C28.4,288.8,26.5,291.6,24.7,294.4z M61.2,302.1c-3.9-0.9-4.8-0.4-6.8,2
				c-1.1,1.4-2.8,2.3-4,3.6c-0.9,0.9-1.4,2.2-2.1,3.3c1.5,0.6,3.2,1.9,4.3,1.5C57.5,311.1,60.3,307.5,61.2,302.1z M40.1,309
				c-1.5-0.8-3-1.2-4-2.2c-2.1-1.9-3.8-2.4-6.8-1.4c-2.6,0.9-2.2,1.8-1.3,3.3c2.1,3.8,6.1,4.3,9.7,5.6
				C38.5,312.3,39.3,310.7,40.1,309z"/>
			<path fill-rule="evenodd" clip-rule="evenodd" fill="#FFFFFF" d="M24.3,17c-5,3.3-6.9,8.2-5,12.8c1.2,2.9,3.2,4.2,6.3,3
				c0.6-1.5,1.2-2.9,2.2-5.3c-1.9,1.3-3.2,2.2-4.5,3c-0.8-0.9-1.7-1.8-2.2-2.4c1.3-1,2.6-2,4-3.1c-0.2-0.3-0.3-0.5-0.5-0.8
				c-1.2-0.1-2.5-0.2-3.6-0.3c1.3-2.3,2.5-4.6,4-6.8c2.9-4.2,7.6-4.2,11.9-4.1c6.5,0.2,8.9,3.9,9.7,8.9c0.9,5.4-2.6,10.2-7.7,12
				c-6.5,2.3-13,3-19.5,0.1c-2-5-3.6-10.3,0.6-15.3c1-1.2,2.6-1.8,3.9-2.7C24,16.4,24.1,16.7,24.3,17z M26.4,34
				c0.1,0.3,0.2,0.7,0.3,1c5.3-0.2,10.8-0.7,15.1-4.1c4.7-3.6,5-10.5,0.8-14.4c-3.7-3.4-8.1-2.4-12-1.5c-0.5,2-0.8,3.5-1.2,5.1
				c4.8,1.7,3.7-3.2,6.1-4.6c-0.3,1.6-0.7,3.2-1,4.8c2.8,1.1,4.5,0.1,5.8-2.5c0.1,1,0.2,2.1,0.3,3c1.1,0.4,2.1,0.7,2.8,0.9
				c0.4,4.2-7-0.7-5.2,5c-3.9,1.6-4.5,2.8-2.4,5.1C32.6,32.7,29.5,33.3,26.4,34z M27.3,32.2c3.8,0.5,5.6-1.3,6.5-4.3
				C29.3,25.9,29.3,30.1,27.3,32.2z"/>
			<path fill-rule="evenodd" clip-rule="evenodd" fill="#FFFFFF" d="M39.1,359.6c1.9-3.3,3.8-6.4,7.5-7.4c0.3,0.3,0.5,0.6,0.8,1
				c-1.2,0.9-2.4,1.7-4.1,2.9c1.6,0.1,2.7,0.2,3.8,0.3c0.1,0.3,0.1,0.7,0.2,1c-1.6,0.6-3.3,1.2-5,1.8c0.9,0.6,1.7,1.1,2.4,1.7
				c-0.9,0.3-1.7,0.8-2.6,0.9c-6.8,0.7-13.7,1.4-20.5,1.9c-2.9,0.2-5.9,0.3-8.7-0.1c-1-0.2-1.8-1.9-3.4-3.7c2.9,0,5.1,0,7.3,0
				c0.1-0.4,0.3-0.8,0.4-1.2c-1.6-0.8-3.1-1.6-4.7-2.5c0-0.2-0.1-0.4-0.1-0.6c1.7,0.2,3.5,0.3,5.5,0.5c0.3-1.4,0.8-3.4,1.5-6.1
				c2,3.2-2.1,6.8,2.3,8.6c0.4-0.7,1-1.4,1-2.1c0.1-4.4,3-5.6,6.6-5.2c5.5,0.6,8.8-2.3,11.8-6.3c1.6-2.1,3.3-4.1,5.2-6
				c1.1-1.1,2.7-2.7,3.9-0.7c0.5,0.8-0.4,3-1.2,4.1c-1.2,1.6-2.9,2.9-4.5,4.1C40.2,349.8,39.1,354.4,39.1,359.6z M36.7,359.6
				c0-0.5,0.1-0.9,0.1-1.4c-1.2-1.5-2.1-3.6-3.6-4.2c-2-0.8-4.9-1.1-6.6-0.2c-1.6,0.9-2.3,3.7-3.3,5.6c0.3,0.3,0.6,0.6,0.9,0.9
				C28.3,360.1,32.5,359.8,36.7,359.6z"/>
			<path fill-rule="evenodd" clip-rule="evenodd" fill="#FFFFFF" d="M99.9,152c0.4-3.1-1.4-2-3-1.7c-1.5,0.3-3,0.4-4.5,0.5
				c-0.7,0.1-1.4,0.2-2.2,0.2c-1.1,0.1-2.7,0.7-3.1,0.2c-0.7-0.8-1.2-2.5-0.9-3.4c0.7-2,2-3.8,3.1-5.7c0.4,0.1,0.8,0.1,1.2,0.2
				c0.6,1.5,1.1,3,1.8,4.5c0.5,1.1,1.3,2.2,1.9,3.2c1-1,2-1.9,2.9-2.9c0.3-0.3,0.3-0.9,0.6-1.7c1.9,4.1,3.3,4.3,6.3,1.1
				c2-2.1,4.9-1,6.5,2.6c3.1-1.9,3.1-1.9,5.2,0.9c0.7-0.7,1.4-1.4,2-2.1c2.1,0.9-0.2,5.7,4.2,4.3c0.6-2.1-0.8-5,3-5.7
				c0.4,1.5,0.8,3,1.3,5.1c1-1.3,1.8-2.3,2.5-3.1c1,0,2.1,0.5,2.8,0.1c3.9-2.5,4.1-2.4,5.5,2.2c0.8-2.4,1.6-4.8,2.5-7.5
				c-1.4-0.3-2.2-0.4-2.6-0.5c1.1-1.7,2.3-3.6,3.6-5.5c0.2,0.8,0.4,2,0.7,3.6c2.2-0.3,4.5-0.6,7.4-0.9c-3.2,1.3-6.7,1.7-7.9,3.5
				c-1.3,2-0.3,5.4-0.3,8.2c0.5,0.1,0.9,0.3,1.4,0.4c1-1.2,2-2.3,3-3.5c0.2,0,0.3,0.1,0.5,0.1c-0.7,1.3-1.3,3.4-2.3,3.6
				c-1.4,0.3-3.1-0.8-5-1.4c-0.3,0.2-1.4,1.1-3,2.5c-0.2-2.2-0.4-3.5-0.6-5.7c-2.3,2.9-5.1,4.6-8.2,4.8c-3,0.2-6.7,4-8.8-1.5
				c-0.7,0.9-1.3,1.7-2.1,2.7c-0.7-1.8-1.2-3.2-1.8-4.6c-0.3,0-0.6,0-0.9,0c-0.7,1.7-1.4,3.3-2.5,5.9c-0.4-2.6-0.5-4.3-1-5.8
				c-0.4-0.9-1.5-1.6-2.3-2.3c-0.4,0.9-1.2,1.9-1.2,2.8c-0.3,5-0.2,9.9-0.6,14.9c-0.2,2.5-0.3,5.7-3.6,5.8c-3.3,0.1-4.6-2.7-5-5.6
				c-0.6-4.8,0.8-9.1,3.7-12.9c-0.8,2.4-2,4.7-2.4,7.2c-0.4,2.5-0.2,5.3,0.3,7.8c0.2,1,2.1,1.9,3.4,2.3c0.4,0.1,1.8-1.7,1.9-2.8
				c0.5-4.9,0.7-9.9,0.9-14.8c0-0.7-0.4-1.4-0.8-2.5C102.1,150.1,101,151,99.9,152z M87.2,150.1c4.8-0.8,3.4-3.3,2.8-5.6
				c-0.4-0.1-0.8-0.2-1.1-0.3C88.3,146.1,87.8,148.1,87.2,150.1z"/>
			<path fill-rule="evenodd" clip-rule="evenodd" fill="#FFFFFF" d="M24,210.7c-0.2-1.4-0.7-2.9-0.7-4.5c0.3-6.3,0.7-12.6,1.2-18.8
				c0.2-2.4,2.2-3.5,4.4-3.7c4-0.3,8.1-0.7,12.1-0.8c4.2-0.1,5.5,1.7,7.6,5.3c3.4,5.9,3.1,12.2,3.2,18.6c0,0.9-1.3,2.5-2.1,2.5
				C41.2,209.9,32.8,210.3,24,210.7z M44.8,185.2c-6,0-11-0.2-15.9,0.1c-1.1,0.1-2.8,1.8-2.9,2.8c-0.7,5.9-1,11.8-1.3,17.8
				c0,0.6,0.3,1.4,0.7,1.9c0.5,0.5,1.3,1.2,1.9,1.1c7.5-0.8,15-1.7,22.7-2.7c-0.3-3.8-0.5-7.4-0.8-11.6c-1.9,0.6-3.6,1.3-5.3,1.6
				c-1.1,0.2-2.4-0.1-3.6-0.1c0.1-1.2,0-2.5,0.5-3.5C41.7,190.4,43,188.4,44.8,185.2z"/>
			<path fill-rule="evenodd" clip-rule="evenodd" fill="#FFFFFF" d="M96.6,293.1c-2.8,0.8-5.7,1.6-8.6,2.5c0.1,1.9,0.2,3.5,0.3,5.2
				c-0.4,0-0.8,0.1-1.3,0.1c-0.7-4.8-1.4-9.5-2-14.3c0.4-0.1,0.9-0.2,1.3-0.2c0.3,2.3,0.6,4.7,1,7.5c2.6-0.6,4.9-1.1,7.2-1.5
				c3.6-0.7,1.1-3.9,2.1-5.6c0.4,0,0.8-0.1,1.2-0.1c0.4,3.6,0.9,7.2,1.3,10.9c0.3,0,0.6,0,0.8,0c0.3-1.4,0.4-2.9,1.1-4.1
				c0.7-1.1,2.1-1.7,3.1-2.6c0.4,1.4,1.1,2.8,1,4c-0.1,1.2-1.2,2.4-1.9,3.5c4.9,0.4,8-2.4,7.8-7.1c-0.1-2.1-0.1-4.2,0.4-6.2
				c0.3-1.1,1.6-2,2.4-3c0.7,1,2.2,2.1,2.1,3.1c-0.2,2.8-1,5.5-1.6,8.3c-0.2,1.1-0.6,2.2-0.6,3.3c0,0.2,1.9,0.9,2.3,0.6
				c0.8-0.7,1.9-2,1.8-2.9c-0.3-3,1.5-4.5,3.7-5.1c1.8-0.5,4.2-0.4,5.8,0.5c3.5,1.9,3.5,5.4,0.2,7.8c-2,1.5-4.2,2.6-7.7,1.3
				c2.4-0.8,4.3-1,5.7-2c1.2-0.9,1.9-2.5,2.8-3.8c-1.5-1-2.9-2.7-4.6-3c-2.1-0.4-3.3,1.2-3.4,3.4c-0.5,7.4-1.1,14.7-1.6,22.1
				c-0.1,1.2-0.2,2.3-0.4,3.5c-0.5,0-1-0.1-1.4-0.1c0.4-6.8,0.7-13.5,1.1-19.6c-2.5-0.9-4.5-1.6-7-2.5
				C101.5,302.4,99,301.8,96.6,293.1z M112.2,293.5c3.3-3.3,3.6-6.4,0.8-9.6C112.8,286.8,112.6,289.7,112.2,293.5z"/>
			<path fill-rule="evenodd" clip-rule="evenodd" fill="#FFFFFF" d="M108.3,95.5c0-2.5,0-4.5,0-6.6c0.3,0,0.6,0,0.9-0.1
				c0,3.7,0,7.3,0,11c0.4,0.2,0.9,0.3,1.3,0.5c1.2-2,2.4-4.1,3.8-6.4c0.2,1.7,0.3,3.2,0.5,4.7c0.2,0.1,0.5,0.3,0.7,0.4
				c0.9-1.5,1.8-3,3-4.9c0.2,2.2,0.3,3.9,0.4,5.7c3,0.1,4.2-0.9,4.1-3.8c-0.1-3.5,0.3-7.1,3.1-10.3c3.6,5.1,1,9.3-1.1,13.5
				c4.8,1.5,3.4-5,7.7-5.3c-0.5,1.9-0.9,3.4-1.3,5.2c1.3,0,2.9,0,3.6,0c3.7-4.3,6.3-8.5,4.2-14.2c0.5,0.1,1.1,0.1,1.6,0.2
				c0.3,6.2,0.7,12.4,1.1,19.1c-0.9-1.5-1.7-2.7-2.7-4.2c-6.1,0.4-12.5,1-18.9,1.3c-1.5,0.1-3.1-0.9-4.7-0.8
				c-3.4,0.2-6.8,1-10.1,1.3c-0.7,0.1-2.3-1.2-2.2-1.3c0.7-1.7,1.5-3.4,2.5-4.8C105.9,95.2,107.1,95.5,108.3,95.5z M127,88.1
				c-0.5-0.1-1.1-0.2-1.6-0.3c-0.5,2.9-0.9,5.8-1.4,8.7c0.5,0.1,1,0.2,1.5,0.2C125.9,93.9,126.5,91,127,88.1z"/>
			<path fill-rule="evenodd" clip-rule="evenodd" fill="#FFFFFF" d="M52.1,239.9c-4.3,8.1-8.5,16-12.9,24.4
				c-0.9-0.3-2.7-0.6-4.2-1.5c-2.5-1.5-4-1-4.9,1.8c-0.3,0.9-1,1.7-2,3.2c-0.9-3.3-1.2-5.9-2.3-8.2c-1-2-2.7-3.6-4.3-5.2
				c-2.3-2.3-2.3-3.2,0.7-4.3c7.3-2.6,14.6-5.1,21.9-7.6C46.7,241.6,49.5,240.7,52.1,239.9z M21.2,252c0.6,0.7,1,1.2,1.4,1.6
				c3.8,3.7,3.8,3.7,8.3,0.9c4.5-2.9,8.9-5.7,13.3-8.6c1-0.7,1.8-1.6,2.8-2.4c-0.1-0.2-0.2-0.4-0.4-0.7
				C38.2,245.8,29.9,248.8,21.2,252z M46.8,246.6c-0.1-0.1-0.2-0.3-0.3-0.4c-4.8,4.4-9.6,8.9-14.7,13.6c2.6,1.1,4.7,2.1,6.6,2.9
				C41.4,257.1,44.1,251.8,46.8,246.6z M40.8,249.6c-0.1-0.2-0.2-0.3-0.3-0.5c-3.6,2.6-7.2,5.3-10.9,7.8c-2.3,1.6-2.3,3.3-1.4,4.8
				C32.5,257.7,36.6,253.6,40.8,249.6z"/>
			<path fill-rule="evenodd" clip-rule="evenodd" fill="#FFFFFF" d="M45.2,156c-8.1,0-16.1-0.1-24.2,0c-2.2,0-3.7-0.5-3.6-2.9
				c0.2-3.7,0.4-7.3,0.9-11c0.4-2.9,2.5-4.4,5.3-4.5c8.1-0.4,16.1-0.8,24.2-0.9c4.3-0.1,6,1.5,6.8,5.8c0.6,3.2,0.8,6.4,1.2,9.6
				c0.3,2.3-0.8,3.1-3,3.1c-2.5-0.1-5.1,0-7.6,0C45.2,155.5,45.2,155.7,45.2,156z M19.1,153.8c9.3,0,17.8,0,26.4,0
				c9.5,0,9.5-0.1,8-9.4c-0.8-5.2-2-6.5-7.2-6.3c-7.6,0.2-15.2,0.7-22.8,1.2c-0.7,0-2,0.7-2.1,1.3C20.5,145.1,19.8,149.6,19.1,153.8
				z"/>
			<path fill-rule="evenodd" clip-rule="evenodd" fill="#FFFFFF" d="M73.3,205.9c0-5.5,0-10.2,0-14.9c0.2,0,0.5-0.1,0.7-0.1
				c0.2,0.6,0.4,1.3,0.9,2.6c0.9-1.3,1.7-2.1,2-3.2c0.1-0.4-1.2-1.7-1.7-1.6c-1.2,0.2-2.4,0.9-4.5,1.8c1.1-1.3,1.9-2.8,2.7-2.9
				c1.4-0.1,3.2,0.4,4.2,1.3c0.5,0.5,0.4,3-0.3,3.5c-3.8,2.8-2.5,6.8-3,10.9c2.1-1.4,4.1-1.8,3.1-4.8c-0.7-2.1,1.1-2.9,3.4-2.8
				c0.2,2.7,0.4,5.3,0.6,8.1c0.5-0.2,1.4-0.4,2.2-0.7c-0.3-0.2-0.5-0.4-0.8-0.5c0.5-1.6,1.1-3.3,1.6-4.9c1.2,0.5,2.4,1.1,3.9,1.8
				c2.8-2.4,5.3-1.9,6.8,2.5c0.9-1.5,1.7-2.8,2.6-4.3c2.1,1.7,5.7,1.6,5,5.2c-0.2,0.8-2.7,1.1-4.3,1.7c-0.2-1.8-0.3-2.8-0.4-3.9
				c-1.1,1.2-2,2.1-3,3.1c-0.9-1.3-1.8-2.5-2.9-4.1c-2.6,1.4-5.3,3-8.1,4.3c-1.3,0.6-2.8,0.7-4.2,1c0-1.4,0-2.8,0-4.4
				C77.6,202.3,75.6,204,73.3,205.9z"/>
			<path fill-rule="evenodd" clip-rule="evenodd" fill="#FFFFFF" d="M98.5,348.8c0.1-0.4,0.4-1.1,0.8-1.9c0.3,0,0.5,0,0.8-0.1
				c0.4,1.7,0.7,3.3,1.3,5.6c1-1.5,1.8-2.7,3-4.4c0.8,1.4,1.4,2.4,2.2,3.7c0.4-1.6,0.7-2.8,1.1-4.8c1.2,1.4,1.8,2.2,2.4,3
				c0.9-1.3,1.7-2.6,2.5-3.8c0.3,0,0.7,0.1,1,0.1c0.3,1.4,0.6,2.8,0.9,4.4c1-1.8,2-3.7,3-5.5c0.4,0.1,0.7,0.2,1.1,0.3
				c0.5,1.9,1.1,3.8,1.7,6c0.7,0,1.9,0.1,3,0.2c0.1,0.3,0.2,0.7,0.3,1c-1.5,0.4-2.9,1.3-4.3,1.2c-0.9-0.1-1.7-1.6-2.7-2.6
				c-1.7,1.5-3.6,4.1-6.5,1.1c-0.2-0.2-1.2,0.1-1.5,0.4c-1.2,1.8-2.4,1-4.1,0.6c-2-0.5-4.4,0.5-6.6,0.7c-1.4,0.2-3.3,0.7-4,0
				c-1-0.9-1.3-2.8-1.3-4.3c0-0.9,1.3-2.4,2-2.4C95.9,347.2,97.1,348.1,98.5,348.8z"/>
			<path fill-rule="evenodd" clip-rule="evenodd" fill="#FFFFFF" d="M32,114.4c-8.7,0-13.8-3.7-15.6-11.2c-0.2-0.9-0.4-1.8-0.3-2.7
				c0.4-5.3,9.2-16.3,16-17c4.3-0.4,8.7-1.6,11.5,2.2c2.7,3.7,4.9,8.2,5.8,12.7c1.9,10.4-5.8,14.8-13.9,16
				C34.3,114.6,33.1,114.4,32,114.4z M30.9,113.8c3.3-0.7,5.8-1,8.2-1.7c7.8-2.2,10.9-7.8,8.8-15.7c-0.5-1.9-1.2-3.8-2.2-5.5
				c-3-5-5.9-8.7-14.5-5.6c-5.6,2-9.1,5.7-11.9,10.3c-3.3,5.3-2.1,11.1,3.1,14.6C25,112.1,28.4,112.8,30.9,113.8z"/>
			<path fill-rule="evenodd" clip-rule="evenodd" fill="#FFFFFF" d="M145.6,347c1.6-4,2.9-7.1,4.1-10.2c0.2-0.1,0.4-0.1,0.6-0.2
				c0.3,3.4,0.7,6.8,1,9.8c0.7-1,1.6-2.3,2.5-3.5c0.8,1.1,1.7,2.2,3,3.9c1.8,0.1,4.5,0.2,7.2,0.3c0.1,0.2,0.1,0.5,0.2,0.7
				c-1.2,0.3-2.3,0.9-3.5,0.9c-4.9,0.1-9.7,0-14.6,0.1c-1.1,0-2.1,0.6-3.1,0.5c-1.5-0.1-3-0.4-4.6-0.7c0.5-1.7,0.5-3.9,1.6-4.9
				c1.4-1.2,3.5-0.9,4.4,1.5C144.5,345.6,144.7,345.8,145.6,347z"/>
			<path fill-rule="evenodd" clip-rule="evenodd" fill="#FFFFFF" d="M155.8,197.3c0,1.6,0,3.2,0,5.4c1.4-0.7,2.4-1.2,2.6-1.3
				c0.6-2.1,0.9-3.3,1.3-4.7c2.2,2.3,3.7,4,5.2,5.6c2.7,0,0-5.3,4.3-3.9c-2.1,4,2.9,3.4,3.7,6.2c-1,0.3-2,0.6-2.6,0.8
				c-0.6-1.1-0.9-2.3-1.5-2.5c-0.8-0.3-1.8,0.1-2.7,0.4c-1.3,0.6-2.6,1.5-3.9,2.2c-0.2-0.2-0.4-0.5-0.6-0.7c0.4-0.8,0.9-1.7,1.8-3.4
				c-1.5,0.2-2.9-0.1-3.4,0.4c-2.8,2.7-6.1,1.4-9.2,1.2c-0.7,0-1.4-1-1.5-1.1c-2.3,0.3-4,0.5-5.7,0.6c-0.2,0-0.8-1.7-0.5-2.1
				c1.5-1.7,3.2-3.2,5.4-4.2c0.4-2.4,0.7-4.7,1.1-7.1c0.3,0,0.5,0,0.8,0c0,1.3,0.1,2.7,0,4c-0.1,1.6-0.6,3.3-0.4,4.8
				c0.2,1.4,0.8,3.7,1.7,4c2.5,0.8,1.5-1.8,2.1-2.9c0.4-0.7,0.7-1.4,1-2.1C155.2,197.2,155.5,197.2,155.8,197.3z"/>
			<path fill-rule="evenodd" clip-rule="evenodd" fill="#FFFFFF" d="M24.6,52.4c1.1-3.3,1.3-6.4,2.9-7.9c1.4-1.2,4.7-1.1,6.7-0.4
				c1.1,0.4,1.3,3.4,2,5.9c0.4,0.2,1.7,0.5,3,1.1c3.8,1.7,5.6,5.4,4.3,9.3c-0.2,0.7-1.6,1.5-2.5,1.5c-7.4,0.2-14.7,0.2-22.1,0.1
				c-1,0-3-1.2-2.9-1.8c0-1.5,0.5-3.6,1.6-4.4C20.1,54.3,22.9,53.3,24.6,52.4z M17.1,60.7c2.2,0.1,3.7,0.3,5.2,0.3
				c5.1-0.1,10.2-0.3,15.2-0.2c2.1,0,4.1,0,4.7-2.4c0.6-2.5-0.4-4.3-2.8-5.3c-2-0.8-4-1.4-5.3-1.9c-0.3-2.4,0.1-4.8-0.9-5.8
				c-0.9-0.8-4.4-0.6-4.9,0.3c-1.2,1.9-1.2,4.6-1.9,7.9C23.9,54.8,18.9,55,17.1,60.7z"/>
			<path fill-rule="evenodd" clip-rule="evenodd" fill="#FFFFFF" d="M77.3,356.1c0.3-5.2,0.6-10.4,1-16.6c2.2,2.5,3.8,4.5,5.6,6.6
				c0.9-2.2,1.7-4.2,2.8-7c3.2,5.3,3.2,10.1,2.9,15.1c-0.4,0.1-0.8,0.2-1.3,0.3c-0.3-1.5-0.6-2.9-0.7-4.4c-0.1-1.8,0-3.6,0-6.2
				c-1.5,2-2.5,3.3-3.6,4.7c-1.2-1.1-2.4-2.2-3.7-3.4c-0.4,3.7-0.9,7.5-1.4,11.3C78.4,356.3,77.9,356.2,77.3,356.1z"/>
			<path fill-rule="evenodd" clip-rule="evenodd" fill="#FFFFFF" d="M93.5,25.1c0.3,3.1,0.4,3.2,8.9,1.3c-2.1,1.8-2.1,1.8-13.4,0.9
				c-0.2-1.1-0.4-2.1-0.7-4c-1.4,1.6-2.4,2.7-3.5,4c-0.7-1.6-1.2-2.9-2.2-5.2c-1.1,2.4-1.8,3.7-2.4,5.1c-0.2,0-0.5,0-0.7,0
				c-0.1-1.6-0.2-3.1-0.4-5.4c2.4,0.4,4.4,0.8,7.4,1.3c2.6-1.6,2.6-1.6,4.6,3.9c0.6-1.7,0.9-2.8,1.3-3.9c0.9-2.8,3-4.1,5.8-3.9
				c1.1,0.1,2,1.2,3.1,1.8c-0.6,1-1,2.5-1.9,2.8C97.6,24.7,95.7,24.7,93.5,25.1z M100.1,22.3c-0.1-0.5-0.1-1.1-0.2-1.6
				c-1.4,0.1-2.8,0.2-4.2,0.5c-0.2,0.1,0,1.6,0,2.9C97.6,23.4,98.8,22.8,100.1,22.3z"/>
			<path fill-rule="evenodd" clip-rule="evenodd" fill="#FFFFFF" d="M219.7,33.2c-0.7-5.5-1.2-10.2-2-15c-0.1-0.7-1.3-1.7-2.1-1.8
				c-9-0.9-18.1-1.4-27.3,0.1c1.3-0.4,2.7-1.3,4-1.3c7.9-0.1,15.7-0.2,23.6,0.1c1.2,0,3,1.9,3.2,3.2c0.9,4.8,1.3,9.8,1.9,15.6
				c-9.8-0.6-19.3-1.2-28.8-1.8c0-0.4,0-0.7,0-1.1C201.2,31.9,210.1,32.5,219.7,33.2z"/>
			<path fill-rule="evenodd" clip-rule="evenodd" fill="#FFFFFF" d="M109,250.1c-1,0.1-1.8,0.2-2.5,0.3c0-0.5,0-0.9,0-0.9
				c2.9-0.6,3.4-2.6,3.2-5.1c-0.1-1.9,0-3.9,0-5.8c0.3,0,0.6,0,0.9,0c0,3,0,6,0,9.2c1.3,0.2,2.2,0.3,2.4,0.3
				c-0.8,1.3-2.2,2.6-2.4,4.1c-0.3,1.6-0.3,3.9,2.4,4.1c2.7,0.2,4.9-1.7,5-4.3c0-0.7-0.1-1.5,0.3-2c0.4-0.7,1.2-1.1,1.9-1.7
				c0.4,0.8,0.9,1.6,1.1,2.5c0.1,0.4-0.3,0.8-0.4,1.3c-0.3,1.2-0.5,2.4-0.7,3.7c1.3-0.1,2.6,0,3.9-0.2c1.1-0.2,2.2-0.6,3.7-1
				c-3.5,3-5.6,3.3-9.1,1.8c-0.6-0.3-1.5-0.1-2.2,0.2c-5.5,1.9-6.7,1.1-7.4-4.7C109.2,251.3,109.1,250.8,109,250.1z"/>
			<path fill-rule="evenodd" clip-rule="evenodd" fill="#FFFFFF" d="M92,98.7c-1.7,3.1-6.4,5.3-9.3,4.7c-1-0.2-2.5-1.2-2.5-1.8
				c0.1-1.5,0.7-3,1.6-4.2c0.5-0.6,1.9-0.6,2.9-0.8c0.1,0.3,0.2,0.6,0.2,0.9c-0.8,0.2-1.8,0.2-2.2,0.7c-0.7,0.8-0.9,2-1.3,3
				c1,0.4,2,1.1,2.9,1c3.7-0.4,4.8-1.8,4.3-5.5c-0.2-1.4-0.3-2.7-0.5-4.1c0.3-0.1,0.6-0.1,0.9-0.2c0.4,1.7,0.7,3.4,1,4.6
				c1.3,0.6,2.6,0.8,3.4,1.5c0.8,0.7,1,1.9,1.6,3.2c1.2-1.7,2-2.9,2.8-4.1c0.8,1.5,1.6,3,2.8,5C96.9,102.1,93.1,104.1,92,98.7z"/>
			<path fill-rule="evenodd" clip-rule="evenodd" fill="#FFFFFF" d="M155.2,89.5c-5,0-8.1-2.5-8.1-6.6c0-4.4,3.1-8,6.9-8
				c5.2,0,9.5,2.9,9.5,6.6C163.6,86.6,160.6,89.5,155.2,89.5z M154.9,88.1c4.8,0,7.3-2.1,7.3-6.4c0-2.7-3.2-5.3-6.7-5.3
				c-4.3-0.1-7,2.5-7,6.5C148.6,86.3,150.8,88.1,154.9,88.1z"/>
			<path fill-rule="evenodd" clip-rule="evenodd" fill="#FFFFFF" d="M77.2,238.8c0.5,1,1.4,2,1.3,2.9c-0.6,5.3-1.2,10.6-2.3,15.9
				c-0.2,0.9-2.6,2.4-3.3,2.1c-1.5-0.7-2.6-2.3-3.9-3.5c1-0.9,2-1.9,3-2.8c0.2,0.3,0.4,0.5,0.6,0.8c-0.8,0.5-1.6,1.1-2.9,2.1
				c1.6,1,3,2.4,3.9,2.2c1-0.3,1.9-2,2.4-3.3c0.6-1.4,0.8-3.1,1.2-5.1c-0.9,0.2-1.4,0.3-1.8,0.3c-1.4,0.1-3.7,0.5-4,0
				c-0.6-1.3-0.8-3.2-0.2-4.5c1.2-2.6,3.1-4.9,4.7-7.4C76.3,238.6,76.7,238.7,77.2,238.8z M75.5,240.2c-1.3,2.3-2.6,4.6-3.8,7
				c-0.3,0.6,0,2,0.4,2.2c0.7,0.3,1.8,0.2,2.5-0.1C77.8,247.7,78.4,244.7,75.5,240.2z"/>
			<path fill-rule="evenodd" clip-rule="evenodd" fill="#FFFFFF" d="M135.5,350.2c-0.5-3.3-0.9-6-1.3-8.6c-1.6,1.3-2.9,2.3-4.3,3.4
				c-0.3-0.2-0.6-0.4-0.9-0.6c0,2.2,0,4.4,0,6.5c-0.4,0-0.9,0.1-1.3,0.1c-0.4-3.8-0.7-7.5-1.2-12c1.7,1.2,3,2.2,4.5,3.3
				c0.6-1.6,1.2-3,1.7-4.6C136.7,340.6,138.3,347.4,135.5,350.2z"/>
			<path fill-rule="evenodd" clip-rule="evenodd" fill="#FFFFFF" d="M135.4,198.9c2.3-0.5,4.6-1.1,7.5-1.8c-0.8,1.5-1.4,2.7-2.2,4.4
				c-1.6-3.2-3.4-2.2-5.3-0.9c-1.9,1.3-3.7,2.8-5.7,3.7c-2.2,1-3.7-0.1-3.5-2.5c0.4-3.4,1-6.8,1.7-10.2c0.2-0.8,1.5-1.8,2.1-1.8
				c1.1,0.1,2.6,0.8,3,1.7C134,193.7,134.6,196.2,135.4,198.9z M129.8,190.9c-1,4-2,8-3,12.1c4.2,0.2,6.5-1.6,7-4.6
				C134.3,194.8,132.7,191.7,129.8,190.9z"/>
			<path fill-rule="evenodd" clip-rule="evenodd" fill="#FFFFFF" d="M80.6,142.1c1.9-1,4-1.7,5.6-2.9c1.2-0.9,2.2-2.6,2.4-4.1
				c0.1-0.8-1.5-2.7-2.4-2.7c-1.5-0.1-3.9,0.6-4.4,1.6c-1.4,2.8-2.5,5.9-2.9,8.9c-0.5,3.7-0.1,7.4-0.1,11.2c-0.4,0-0.7,0-1.1,0.1
				c-0.2-2-0.3-4-0.5-6c-0.4-4.8,0.2-9.5,2.8-13.6c0.9-1.4,2.6-2.7,4.1-3.3c2.4-1,4.2,0.2,5.4,2.4c1.2,2.2,0.5,4.2-1.3,5.5
				c-2.2,1.5-4.7,2.6-7.1,3.8C81,142.8,80.8,142.5,80.6,142.1z"/>
			<path fill-rule="evenodd" clip-rule="evenodd" fill="#FFFFFF" d="M79.1,50.2c-0.6,0.7-1.3,1.3-1.7,2.1c-0.3,0.6,0.1,1.6-0.3,1.9
				c-0.7,0.6-1.7,0.9-2.5,1.3c-0.1-0.8-0.4-1.6-0.4-2.4c0-0.5,0.2-1,0.6-2.5c-2.4,1-4,1.6-5.5,2.2c0.2-2,1.5-2.9,4.4-2.9
				c1.4,0,2.8-0.7,4.2-0.7c2.6,0.1,5.2,0.3,7.6,1.1c0.7,0.2,1.5,3.3,1,3.7c-1.2,1.1-3.1,1.8-4.7,2.1c-0.5,0.1-1.4-1.9-1.9-3
				c-0.3-0.7,0-1.6,0.1-2.4C79.6,50.7,79.3,50.5,79.1,50.2z M86.4,53.1c-1.2-1-2-2.1-2.4-1.9c-1.1,0.5-2,1.4-3,2.2
				c0.6,0.6,1.4,1.9,1.9,1.8C84,55,84.9,54.1,86.4,53.1z"/>
			<path fill-rule="evenodd" clip-rule="evenodd" fill="#FFFFFF" d="M99.8,49.5c-3-0.3-5.7-0.8-4.5-5.4c-2.8,2.5-2.4,5.3-0.4,7.5
				c1.3,1.4,1.4,3.8,2.1,5.7c-0.5,0.1-1,0.3-1.4,0.4c-0.4-1.7-0.8-3.3-1.3-5.5c-1.2,2.4-2.3,4.3-3.3,6.3c-0.3-0.2-0.6-0.3-0.9-0.5
				c0.6-1.4,1.2-2.9,2.1-4.9c-1.6,0.5-2.4,0.8-3.5,1.1c0.2-0.5,0.3-0.9,0.5-0.9c2.5-0.9,2.7-2.8,2.9-5.2c0.1-2.1,1.2-4.1,1.8-6.1
				c0.5,0.1,1,0.1,1.5,0.2c0.3,1.4,0.7,2.9,1.1,4.5C97.5,47.2,100.5,46,99.8,49.5L99.8,49.5z"/>
			<path fill-rule="evenodd" clip-rule="evenodd" fill="#FFFFFF" d="M99.7,49.6c0.6-2,1.2-4,1.8-6c0.2,0,0.5,0,0.7,0
				c-0.2,2.2-0.4,4.4-0.7,6.6c-0.2,1.5-0.7,2.9-0.7,4.4c0,0.6,1,1.2,1.4,1.6c1.1-2.1,1.8-3.7,2.8-5.2c0.2-0.2,1.7,0,1.8,0.2
				c0.2,1.5,0.3,3.1,0.4,4.9c1.6-0.4,3.6-0.8,6.4-1.5c-4.5,3.4-8.8,2.8-12.9,2.7c-0.5,0-1.2-1.8-1.3-2.8c-0.1-1.6,0.2-3.3,0.3-5
				C99.8,49.5,99.7,49.6,99.7,49.6z"/>
			<path fill-rule="evenodd" clip-rule="evenodd" fill="#FFFFFF" d="M58,30.2c-0.3-4.4-0.6-8.8-0.8-13.3c0.2-0.1,0.4-0.2,0.6-0.2
				c0.6,1.7,1.1,3.4,1.7,5c7.2-0.3,7.2-0.3,8.1-5.4c1.9,1.9,1.9,1.9,1.1,12.3c-0.3,0.1-0.6,0.1-0.9,0.2c-0.2-2.1-0.4-4.3-0.8-7.2
				c-2.4,0.6-5.5,0.5-7,2c-1.3,1.3-1,4.3-1.4,6.5C58.4,30.2,58.2,30.2,58,30.2z"/>
			<path fill-rule="evenodd" clip-rule="evenodd" fill="#FFFFFF" d="M71.9,100.6c0.8,0.6,1.8,1.9,2.5,1.7c1.3-0.3,2.5-1.4,3.7-2.1
				c-0.7-1-1.3-2.3-2.2-3c-1.2-0.8-2.8-0.9-4.2-1.6c-2.5-1.2-2.7-3.2-0.5-4.8c1-0.7,2.2-1.3,3.4-1.4c1.1-0.1,2.9,0.1,3.3,0.8
				c0.5,1,0.1,2.5-0.1,3.8c-0.1,0.6-0.7,1.2-0.6,0.9c0.7,2.6,2,4.8,1.4,6.2c-0.5,1.3-3.1,2.2-4.9,2.5c-0.8,0.2-1.9-1.5-2.9-2.3
				C71.3,101.1,71.6,100.8,71.9,100.6z M75.6,89.5C73.7,90.9,72.4,92,71,93c1.3,0.8,2.6,2.2,3.8,2.1c0.9,0,1.9-1.9,2.4-3.2
				C77.4,91.6,76.4,90.7,75.6,89.5z"/>
			<path fill-rule="evenodd" clip-rule="evenodd" fill="#FFFFFF" d="M104.9,198.9c0.4,0.7,0.8,1.4,1.2,2.2c0.8-0.5,1.5-1,2.3-1.5
				c1.2,4.6,3.7,2.7,6.3,1.6c-0.1-1-0.2-1.9-0.3-3.1c2,1.2,3.6,2.1,5.2,3.1c1.6,1,1.2,2-0.2,2.9c-1.4,0.9-2.9,1.7-4.4,2.6
				c-0.2-0.2-0.4-0.5-0.5-0.7c1.4-1,2.9-2.1,4.3-3.1c0-0.3,0-0.5,0-0.8c-1.1,0-2.6-0.5-3.4,0.1c-3.3,2.3-6.7,1.7-9.9,0.5
				c-0.8-0.3-1.1-2.2-1.6-3.3C104.2,199.2,104.6,199,104.9,198.9z"/>
			<path fill-rule="evenodd" clip-rule="evenodd" fill="#FFFFFF" d="M216.6,20.8c-8.4,1.3-22.1,0.7-23.5-1.1c8,0,15.8,0,23.6,0
				C216.6,20.1,216.6,20.4,216.6,20.8z"/>
			<path fill-rule="evenodd" clip-rule="evenodd" fill="#FFFFFF" d="M194.5,28.8c6.7,0,13.5,0,20.2,0c0,0.3,0,0.7,0,1
				c-6.7,0-13.5,0-20.2,0C194.5,29.5,194.5,29.1,194.5,28.8z"/>
			<path fill-rule="evenodd" clip-rule="evenodd" fill="#FFFFFF" d="M64.9,49.9c-1.2-4,3.8-3.7,4.4-6.4c-3.5-1-5.8,0.9-5.7,4.8
				c0.1,3.2,0.4,6.4,0.6,10c-2.5-3.5-2.6-12.1-0.2-14.6c1-1,2.5-1.6,3.9-1.9c0.8-0.2,2.2,0.5,2.5,1.2c0.3,0.6-0.3,1.9-0.9,2.6
				C68.2,47,66.7,48.3,64.9,49.9z"/>
			<path fill-rule="evenodd" clip-rule="evenodd" fill="#FFFFFF" d="M87.3,259.9c-0.4-3.3-0.8-6.1-1.2-8.8c-0.6-0.1-1.2-0.2-1.8-0.3
				c-1.2,2.3-2.3,4.7-3.5,7c-0.2,0-0.5,0-0.7,0c0.1-2.2,0.3-4.4,0.5-7.1c2.4,1.6,5.2-3.7,7,1.2C88.5,254.4,89.1,256.9,87.3,259.9z"
				/>
			<path fill-rule="evenodd" clip-rule="evenodd" fill="#FFFFFF" d="M205.8,300.9c5-6.1,9.9-12.3,14.9-18.4
				c-2.6,7.9-10,12.2-13.7,19.3C206.6,301.5,206.2,301.2,205.8,300.9z"/>
			<path fill-rule="evenodd" clip-rule="evenodd" fill="#FFFFFF" d="M205.8,300.9c5-6.1,9.9-12.3,14.9-18.4
				c-2.6,7.9-10,12.2-13.7,19.3C206.6,301.5,206.2,301.2,205.8,300.9z"/>
			<path fill-rule="evenodd" clip-rule="evenodd" fill="#FFFFFF" d="M194.2,25.1c6.2,0,12.4,0,18.6,0c0,0.2,0,0.4,0,0.6
				c-6.2,0-12.4,0-18.7,0C194.2,25.5,194.2,25.3,194.2,25.1z"/>
			<path fill-rule="evenodd" clip-rule="evenodd" fill="#FFFFFF" d="M218.7,130c-2,7.9-9.6,11.4-14.2,17.2
				C208.3,140.8,215.9,137.3,218.7,130z"/>
			<path fill-rule="evenodd" clip-rule="evenodd" fill="#FFFFFF" d="M218.7,216.4c-2,7.9-9.6,11.4-14.2,17.2
				C208.3,227.2,215.9,223.7,218.7,216.4z"/>
			<path fill-rule="evenodd" clip-rule="evenodd" fill="#FFFFFF" d="M221.5,317.2c-2,6.1-6.5,8.7-10.7,11.5
				C214.1,325.1,217.5,321.5,221.5,317.2z"/>
			<path fill-rule="evenodd" clip-rule="evenodd" fill="#FFFFFF" d="M91.8,251.3c1,2,1.9,4.1,2.9,6.1c0.3,0,0.5-0.1,0.8-0.1
				c0.4-1.8,0.8-3.5,1.3-5.3c0.3,0.1,0.7,0.1,1,0.2c-0.4,1.8-0.5,3.8-1.2,5.5c-0.7,1.7-2.2,1.8-3.1,0.2c-1-1.9-1.7-4.1-2.5-6.1
				C91.3,251.5,91.5,251.4,91.8,251.3z"/>
			<path fill-rule="evenodd" clip-rule="evenodd" fill="#FFFFFF" d="M73.3,21.3c2.1,1.8,3.3,2.9,4.6,4c-1.6,1-3.1,2.3-4.9,2.8
				c-0.6,0.2-2.7-1.7-2.6-2.5C70.6,24.3,72,23.2,73.3,21.3z M76.9,26.4c0-0.6,0-1.2,0.1-1.8c-1.4-0.1-2.8-0.4-4.1-0.2
				c-0.4,0.1-0.5,1.6-0.8,2.5C73.7,26.7,75.3,26.5,76.9,26.4z"/>
			<path fill-rule="evenodd" clip-rule="evenodd" fill="#FFFFFF" d="M200.7,74.5c4.5-3.9,8.9-7.8,13.4-11.7c0.2,0.2,0.4,0.5,0.6,0.7
				c-4.5,3.9-9,7.8-13.5,11.6C201,75,200.9,74.8,200.7,74.5z"/>
			<path fill-rule="evenodd" clip-rule="evenodd" fill="#FFFFFF" d="M200.7,209c4.5-3.9,8.9-7.8,13.4-11.7c0.2,0.2,0.4,0.5,0.6,0.7
				c-4.5,3.9-9,7.8-13.5,11.6C201,209.4,200.9,209.2,200.7,209z"/>
			<path fill-rule="evenodd" clip-rule="evenodd" fill="#FFFFFF" d="M200.7,209c4.5-3.9,8.9-7.8,13.4-11.7c0.2,0.2,0.4,0.5,0.6,0.7
				c-4.5,3.9-9,7.8-13.5,11.6C201,209.4,200.9,209.2,200.7,209z"/>
			<path fill-rule="evenodd" clip-rule="evenodd" fill="#FFFFFF" d="M209.3,97.1c1.9-3.6,4.1-7.9,5.9-11.6
				C216.3,88,213.6,94.1,209.3,97.1z"/>
			<path fill-rule="evenodd" clip-rule="evenodd" fill="#FFFFFF" d="M189.2,33c0-4.5,0-8.9,0-13.4c0.2,0,0.3,0,0.5,0
				c0,4.5,0,8.9,0,13.4C189.5,33,189.4,33,189.2,33z"/>
			<path fill-rule="evenodd" clip-rule="evenodd" fill="#FFFFFF" d="M211.1,256.7c-2.7,3.7-5.4,7.4-8.1,11.1
				c-0.2-0.2-0.5-0.3-0.7-0.5c2.7-3.7,5.4-7.5,8.1-11.2C210.6,256.3,210.8,256.5,211.1,256.7z"/>
			<path fill-rule="evenodd" clip-rule="evenodd" fill="#FFFFFF" d="M204,181.4c3.5-3.1,7-6.1,10.6-9.2c-0.2-0.2-0.3-0.3-0.5-0.5
				c-3.4,3.2-6.8,6.3-10.2,9.5C203.9,181.3,203.9,181.3,204,181.4z"/>
			<path fill-rule="evenodd" clip-rule="evenodd" fill="#FFFFFF" d="M5,84.5c-0.9-0.5-1.7-0.9-3-1.6c0.7,2.1,1.3,3.9,1.9,5.8
				c-1.3-2.4-2.6-4.9-3.9-7.3c0.5-0.4,1-0.7,1.5-1.1C2.7,81.7,3.9,83.1,5,84.5z"/>
			<path fill-rule="evenodd" clip-rule="evenodd" fill="#FFFFFF" d="M101.6,260.1c-0.4-3.1-0.8-5.4-1.1-7.6c0.3,0,0.7-0.1,1-0.1
				C101.1,254.7,104.9,256.5,101.6,260.1z"/>
			<path fill-rule="evenodd" clip-rule="evenodd" fill="#FFFFFF" d="M221.2,107.2c-2.8,2.4-5.5,4.8-8.3,7.1
				c-0.2-0.2-0.4-0.4-0.5-0.6c2.7-2.4,5.4-4.9,8.1-7.3C220.7,106.6,220.9,106.9,221.2,107.2z"/>
			<path fill-rule="evenodd" clip-rule="evenodd" fill="#FFFFFF" d="M104,247.4c-1-0.5-2-1-3.3-1.6c0.8-0.9,1.4-1.7,2.7-3.3
				c0.7,1.9,1.1,3.2,1.5,4.5C104.6,247.1,104.3,247.3,104,247.4z"/>
			<path fill-rule="evenodd" clip-rule="evenodd" fill="#FFFFFF" d="M28.4,203.3c5.2-0.5,10.4-0.9,15.6-1.4c0,0.4,0.1,0.9,0.1,1.3
				c-5.2,0.4-10.4,0.8-15.6,1.1C28.5,204,28.5,203.7,28.4,203.3z"/>
			<path fill-rule="evenodd" clip-rule="evenodd" fill="#FFFFFF" d="M30.9,199c3.5-0.3,7-0.6,10.6-0.9c0,0.5,0.1,0.9,0.1,1.4
				c-3.5,0.2-7.1,0.4-10.6,0.7C31,199.8,30.9,199.4,30.9,199z"/>
			<path fill-rule="evenodd" clip-rule="evenodd" fill="#FFFFFF" d="M29.4,194.6c2.4-0.2,4.9-0.5,7.3-0.7c0,0.5,0.1,1,0.1,1.4
				c-2.4,0.1-4.9,0.3-7.3,0.4C29.4,195.4,29.4,195,29.4,194.6z"/>
			<path fill-rule="evenodd" clip-rule="evenodd" fill="#FFFFFF" d="M50.7,150.2c-9.2,0-18.4,0-27.9,0c0.6-0.5,1.3-1.7,2.1-1.7
				c8.4-0.1,16.8,0,25.2,0c0.2,0,0.3,0.3,0.5,0.4C50.6,149.4,50.7,149.8,50.7,150.2z"/>
			<path fill-rule="evenodd" clip-rule="evenodd" fill="#FFFFFF" d="M43.7,99.8c-3.6,0-7.2,0-10.8,0c0-0.3,0-0.7,0-1
				c3.6,0,7.2,0,10.8,0C43.7,99.1,43.7,99.4,43.7,99.8z"/>
			<path fill-rule="evenodd" clip-rule="evenodd" fill="#FFFFFF" d="M32.6,88.8c-0.2,3.2-0.4,6.4-0.7,9.6c-0.4,0-0.7,0-1.1,0
				c0-3.2,0-6.4,0-9.6C31.4,88.8,32,88.8,32.6,88.8z"/>
			<path fill-rule="evenodd" clip-rule="evenodd" fill="#FFFFFF" d="M156,84.4c0.6,0.1,1.8,0.3,3.1,0.5c0,0.3,0,0.6,0,0.9
				c-2.5,0-4.9,0-8.4,0c1.7-1.6,2.8-2.6,3.4-3.2c-0.2-1.5-0.4-2.6-0.5-3.7c1.4,0,2.7,0,4.1,0C157.1,80.8,156.6,82.6,156,84.4z"/>
		</g>
	</g>
</g>
<g>
</g>
<g>
</g>
<g>
</g>
<g>
</g>
<g>
</g>
<g>
</g>
</svg>
