<?xml version="1.0" encoding="utf-8"?>
<!-- Generator: Adobe Illustrator 18.0.0, SVG Export Plug-In . SVG Version: 6.00 Build 0)  -->
<!DOCTYPE svg PUBLIC "-//W3C//DTD SVG 1.1//EN" "http://www.w3.org/Graphics/SVG/1.1/DTD/svg11.dtd">
<svg version="1.1" id="Layer_1" xmlns="http://www.w3.org/2000/svg" xmlns:xlink="http://www.w3.org/1999/xlink" x="0px" y="0px"
	 viewBox="0 0 393.9 176.4" enable-background="new 0 0 393.9 176.4" xml:space="preserve">
<g>
	<g>
		<path fill="#414042" d="M72.2,171.9C72.2,171.9,72.2,171.9,72.2,171.9L72.2,171.9z"/>
		<path fill="#414042" d="M74.7,174.5l0.2,0c0.1,0,0.1,0,0.2,0H74.7z"/>
		<path fill="#414042" d="M130.7,170.9l-26.5-70.8c-0.4-1.1-1.2-1.6-2.5-1.6c-1.3,0-2.2,0.5-2.7,1.6l-20.7,54.7l40.8-0.1l6.8,18
			c0.4,1.2,1.3,1.7,2.5,1.7l1-0.1c0.7-0.3,1.1-0.8,1.4-1.5C131,172.3,131,171.6,130.7,170.9z M86.2,149.4l15.5-41l15.4,41H86.2z"/>
	</g>
	<g>
		<path fill="#414042" d="M248.8,171.1c0.3,0.7,0.8,1.2,1.4,1.5l1,0.1c1.2,0,2.1-0.6,2.5-1.7l6.8-18l40.8,0.1l-20.7-54.7
			c-0.5-1.1-1.4-1.6-2.7-1.6c-1.3,0-2.1,0.5-2.5,1.6l-26.5,70.8C248.6,169.7,248.6,170.4,248.8,171.1z M262.5,147.5l15.4-41l15.5,41
			H262.5z"/>
	</g>
	<g>
		<path fill="#414042" d="M42.1,141.2c-2.8-3.7-6.4-6.4-10.8-7.9c4.9-3.9,7.3-8.7,7.3-14.4c0-5.6-1.9-10.3-5.6-14
			c-3.7-3.7-8.2-5.6-13.4-5.6h-17c-0.7,0-1.3,0.3-1.9,0.8C0.3,100.7,0,101.3,0,102v71.2c0,0.7,0.2,1.3,0.7,1.9
			c0.5,0.5,1.1,0.8,1.8,0.8l2.9-2.6l0-35.7h19.1c4.5,0,8.4,1.6,11.6,4.9c3.2,3.2,4.8,7.1,4.9,11.6c-0.1,4.6-1.7,8.5-4.9,11.7
			c-3.2,3.2-7,4.7-11.4,4.8l0,5.4c6,0,11.1-2.2,15.3-6.4c4.3-4.3,6.4-9.4,6.4-15.4C46.3,149.2,44.9,145,42.1,141.2z M19.6,132H5.3
			v-27.3h14.3c3.8,0,7,1.3,9.7,4c2.7,2.7,4,5.9,4,9.7c0,3.8-1.3,7-4,9.6C26.6,130.7,23.4,132,19.6,132z"/>
		<path fill="#414042" d="M24.7,170.5c-1.5,0-2.7,1.2-2.7,2.7c0,1.5,1.2,2.7,2.7,2.7L24.7,170.5z"/>
		<path fill="#414042" d="M0,173.2c0,1.5,1.2,2.7,2.7,2.7c1.5,0,2.7-1.2,2.7-2.7L0,173.2z"/>
	</g>
	<g>
		<path fill="#414042" d="M214.3,116.7v46L168,98.6c-0.4-0.6-0.9-0.9-1.7-1c-0.8-0.1-1.5,0.1-2.3,0.7c-0.8,0.6-1,1.5-0.7,2.6v70.1
			c0,0.7,0.3,1.4,0.8,1.9c0.5,0.5,1.1,0.8,1.9,0.8c0.7,0,1.3-0.3,1.9-0.8c0.5-0.5,0.8-1.1,0.8-1.9v-62.5l45.8,63.7l0.4,0.4
			c0.5,0.7,1.2,1,2,1c0.8,0,1.5-0.3,2-0.8c0.5-0.5,0.8-1.1,0.8-1.9v-54.2H214.3z"/>
		<path fill="#414042" d="M219.6,116.7c0-1.5-1.2-2.7-2.7-2.7c-1.5,0-2.7,1.2-2.7,2.7L219.6,116.7z"/>
	</g>
	<g>
		<path fill="#414042" d="M39.6,6.4C35.4,2.1,30.3,0,24.3,0H2.6C1.9,0,1.3,0.3,0.8,0.8C0.3,1.3,0,1.9,0,2.6v71.3
			c0,0.7,0.3,1.4,0.8,1.9c0.5,0.5,1.1,0.8,1.9,0.8s1.4-0.3,1.9-0.8c0.5-0.5,0.8-1.1,0.8-1.9V46.1v-2.3v-5.4V37V5.4h18.9
			c4.5,0,8.4,1.6,11.6,4.9c3.2,3.2,4.9,7.1,4.9,11.6c0,4.5-1.6,8.4-4.9,11.6c-3.2,3.2-6.9,4.8-11.3,4.9v5.2c5.8-0.1,10.9-2.2,15-6.4
			C43.9,33,46,27.8,46,21.8C46,15.8,43.9,10.7,39.6,6.4z"/>
		<path fill="#414042" d="M24.7,38.5c-1.4,0-2.5,1.1-2.5,2.5c0,1.4,1.1,2.5,2.5,2.5L24.7,38.5z"/>
	</g>
	<g>
		<path fill="#414042" d="M130.4,71.7c-0.4-1.3-1.4-1.9-3-1.7c-1.4-1.4-2.1-4.5-2.1-9.4c0-4.9-1-8.8-3-11.6c-2-2.8-4.4-5.1-7.3-6.8
			l-1.1-0.5c3.8-1.8,6.8-4.4,9.1-8c2.3-3.6,3.4-7.5,3.4-11.8c0-6.1-2.1-11.2-6.3-15.5C116,2.1,110.9,0,104.8,0H83
			c-0.7,0.1-1.2,0.4-1.7,0.9c-0.5,0.5-0.7,1.1-0.7,1.8v71.3c0,0.7,0.3,1.4,0.8,1.9c0.5,0.5,1.1,0.8,1.9,0.8c0.7,0,1.4-0.3,1.9-0.8
			c0.5-0.5,0.8-1.1,0.8-1.9V43.6h0v-5.3h0v-33h18.9c4.5,0,8.4,1.6,11.6,4.8c3.2,3.2,4.9,7.1,4.9,11.6c0,4.5-1.6,8.4-4.7,11.6
			c-3.1,3.2-6.9,4.9-11.4,5h-0.1v5.5c3,0.6,5.9,1.8,8.7,3.8c4.2,3.1,6.2,6.9,6.2,11.6c0,10.7,2.3,16.1,7,16.1h0.2l1.1-0.1h0.2
			C130.2,74.7,130.8,73.5,130.4,71.7z"/>
		<path fill="#414042" d="M105.3,38.4c-1.5,0-2.7,1.2-2.7,2.7c0,1.5,1.2,2.7,2.7,2.7L105.3,38.4z"/>
	</g>
	<g>
		<g>
			<path fill="#414042" d="M301.1,0.8C300.6,0.3,300,0,299.3,0h-51.4c-0.7,0-1.4,0.3-1.9,0.8c-0.5,0.5-0.8,1.1-0.8,1.9
				c0,0.7,0.3,1.4,0.8,1.9c0.5,0.5,1.1,0.8,1.9,0.8h23.1v51.9l5.3,0V5.4h23.1c0.7,0,1.3-0.3,1.9-0.8c0.5-0.5,0.8-1.2,0.8-1.9
				C301.9,1.9,301.6,1.3,301.1,0.8z"/>
		</g>
		<path fill="#414042" d="M271,57.1c0,1.4,1.2,2.6,2.6,2.6c1.4,0,2.6-1.2,2.6-2.6L271,57.1z"/>
	</g>
	<g>
		<path fill="#414042" d="M216.1,11.3C209.1,3.8,200.4,0,190.2,0c-10.2,0-18.9,3.8-26.1,11.3c-1.1,1.2-2.1,2.4-3.1,3.7l0,0
			c-0.6,1.4,0,2.9,1.3,3.5c1.3,0.6,2.7-0.3,3.6-1.3c0,0,1.2-1.4,1.9-2.1c6.2-6.4,13.6-9.6,22.2-9.6c8.6,0,16,3.2,22.1,9.6
			c6.1,6.4,9.2,14.3,9.2,23.7c-0.1,9.3-3.2,17.2-9.3,23.7c-6.1,6.5-13.5,9.8-22.1,9.8c-8.6,0-16-3.2-22.1-9.7
			c-6.2-6.5-9.2-14.4-9.2-23.8c0-1.2,0.1-2.4,0.2-3.6c0-1.8-0.1-3-1.4-3.6c-1.3-0.6-2.9,0-3.5,1.3l-0.1,0.5c0,0.1-0.4,3.5-0.4,5.5
			c0.1,10.8,3.7,20,10.8,27.5c7.1,7.5,15.8,11.3,26.1,11.3c10.2,0,18.9-3.8,26-11.3c7.1-7.5,10.6-16.7,10.7-27.5
			C226.8,28,223.2,18.9,216.1,11.3z"/>
	</g>
	<g>
		<path fill="#414042" d="M383.2,110.1c-7.1-7.5-15.7-11.3-26-11.3c-10.3,0-18.9,3.8-26.1,11.3c-1.1,1.2-2.1,2.4-3.1,3.7l0,0
			c-0.6,1.4,0,2.9,1.3,3.5c1.3,0.6,2.7-0.3,3.6-1.3c0,0,1.2-1.4,1.9-2.1c6.2-6.4,13.6-9.6,22.2-9.6c8.6,0,16,3.2,22.1,9.6
			c6.1,6.4,9.2,14.3,9.2,23.7c-0.1,9.3-3.2,17.2-9.3,23.7c-6.1,6.5-13.5,9.8-22.1,9.8c-8.6,0-16-3.2-22.1-9.7
			c-6.2-6.5-9.2-14.4-9.2-23.8c0-1.2,0.1-2.4,0.2-3.6c0-1.8-0.1-3-1.4-3.6c-1.3-0.6-2.9,0-3.5,1.3l-0.1,0.5c0,0.1-0.4,3.5-0.4,5.5
			c0.1,10.8,3.7,20,10.8,27.5c7.1,7.5,15.8,11.3,26.1,11.3c10.2,0,18.9-3.8,26-11.3c7.1-7.5,10.6-16.7,10.7-27.5
			C393.9,126.8,390.3,117.6,383.2,110.1z"/>
	</g>
	<g>
		<path fill="#414042" d="M331,66.3c7.1,7.5,15.7,11.3,26,11.3c10.2,0,18.9-3.8,26.1-11.3c1.1-1.2,2.1-2.4,3.1-3.7l0,0
			c0.6-1.4,0-2.9-1.3-3.5c-1.3-0.6-2.7,0.3-3.6,1.3c0,0-1.2,1.4-1.9,2.1c-6.2,6.4-13.6,9.6-22.2,9.6c-8.6,0-16-3.2-22.1-9.6
			c-6.1-6.4-9.2-14.3-9.2-23.7c0.1-9.3,3.2-17.2,9.3-23.7c6.1-6.5,13.5-9.8,22.1-9.8c8.6,0,16,3.2,22.1,9.7
			c6.2,6.5,9.2,14.4,9.2,23.8c0,1.2-0.1,2.4-0.2,3.6c0,1.8,0.1,3,1.4,3.6c1.3,0.6,2.9,0,3.5-1.3l0.1-0.5c0-0.1,0.4-3.5,0.4-5.5
			c-0.1-10.8-3.7-20-10.8-27.5C375.9,3.8,367.2,0,357,0c-10.2,0-18.9,3.8-26,11.3c-7.1,7.5-10.6,16.7-10.7,27.5
			C320.3,49.6,323.9,58.8,331,66.3z"/>
	</g>
</g>
<g>
</g>
<g>
</g>
<g>
</g>
<g>
</g>
<g>
</g>
<g>
</g>
</svg>
