<?xml version="1.0" encoding="utf-8"?>
<!-- Generator: Adobe Illustrator 16.0.4, SVG Export Plug-In . SVG Version: 6.00 Build 0)  -->
<!DOCTYPE svg PUBLIC "-//W3C//DTD SVG 1.1//EN" "http://www.w3.org/Graphics/SVG/1.1/DTD/svg11.dtd">
<svg version="1.1" id="Layer_1" xmlns="http://www.w3.org/2000/svg" xmlns:xlink="http://www.w3.org/1999/xlink" x="0px" y="0px"
	 width="630.676px" height="13.1px" viewBox="0 0 630.676 13.1" enable-background="new 0 0 630.676 13.1" xml:space="preserve">
<g>
	<path fill="#EFEFF0" d="M209.052,11.399c-3.354,0.272-6.703,0.544-10.081,0.818l46.131-0.399
		C232.658,11.704,220.403,10.664,209.052,11.399z"/>
	<path fill="#EFEFF0" d="M254.101,11.703c-0.808,0.023-1.608,0.047-2.417,0.071c11.865-0.047,23.72-0.093,35.599-0.14
		c0.024-0.007,0.059-0.011,0.089-0.015C276.278,10.871,265.189,11.168,254.101,11.703z"/>
	<path fill="#EFEFF0" d="M76.116,13.1c7.708-0.079,15.411-0.157,23.099-0.235c1.057-0.318,2.202-0.616,3.42-0.895
		c-9.025,0.168-18.054,0.271-27.078,0.296C75.821,12.534,76.028,12.811,76.116,13.1z"/>
	<path fill="#EFEFF0" d="M616.108,6.303c-2.304,0.173-4.505,0.394-6.546,0.687c2.679,0,5.365,0.001,7.678,0.235
		c2.823-0.702,8.129-0.386,13.436-0.386C625.755,6.658,620.911,6.48,616.108,6.303z"/>
	<path fill="#EFEFF0" d="M605.338,9.422c0,0.304,2.813-0.303,2.813,0.304c-2.813-0.304-5.631,0.304-5.631,0.912
		c1.411,0,2.817,0,4.226,0c-0.789,0.337-3.306,0.488-4.898,0.763c0.926-0.001,1.856-0.002,2.784-0.002
		c2.108,0,4.21-1.356,4.226-2.719C606.937,8.582,605.338,8.613,605.338,9.422z"/>
	<path fill="#EFEFF0" d="M599.918,5.847c-12.819-0.484-25.311-0.993-38.034-1.587c-6.993-0.328-23.703-1.393-36.378-1.567
		c-8.225-0.196-16.343-0.279-24.443-0.324c-4.123,0.161-8.465,0.33-13.27,0.518c-2.311,0.167-3.363-0.211-4.526-0.589
		c-1.363-0.006-2.728-0.012-4.101-0.017c-19.538,0.358-56.243-1.348-58.938-1.443c-3.522-0.123-12.473-0.437-13.427-0.47
		c1.061,0.523,2.837,1.08,0.741,1.306c-5.63,0.303-12.663,0.607-16.889,0.607c-5.387-0.166-11.196-0.877-16.966-1.238
		c-4.743,0.194-9.438,0.399-14.006,0.631c-0.311,0.013-2.812,0.844-2.812,1.214c-3.236,0-6.171-0.128-9.084-0.298
		c-0.014,0.008-0.09,0.022-0.192,0.04c0.065-0.013,0.137-0.026,0.192-0.04c0.813-0.204-0.162-0.076-2.192,0.255
		c0.456-0.028,0.86-0.062,1.208-0.1c-0.676,0.092-1.669,0.221-2.891,0.38c0.619-0.104,1.183-0.198,1.683-0.28
		c-6.118,0.386-21.429-0.016-29.32-0.055c-4.986,0.531-11.88,0.052-15.445-0.157c-1.935-0.115-3.856-0.255-5.761-0.411
		c-3.407,0.001-22.01,0.797-35.105,0.053c-0.226,0.198-0.231,0.45-0.231,0.613c-2.813,0-5.63-0.607-8.45,0v0.913
		c-1.512-0.655-3.866-1.129-6.804-1.479l-8.355,0.025c-3.395,1.125-5.631,0.187-8.018,0.027l-5.927,0.018
		c0.948,0.267,0.954,0.533,0.954,0.801c-2.857-0.124-5.594-0.209-8.26-0.27c-10.497-0.238-19.935-0.097-31.159-0.34
		c-0.971-0.031-1.951-0.062-2.932-0.094c-14.667-0.011-29.345-0.023-44.016-0.035c-12.703-0.043-25.394-0.12-38.076-0.247
		C65.678,1.876,32.74,1.224,0,0c4.221,3.192,0,6.383,10.554,9.12c6.868,1.48,19.302,1.457,27.127,2.619
		c5.886-0.044,11.047-0.367,14.338,0.076c1.045-0.001,2.083-0.004,3.126-0.005c9.023-0.024,18.049-0.127,27.074-0.296
		c6.143-0.141,12.291-0.28,18.435-0.42c1.173,0,3.306,0.629,4.805,1.016c21.989-0.251,43.93-0.501,65.848-0.752
		c1.715-0.017,3.428-0.035,5.136-0.052c14.548-2.08,33.698-0.513,46.133-0.401c2.195-0.014,4.393-0.028,6.584-0.041
		c0.808-0.021,20.401-1.638,35.684-0.156c0.059,0.004,0.123,0.009,0.18,0.013c1.908-0.002,3.818-0.003,5.723-0.005
		c0.248-0.25,8.268-1.188,11.507,0.003c6.606,0.019,19.842,0.054,19.842,0.054s3.227-0.835,3.227-0.94
		c1.812,0.113,0.279,0.853,2.096,0.929c0.327,0.004,16.232,0.148,23.875,0.218c-0.259-0.219-3.122-0.716-3.985-0.796
		c1.069,0,8.611,0.715,11.615,0.877c4.877,0.057,16.844,0.103,17.946,0.035c1.407,0-1.415-0.608-1.415-1.216
		c5.977,0.82,12.164,1.368,18.545,1.68c1.734,0.019,3.462,0.036,5.188,0.055c0.535,0.234,0.926,0.394,0.205,0.394
		c-1.1,0.067-2.19,0.118-3.3,0.156c3.209,0.049,16.838,0.254,20.432,0.308c-3.663-0.18-7.265-0.448-10.788-0.789
		c3.73,0.023,7.463,0.048,11.183,0.07c0.153-0.004,0.302-0.008,0.456-0.013c6.177-1.309,11.509-2.838,15.803-4.596
		c-4.304,1.765-9.669,3.302-15.872,4.612c5.315,0.021,13.187-0.04,19.714-0.12c3.263-0.05,6.191-0.094,8.294-0.127
		c1.052-0.025,1.898-0.046,2.478-0.06c0.578-0.019,0.89-0.035,0.874-0.049c2.942,0,6.65-0.416,10.127-0.595
		c3.18-0.164,6.157-0.132,8.17,0.595c-4.212,0-8.414-0.303-12.626,0.296c19.579-0.126,39.095-0.383,58.636-0.656
		c0.229-0.132,0.553-0.236,0.948-0.323c-0.489,0.139-0.819,0.249-0.948,0.323c21.068-0.296,42.151-0.611,63.345-0.81
		c12.088-0.112,24.201-0.186,36.37-0.195c1.61-0.274,4.128-0.426,4.905-0.764c-1.405,0-2.816,0-4.221,0
		c0-0.607,2.815-1.216,5.632-0.911c0-0.608-2.816,0-2.816-0.305c0-0.808,1.601-0.84,3.522-0.741V7.295
		c0.337-0.221,0.794-0.391,1.347-0.525c-2.328-0.234-5.006-0.234-7.685-0.234C595.404,6.241,597.621,6.02,599.918,5.847z"/>
</g>
</svg>
