<svg xmlns="http://www.w3.org/2000/svg" style="display: none;">
  
  <symbol id="icon-code" viewBox="0 0 149.2 149">
    <g>
		<g>
			<path fill="#2FA9CE" d="M116.3,98.8l-3.7-2.4c-0.2,0-0.7,0.2-1,0.3c-1,0.3-2.2,0.7-3.6,0.4c-8.1-1.4-17.7-2.1-27.6-2.1
			c-6.7,0-13.4-0.2-19.9-0.4c-8.5-0.3-17.4-0.5-26-0.3l-3,0.1l0.4-2.9c0.7-5.4,1-11,1.3-16.4c0.2-3,0.3-6,0.5-9.1l0.1-1.6
			c0.3-4.1,0.6-7.9,0.2-11.8l-2.5,1.2l0.2-4.2c0.1-0.9,0.1-1.8,0.3-2.5c-0.1-0.8,0-1.7,0-2.5l4.7,0.3l1.3-1.3l0.3,3c0,0,0,0,0,0
			c0.4,0,0.9,0,1.2,0c2.7-0.1,5.4-0.3,8.1-0.5c6.3-0.4,12.7-0.8,19.1-0.9l3.2-0.1c13.5-0.3,27.5-0.6,41.3,0l3,0.1l-0.7,2.9
			c-0.8,3.5,0,8.4,0.6,12.8c0.3,1.9,0.6,3.7,0.7,5.4c0.9,10.1,1.6,18,1.6,27.7L116.3,98.8z M81,90c10,0,19.6,0.7,27.8,2.1
			c0.2,0,0.9-0.2,1.3-0.3c0.4-0.1,0.8-0.2,1.2-0.3c-0.1-8.3-0.7-15.5-1.6-24.5c-0.1-1.5-0.4-3.3-0.7-5.1c-0.6-3.8-1.2-8-1-11.7
			c-12.8-0.4-25.7-0.2-38.3,0.1l-3.2,0.1c-6.3,0.1-12.7,0.5-18.9,0.9c-2.7,0.2-5.4,0.3-8.1,0.5c-0.2,0-0.5,0-0.8,0
			c0.6,4.4,0.2,8.8-0.1,13l-0.1,1.6c-0.2,3-0.4,6-0.5,9c-0.2,4.6-0.5,9.3-1,14c7.8-0.1,15.7,0.1,23.4,0.3C67,89.8,73.7,90,80.3,90
			C80.5,90,80.7,90,81,90z"/>
		</g>
		<g>
			<path fill="#2FA9CE" d="M116,105c-0.1,0-0.3,0-0.4,0c0.1,0,0.5,0,1-0.2l-0.7-1.4l-0.2,1.4c-2.2-0.3-4.5-0.2-7-0.1
				c-1.6,0.1-3.3,0.1-5,0.1c-6.2-0.2-12.6-0.4-18.7-0.5c-4.9-0.1-9.7-0.2-14.6-0.4c-3.2-0.1-6.5-0.2-9.7-0.4
				c-9.1-0.4-18.5-0.8-27.6-0.3l-0.3-5l0.8,0v0c9.1-0.4,18.4,0,27.3,0.3c3.2,0.1,6.5,0.3,9.7,0.4c4.9,0.1,9.7,0.3,14.6,0.4
				c6.1,0.2,12.5,0.3,18.7,0.5c1.5,0,3,0,4.6-0.1c2.5-0.1,5.1-0.2,7.8,0.2l1.9,0.2l0.3,1.9c0.2,1.2-0.4,2-0.7,2.3
				C117.5,104.6,116.9,105,116,105z M114.6,100.4c-0.1,0.1-0.2,0.2-0.3,0.3c-0.6,0.6-0.7,1.4-0.7,1.9l1.9-0.2L114.6,100.4z"/>
		</g>
		<g>
			<path fill="#2FA9CE" d="M83.9,149c-10.9,0-21.9-2.4-32.9-5.8l-1.3,4C27.6,140.1,11,122.4,4,98.7c-7.5-25.4-4.4-51.6,8.2-70.2
				C29.3,3.1,68-3.3,96.7,1.5c31,5.2,50,27.7,52.1,61.8c1.4,23,0.7,51.3-17.3,66.9C115.6,144,99.7,149,83.9,149z M36.5,132.9
				c31.1,11.6,61.5,19.8,91.7-6.5c16.3-14.2,16.9-41,15.6-62.8C141.9,32,124.4,11.2,95.9,6.4c-38.7-6.5-68.4,8.4-79.5,24.9
				C4.6,48.6,1.8,73.3,8.8,97.3c4.7,16.1,14.2,29.2,26.9,37.7L36.5,132.9z"/>
		</g>
		<g>
			<path fill="#2FA9CE" d="M47.8,74.3c-0.1,0-0.2,0-0.4,0c-0.2,0-0.4,0-0.7,0c-0.2,0-0.5,0-0.7,0c-0.2,0-0.3,0-0.4,0h-0.9
				c-0.2,0-0.5,0-0.7,0c-0.2,0-0.5-0.1-0.7-0.2c-0.2-0.1-0.4-0.2-0.5-0.4c-0.1-0.2-0.2-0.4-0.2-0.7c0-0.3,0.1-0.5,0.2-0.6
				c0.2-0.2,0.3-0.4,0.5-0.6c0.1-0.1,0.2-0.2,0.3-0.4c0.2-0.2,0.3-0.4,0.5-0.7c0.2-0.2,0.4-0.4,0.5-0.6c0.2-0.2,0.3-0.4,0.3-0.4
				c0.1-0.2,0.2-0.4,0.3-0.5c0.1-0.1,0.3-0.3,0.3-0.5l3-4.8c0.1-0.2,0.2-0.4,0.3-0.6c0.1-0.2,0.1-0.4,0.2-0.6
				c0.1-0.2,0.2-0.4,0.3-0.5c0.1-0.1,0.3-0.2,0.6-0.2c0.4,0,0.8,0.2,1,0.5c0.3,0.3,0.4,0.7,0.4,1c0,0,0,0.1,0,0.2
				c0,0.1-0.1,0.1-0.1,0.2L48,69.7c-0.1,0.2-0.2,0.4-0.4,0.6c-0.2,0.2-0.4,0.4-0.6,0.7c-0.2,0.2-0.4,0.4-0.5,0.7
				c-0.1,0.2-0.2,0.5-0.2,0.7c1.3,0,2.5,0,3.7,0.1c1.2,0.1,2.4,0.2,3.7,0.3c0.1,0.1,0.1,0.2,0.3,0.3c0.1,0.1,0.2,0.1,0.4,0.2
				c0.1,0.1,0.2,0.1,0.3,0.2c0.1,0.1,0.1,0.2,0.1,0.4c0,0.8-0.4,1.2-1.2,1.2c-0.3,0-0.5,0-0.7-0.1c-0.2-0.1-0.4-0.2-0.6-0.2
				c-0.7-0.2-1.5-0.3-2.2-0.3C49.3,74.3,48.6,74.3,47.8,74.3z"/>
			<path fill="#2FA9CE" d="M53.5,75.5c-0.4,0-0.7-0.1-0.9-0.2c-0.1-0.1-0.3-0.1-0.4-0.1c-0.7-0.2-1.4-0.3-2.2-0.3
				c-0.7-0.1-1.5-0.1-2.2-0.1c-0.1,0-0.2,0-0.4,0c-0.2,0-0.4,0-0.7,0c-0.3,0-0.5,0-0.7,0c-0.2,0-0.4,0-0.4,0h-0.9c-0.2,0-0.5,0-0.8,0
				c-0.3,0-0.6-0.1-0.8-0.2c-0.3-0.1-0.5-0.3-0.7-0.5c-0.2-0.3-0.3-0.6-0.3-1c0-0.4,0.1-0.7,0.4-1c0.2-0.2,0.3-0.3,0.5-0.5l0.3-0.4
				c0.2-0.2,0.3-0.4,0.5-0.7l0.5-0.7c0.1-0.1,0.2-0.3,0.3-0.3c0.1-0.3,0.2-0.5,0.4-0.6c0.1-0.1,0.1-0.2,0.2-0.3l3.1-4.8
				c0.1-0.1,0.2-0.3,0.2-0.5c0.1-0.2,0.2-0.5,0.3-0.7c0.1-0.3,0.3-0.5,0.4-0.6c0.2-0.2,0.5-0.3,0.9-0.3c0.6,0,1.1,0.2,1.4,0.6
				c0.3,0.4,0.5,0.8,0.6,1.3c0,0.1,0,0.3,0,0.5c0,0.1-0.1,0.2-0.2,0.3l-3.6,5.7c-0.1,0.2-0.3,0.5-0.5,0.7l-0.6,0.7
				c-0.1,0.2-0.3,0.3-0.4,0.5c1,0,2,0,3,0.1c1.2,0.1,2.4,0.2,3.7,0.3l0.3,0l0.1,0.2c0.2,0.1,0.3,0.2,0.4,0.3c0.2,0.1,0.3,0.2,0.4,0.3
				c0.2,0.2,0.3,0.5,0.3,0.8C55.2,74.9,54.6,75.5,53.5,75.5z M47.8,73.8c0.8,0,1.5,0,2.3,0.1c0.7,0.1,1.5,0.2,2.3,0.3
				c0.3,0,0.5,0.1,0.7,0.3c0.1,0,0.2,0.1,0.4,0.1c0.5,0,0.7-0.2,0.7-0.7c0-0.1,0-0.1,0-0.1c0,0-0.1-0.1-0.2-0.1
				c-0.1-0.1-0.2-0.1-0.3-0.2c-0.1-0.1-0.2-0.1-0.3-0.2c-1.2-0.1-2.3-0.2-3.4-0.3c-1.2-0.1-2.4-0.1-3.6-0.1h-0.5v-0.5
				c0-0.3,0.1-0.6,0.3-0.9c0.2-0.3,0.3-0.5,0.6-0.7l0.6-0.7c0.2-0.2,0.3-0.4,0.4-0.5l3.7-5.8c0-0.3-0.1-0.5-0.3-0.8
				c-0.2-0.2-0.4-0.3-0.6-0.3c-0.2,0-0.2,0-0.3,0.1c-0.1,0.1-0.2,0.2-0.2,0.3c-0.1,0.2-0.1,0.4-0.2,0.6c-0.1,0.3-0.2,0.5-0.3,0.7
				l-3,4.8c-0.1,0.2-0.2,0.4-0.4,0.6c-0.1,0.1-0.1,0.1-0.2,0.2l0,0.1c-0.1,0.1-0.2,0.3-0.4,0.5l-0.5,0.6c-0.2,0.2-0.4,0.4-0.5,0.7
				l-0.3,0.4c-0.2,0.2-0.4,0.4-0.6,0.6c0,0-0.1,0.1-0.1,0.3c0,0.2,0,0.3,0.1,0.4c0.1,0.1,0.2,0.2,0.3,0.2c0.2,0.1,0.3,0.1,0.5,0.1
				c0.2,0,0.5,0,0.7,0h0.9c0.1,0,0.2,0,0.4,0c0.2,0,0.4,0,0.7,0c0.3,0,0.5,0,0.7,0C47.6,73.8,47.8,73.8,47.8,73.8z"/>
		</g>
		<g>
			<path fill="#2FA9CE" d="M57.4,72c0,0.2,0,0.2,0-0.1c0-0.3,0.1-0.8,0.2-1.4c0.1-0.6,0.2-1.4,0.3-2.3c0.1-0.9,0.3-1.8,0.5-2.7
				c0.2-0.9,0.4-1.7,0.6-2.6c0.2-0.8,0.4-1.5,0.7-2c0.2-0.7,0.6-1.3,1-1.9c0.4-0.6,0.8-1.2,1.3-1.7c0.1-0.1,0.2-0.2,0.3-0.3
				c0.1-0.1,0.3-0.1,0.5-0.1c0.3,0,0.5,0.1,0.7,0.3c0.2,0.2,0.3,0.5,0.3,0.8c0,0.3-0.1,0.5-0.2,0.8c-0.1,0.3-0.3,0.5-0.4,0.8
				c-0.2,0.3-0.4,0.5-0.5,0.8c-0.2,0.2-0.3,0.5-0.4,0.6c-0.3,0.7-0.7,1.5-1,2.5c-0.3,1-0.6,2-0.9,3c-0.3,1-0.5,2-0.6,3
				c-0.1,1-0.2,1.7-0.1,2.3c0,0.8,0.1,1.5,0.3,2.2c0.2,0.7,0.6,1.3,1.2,1.8c0.1,0.1,0.2,0.2,0.4,0.3c0.2,0.1,0.4,0.3,0.6,0.4
				c0.2,0.1,0.4,0.3,0.6,0.4c0.2,0.1,0.3,0.2,0.4,0.2c0,0,0,0.1,0,0.1c0,0.1,0,0.1,0,0.1c0,0.2-0.1,0.3-0.3,0.4
				c-0.2,0.1-0.4,0.1-0.5,0.1c-0.7,0-1.4-0.2-1.9-0.5c-0.6-0.4-1.1-0.8-1.5-1.4c-0.4-0.6-0.7-1.2-1-1.8C57.6,73.3,57.4,72.6,57.4,72z
				"/>
			<path fill="#2FA9CE" d="M62.2,78.2c-0.8,0-1.5-0.2-2.2-0.6c-0.6-0.4-1.2-0.9-1.6-1.5c-0.4-0.6-0.8-1.3-1-2
				c-0.2-0.6-0.3-1.2-0.4-1.8c-0.1-0.1-0.1-0.3,0-0.6c0-0.3,0.1-0.8,0.2-1.4c0.1-0.6,0.2-1.4,0.3-2.3c0.1-0.9,0.3-1.8,0.5-2.7
				c0.2-0.9,0.4-1.8,0.6-2.6c0.2-0.8,0.5-1.5,0.7-2.1c0.2-0.7,0.6-1.3,1-2c0.4-0.6,0.8-1.2,1.3-1.8c0.1-0.1,0.2-0.3,0.4-0.4
				c0.5-0.4,1.3-0.3,1.8,0.2c0.3,0.3,0.5,0.7,0.5,1.1c0,0.3-0.1,0.7-0.2,1c-0.1,0.3-0.3,0.6-0.5,0.9c-0.2,0.3-0.4,0.5-0.6,0.8
				c-0.2,0.2-0.3,0.4-0.4,0.6c-0.3,0.7-0.6,1.5-1,2.5c-0.3,1-0.6,2-0.9,3c-0.3,1-0.5,2-0.6,2.9C60,70.3,60,71,60.1,71.6
				c0,0.8,0.1,1.5,0.3,2.1c0.1,0.6,0.5,1.1,1.1,1.5l0.4,0.3c0.2,0.1,0.4,0.3,0.6,0.4l0.6,0.4c0.2,0.1,0.3,0.2,0.3,0.2l0.3,0.1V77
				c0,0.2,0,0.2,0,0.3c0,0.4-0.2,0.8-0.6,0.9C62.7,78.2,62.4,78.2,62.2,78.2z M57.9,72L57.9,72c0,0.6,0.1,1.2,0.4,1.8
				c0.2,0.6,0.5,1.2,0.9,1.7c0.4,0.5,0.8,0.9,1.4,1.3c0.5,0.3,1.1,0.5,1.7,0.5c0.1,0,0.1,0,0.2,0c0,0-0.1,0-0.1-0.1l-0.6-0.4
				c-0.2-0.1-0.4-0.3-0.6-0.4L60.8,76c-0.7-0.6-1.2-1.3-1.4-2.1c-0.2-0.7-0.3-1.5-0.3-2.3c-0.1-0.6-0.1-1.4,0.1-2.4
				c0.1-1,0.4-2,0.6-3c0.3-1,0.6-2.1,0.9-3.1c0.3-1,0.7-1.9,1-2.6c0.1-0.2,0.3-0.5,0.5-0.7c0.2-0.2,0.3-0.5,0.5-0.7
				c0.2-0.2,0.3-0.5,0.4-0.7c0.1-0.2,0.1-0.4,0.1-0.6c0-0.2-0.1-0.3-0.2-0.4c-0.2-0.2-0.5-0.2-0.5-0.1c-0.1,0.1-0.2,0.2-0.2,0.3
				c-0.4,0.6-0.9,1.1-1.2,1.7c-0.4,0.6-0.7,1.2-0.9,1.8c-0.3,0.5-0.5,1.2-0.7,2c-0.2,0.8-0.4,1.6-0.6,2.5c-0.2,0.9-0.3,1.8-0.5,2.6
				c-0.1,0.9-0.3,1.6-0.3,2.3C58,71.1,57.9,71.6,57.9,72C57.9,71.9,57.9,71.9,57.9,72z"/>
		</g>
		<g>
			<path fill="#2FA9CE" d="M66.3,77c0-0.2,0.1-0.3,0.3-0.5c0.2-0.2,0.4-0.4,0.4-0.5c0.4-0.6,0.8-1.1,1.1-1.5c0.3-0.5,0.7-1,1-1.5
				c0.1-0.2,0.2-0.5,0.3-0.9c0.1-0.3,0.2-0.6,0.4-0.8c0.3-1,0.5-2,0.7-2.9c0.2-0.9,0.2-1.9,0.2-3c0-1.2-0.1-2.3-0.3-3.5
				c-0.2-1.2-0.4-2.3-0.8-3.4c-0.1-0.2-0.2-0.5-0.3-0.7c-0.2-0.2-0.3-0.4-0.5-0.6c-0.2-0.2-0.3-0.4-0.4-0.6c-0.1-0.2-0.2-0.4-0.2-0.6
				c0-0.2,0.1-0.4,0.3-0.6c0.2-0.2,0.4-0.3,0.6-0.3c0.4,0,0.7,0.1,1,0.4c0.3,0.2,0.6,0.5,0.8,0.9c0.2,0.3,0.5,0.7,0.6,1.1
				c0.2,0.4,0.3,0.7,0.4,1c0.2,0.5,0.3,1,0.4,1.6c0.1,0.6,0.2,1.1,0.3,1.7c0.1,0.6,0.1,1.2,0.2,1.7c0,0.6,0.1,1.1,0.1,1.6
				c0,1.1-0.1,2.3-0.2,3.3c-0.1,1.1-0.4,2.2-0.8,3.3c0,0,0,0.1-0.1,0.3c-0.1,0.2-0.2,0.4-0.3,0.6c-0.1,0.2-0.2,0.5-0.3,0.7
				c-0.1,0.2-0.2,0.4-0.2,0.5c-0.1,0.2-0.3,0.5-0.6,1c-0.3,0.5-0.6,0.9-0.9,1.4c-0.3,0.5-0.7,0.8-1.1,1.2c-0.4,0.3-0.7,0.5-1,0.5
				c-0.1,0-0.2,0-0.4,0c-0.1,0-0.3-0.1-0.4-0.1c-0.1-0.1-0.2-0.1-0.3-0.2C66.3,77.3,66.3,77.1,66.3,77z"/>
			<path fill="#2FA9CE" d="M67.5,78.3c-0.1,0-0.3,0-0.5-0.1c-0.2,0-0.4-0.1-0.5-0.2c-0.2-0.1-0.4-0.2-0.5-0.4
				c-0.2-0.2-0.3-0.4-0.3-0.7c0-0.3,0.1-0.6,0.4-0.9c0.2-0.2,0.3-0.3,0.4-0.5c0.4-0.6,0.8-1.1,1.1-1.5c0.3-0.4,0.6-0.9,0.9-1.5
				c0.1-0.2,0.2-0.5,0.3-0.8c0.1-0.3,0.2-0.6,0.4-0.9c0.3-1,0.5-1.9,0.6-2.8c0.1-0.9,0.2-1.9,0.2-2.9c0-1.1-0.1-2.3-0.3-3.4
				c-0.2-1.1-0.4-2.3-0.7-3.4c0-0.2-0.1-0.4-0.2-0.5c-0.2-0.2-0.3-0.4-0.5-0.6c-0.2-0.2-0.3-0.4-0.4-0.6c-0.2-0.3-0.2-0.6-0.2-0.9
				c0-0.3,0.1-0.7,0.4-1c0.7-0.7,1.6-0.5,2.3,0c0.3,0.3,0.7,0.6,0.9,1c0.3,0.4,0.5,0.8,0.7,1.2c0.2,0.4,0.3,0.7,0.4,1
				c0.2,0.5,0.3,1,0.4,1.6c0.1,0.6,0.2,1.1,0.3,1.7c0.1,0.6,0.1,1.2,0.2,1.8c0,0.6,0.1,1.1,0.1,1.7c0,1.2-0.1,2.3-0.2,3.4
				c-0.1,1.1-0.4,2.2-0.8,3.3c0,0.1-0.1,0.2-0.2,0.4c-0.1,0.2-0.2,0.4-0.3,0.6c-0.1,0.2-0.2,0.5-0.3,0.7c-0.1,0.2-0.2,0.4-0.2,0.5
				c-0.1,0.3-0.3,0.6-0.6,1.1c-0.3,0.5-0.6,0.9-0.9,1.4c-0.4,0.5-0.7,0.9-1.1,1.3C68.4,78,68,78.3,67.5,78.3z M69.3,55.4
				c-0.1,0-0.2,0-0.3,0.1c-0.1,0.1-0.1,0.2-0.1,0.3c0,0.1,0,0.3,0.1,0.4c0.1,0.2,0.2,0.4,0.4,0.5c0.2,0.2,0.3,0.4,0.5,0.6
				c0.2,0.3,0.3,0.5,0.4,0.8c0.3,1.1,0.6,2.3,0.8,3.5c0.2,1.2,0.3,2.4,0.3,3.6c0,1.1-0.1,2.1-0.2,3.1c-0.2,1-0.4,2-0.7,3l-0.1,0.1
				c-0.1,0.2-0.2,0.4-0.3,0.7c-0.1,0.3-0.2,0.7-0.3,0.9c-0.3,0.6-0.7,1.2-1,1.6c-0.3,0.4-0.7,0.9-1.1,1.5c-0.1,0.2-0.3,0.3-0.5,0.6
				c-0.1,0.2-0.2,0.2-0.2,0.2c0,0.1,0.1,0.1,0.2,0.1c0.1,0,0.2,0.1,0.3,0.1c0.1,0,0.2,0,0.3,0c0.1,0,0.3,0,0.6-0.4
				c0.3-0.3,0.7-0.7,1-1.1c0.3-0.4,0.6-0.9,0.9-1.3c0.3-0.4,0.5-0.8,0.6-1c0-0.1,0.1-0.3,0.2-0.5c0.1-0.2,0.2-0.5,0.3-0.7
				c0.1-0.2,0.2-0.5,0.3-0.6c0-0.1,0.1-0.2,0.1-0.2c0.4-1.1,0.6-2.2,0.8-3.3c0.1-1.1,0.2-2.2,0.2-3.3c0-0.5,0-1-0.1-1.6
				c0-0.6-0.1-1.1-0.2-1.7c-0.1-0.6-0.2-1.1-0.3-1.7c-0.1-0.5-0.2-1-0.4-1.5c-0.1-0.3-0.2-0.6-0.4-0.9c-0.2-0.3-0.4-0.7-0.6-1
				c-0.2-0.3-0.5-0.6-0.7-0.8C69.8,55.5,69.5,55.4,69.3,55.4z"/>
		</g>
		<g>
			<path fill="#2FA9CE" d="M77.9,81.2c0,0,1-1.3,1-1.3c0.1-0.6,0.1-0.3,0.1-0.4l1.1-4.8l0-1.9c0,0,0.1-0.1,0.2-0.2
				c0.1-0.1,0.2-0.2,0.3-0.2c0,0,0.1,0,0.1,0c0,0,0.1,0,0.1,0c0.5,0,0.8,0.1,1.1,0.4c0.2,0.3,0.3,0.7,0.3,1.1c0,0.5,0,1-0.1,1.5
				c0,0.2-0.1,0.4-0.1,0.7c0,0.3-0.1,0.5-0.1,0.8c0,0.3-0.1,0.6-0.2,1L81.5,78l-0.6,2.7c0,0.2-0.4,0.4-0.6,0.5
				c-0.2,0.1-0.6,0.7-0.8,0.6C78.7,81.9,77.9,82,77.9,81.2z M80.3,68.2c0-0.1,0-0.2,0.1-0.4c0-0.1,0.1-0.3,0.2-0.4
				c0.1-0.1,0.2-0.2,0.3-0.3c0.1-0.1,0.2-0.1,0.4-0.1c0.1,0,0.3,0,0.4,0.1c0.2,0.1,0.3,0.2,0.4,0.3c0.1,0.1,0.2,0.3,0.3,0.4
				c0.1,0.2,0.1,0.3,0.1,0.4l0,0.4c0,0.1-0.1,0.2-0.3,0.3c-0.2,0.1-0.3,0.2-0.3,0.3l-0.1,0c-0.3,0-0.7-0.1-1-0.2
				C80.5,68.9,80.3,68.6,80.3,68.2z"/>
			<path fill="#2FA9CE" d="M79.4,82.4l-0.1,0c-0.1,0-0.2,0-0.3,0c-0.6,0-1.6-0.1-1.6-1.2c0-0.2,0-0.2,0.5-0.9
				c0.2-0.2,0.4-0.5,0.5-0.6l1.1-5.1l0-1.8c0-0.2,0.2-0.4,0.4-0.6c0.2-0.2,0.3-0.3,0.4-0.3l0.1-0.1h0.1c0.1,0,0.1,0,0.2,0
				c0.8,0,1.2,0.3,1.5,0.6c0.3,0.4,0.5,0.9,0.5,1.4c0,0.5,0,1-0.1,1.6c0,0.2-0.1,0.4-0.1,0.7l-0.4,2l-0.1,0.2l-0.6,2.7
				c-0.1,0.3-0.4,0.6-0.7,0.7l-0.1,0.1c0,0-0.1,0.1-0.1,0.1C80,82.2,79.8,82.4,79.4,82.4z M78.4,81.3c0.1,0.1,0.4,0.1,0.6,0.1
				c0.1,0,0.2,0,0.3,0c0.1-0.1,0.3-0.2,0.3-0.3c0.1-0.1,0.2-0.2,0.2-0.2c0,0,0.1-0.1,0.2-0.1c0.1,0,0.2-0.1,0.3-0.2l0.7-2.8l0.1-0.2
				l0.3-1.7c0-0.3,0.1-0.5,0.1-0.7c0.1-0.5,0.1-1,0.1-1.4c0-0.3-0.1-0.6-0.2-0.8c0-0.1-0.2-0.3-0.7-0.3c0,0,0,0,0,0
				c0,0-0.1,0.1-0.2,0.1c0,0,0,0,0,0l0,1.7l-1,4.6l0,0L79.4,80c0,0.1,0,0.2-0.7,1C78.6,81.1,78.5,81.2,78.4,81.3z M81.8,69.8
				L81.8,69.8c-0.4,0-0.8-0.1-1.2-0.3c-0.5-0.2-0.8-0.7-0.8-1.3c0-0.2,0-0.3,0.1-0.5c0.1-0.2,0.1-0.4,0.3-0.5
				c0.1-0.2,0.2-0.3,0.4-0.5c0.4-0.3,0.9-0.3,1.4,0c0.2,0.1,0.4,0.3,0.5,0.4c0.2,0.2,0.3,0.3,0.4,0.5c0.1,0.2,0.2,0.4,0.2,0.6l0,0.5
				L83,68.9c-0.1,0.1-0.2,0.3-0.4,0.5c-0.2,0.2-0.3,0.3-0.4,0.3l-0.1,0.1L81.8,69.8z M81.3,67.4c-0.1,0.1-0.2,0.2-0.3,0.3
				c-0.1,0.1-0.1,0.2-0.1,0.3c0,0.1,0,0.2,0,0.2c0,0.2,0.1,0.3,0.2,0.4c0.2,0.1,0.5,0.2,0.7,0.2c0,0,0.1-0.1,0.2-0.1
				c0.1-0.1,0.1-0.1,0.1-0.1l0-0.2c0,0,0,0-0.1-0.2c-0.1-0.1-0.1-0.2-0.2-0.3c-0.1-0.1-0.2-0.2-0.3-0.3
				C81.3,67.4,81.3,67.4,81.3,67.4z"/>
		</g>
	</g>
  </symbol>
  
  <symbol id="icon-discovery" viewBox="0 0 155 156">
  	<g>
		<path fill="#2FA9CE" d="M60.2,76.3c0.3,0.2,1.1,0.9,1.5,1.3c0.5,0.5,1,1.1,1.4,1.6l0.5,0.5c1.5,1.7,3.3,3.1,5,4.3
			c1.2,0.9,2.3,1.8,3.5,2.9c1.3,1.1,2.6,2.3,4.1,3.3l1.6,1.1l1.5-1.3c2.7-2.4,5.5-4.8,8.2-7.4c1.5-1.5,2.8-3.1,4.2-4.9l0.3-0.4
			c0.4-0.6,0.7-1,1.2-1.3c0.2-0.1,0.4-0.3,0.7-0.5c0.7-0.4,1.5-0.9,2.1-1.8l-4-3c-0.1,0.1-0.5,0.4-0.8,0.5c-0.4,0.2-0.8,0.5-1.2,0.9
			c-0.9,0.7-1.4,1.4-1.9,2.1l-0.3,0.4c-1.2,1.6-2.5,3.1-3.7,4.4c-1.2,1.2-2.5,2.4-3.8,3.6c0-6.5,0.1-12.3,0.4-17.8
			c0.1-1.9-0.1-3.8-0.2-5.5l0-0.3c-0.1-1.3-0.1-2.6-0.1-4c0-1.4,0-2.9-0.1-4.5c-0.2-2.6-0.1-5.2,0.1-8c0.1-2.2,0.3-4.4,0.2-6.7
			l-5,0.2c0.1,2-0.1,4.1-0.2,6.2c-0.2,2.9-0.3,5.8-0.1,8.8c0.1,1.3,0.1,2.6,0.1,4c0,1.4,0,2.9,0.1,4.4l0,0.3c0.2,1.7,0.3,3.3,0.2,4.9
			c-0.3,5.6-0.4,11.6-0.4,18.3c-1.1-1-2.3-2-3.6-2.9c-1.5-1.1-3-2.2-4.2-3.5L66.9,76c-0.5-0.6-1-1.2-1.5-1.7
			c-2.3-2.5-3.7-3.1-5.2-2.3l2.3,4.4C61.6,76.8,60.7,76.6,60.2,76.3z"/>
		<path fill="#2FA9CE" d="M116,90.6c-0.1-1.3-0.2-2.2-0.2-2.6l-0.1-2.3l-2.3-0.1c-2.1-0.1-4.2,0-6.2,0c-0.8,0-1.7,0.1-2.5,0.1l-2.3,0
			l-0.1,2.3c-0.1,1.4,0,2.9,0,4.3c0,2,0.1,3.9-0.1,5.7c0,0.2,0,0.4-0.1,0.6c0,0.1,0,0.4-0.1,0.6c-0.9,0-1.7,0-2.6-0.1
			c-1.1,0-2.2-0.1-3.4-0.1c-4,0-7.9-0.4-12-0.7c-1.8-0.2-3.7-0.3-5.6-0.5c-4.8-0.3-9.6-0.2-14.3-0.1c-1.8,0-3.6,0.1-5.4,0.1
			c-0.6,0-1.2,0-1.8,0c-0.9,0-1.9,0-2.8,0c-0.3,0-0.6,0-1,0.1c-0.1,0-0.2,0-0.3,0c-0.1-0.7,0-2,0.3-3.8c0-0.3,0.1-0.6,0.1-0.8
			c0-0.1,0.1-0.4,0.2-0.6c0.3-1,1.2-3.6-1.2-5.3c-2.4-1.7-7.3-1.5-9.1-0.8c-3.7,1.2-3.4,5.4-3.2,7.6c0,0.5,0.1,1,0.1,1.4
			c0,0.9-0.1,1.8-0.1,2.7c-0.1,1.3-0.1,2.5-0.2,3.8c0,0.3,0,0.7-0.1,1c-0.2,2.2-0.6,7.4,4,7.9c1.4,0.2,2.7-0.1,3.8-0.4
			c0.7-0.1,1.3-0.3,1.8-0.3c1.7,0,3.1,0,4.6,0.4c2.5,0.7,5.1,0.4,7.3,0.1c0.5-0.1,0.9-0.1,1.4-0.2l0.6-0.1c2.8-0.3,5.7-0.6,8.5-0.6
			c2.1,0,4-0.1,6-0.2c1.9-0.1,3.8-0.2,5.6-0.2c0,0,0,0,0,0c1.9,0,3.9,0.1,5.8,0.1c3.1,0.1,6.4,0.1,9.7,0.2c2.5,0,5,0.1,7.5,0
			c1-0.1,2.1,0.1,3.2,0.2c1.1,0.1,2.3,0.3,3.6,0.2l0-1.9l0.6,0.3l0.4,3c2.8-0.4,2.8-3.3,2.5-9.8C116.5,98.1,116.2,93.4,116,90.6z
			 M111.7,108.1l-1.1,0.1c0-0.3,0-0.6,0.2-0.9l0.9,0.5C111.7,107.9,111.7,108,111.7,108.1z M110.1,105.3c-1.3-0.1-2.6-0.3-4-0.2
			c-2.4,0.1-4.7,0.1-7.2,0c-3.2-0.1-6.4-0.1-9.6-0.2c-2-0.1-4-0.1-6-0.1c0,0,0,0,0,0c-2,0-4,0.1-5.9,0.2c-2,0.1-3.8,0.2-5.7,0.2
			c-3.1,0-6.1,0.3-9,0.6l-0.6,0.1c-0.5,0-1,0.1-1.5,0.2c-1.9,0.2-3.9,0.5-5.4,0c-1.8-0.5-3.5-0.6-5.2-0.6c-0.2,0-0.5,0-0.7,0
			c-1,0-2,0.2-2.8,0.4c-0.6,0.1-1.2,0.3-1.7,0.3c-0.1-0.7,0-1.9,0-2.6c0-0.5,0.1-0.9,0.1-1.3c0-1.2,0.1-2.5,0.2-3.7
			c0-0.9,0.1-1.8,0.1-2.7c0-0.6,0-1.3-0.1-2c-0.1-0.7-0.2-1.9,0-2.5c0.9-0.2,2.7-0.2,3.7,0c-0.1,0.4-0.3,0.9-0.3,1.4
			c0,0.2-0.1,0.4-0.1,0.7c-0.4,2.8-1.2,7.5,2.1,9.1c1.2,0.6,2.5,0.4,3.4,0.3c0.2,0,0.4-0.1,0.5-0.1c0.9,0,1.7,0,2.6,0
			c0.6,0,1.3,0,1.9,0c1.8,0,3.6-0.1,5.5-0.1c4.6-0.1,9.3-0.2,13.8,0.1c1.8,0.1,3.7,0.3,5.5,0.5c4,0.4,8.2,0.7,12.5,0.7
			c1.1,0,2.1,0,3.2,0.1c1,0,2.1,0.1,3.1,0.1l0.2,0c0.6,0,2,0.1,3.1-1c1-1,1.2-2.5,1.3-4.1c0-0.2,0-0.3,0-0.4c0.3-2.2,0.2-4.3,0.2-6.4
			c0-0.5,0-1.1,0-1.6c0.1,0,0.1,0,0.2,0c1.2,0,2.4-0.1,3.6-0.1c0,0.1,0,0.2,0,0.4c0.5,6.8,0.7,11.6,0.7,14.5
			C111.2,105.4,110.7,105.4,110.1,105.3z"/>
		<path fill="#2FA9CE" d="M142.2,35.1l-3.4,2.5c-16.8-22.7-37-40.1-72.6-37.2C42.5,2.2,25.1,24.7,12.6,44C-5.9,72.7-4,102,18,124.6
			C34.2,141.3,59.7,156,84,156c6.1,0,12.2-0.9,18-3c21.2-7.5,39.2-26.9,48.2-51.7C158.6,78.1,155.7,53.9,142.2,35.1z M145.5,99.6
			c-8.5,23.5-25.4,41.7-45.2,48.7c-18.8,6.7-51.4,1-78.8-27.1C1.4,100.4-0.3,73.2,16.8,46.7C28.7,28.3,45.1,7,66.6,5.3
			C69,5.1,71.3,5,73.6,5c35.4,0,53.7,23.3,70.8,49.4l1.8-1.2C151.4,67.6,151.2,83.8,145.5,99.6z"/>
	</g>
  </symbol>

  <symbol id="icon-enhance" viewBox="0 0 155.8 155.2">
	<g>
		<g>
			<path fill="#2FA9CE" d="M73.1,124.1c-0.5,0-0.9-0.1-1.4-0.2l-3.2-0.9l1.7-2.9c0.2-0.4,0.4-0.7,0.6-1.1l-3.2-3.9
				c-0.4,0.3-0.5,0.8-0.6,0.9c0.1-1.6-2.9-7.5-3.9-9.4c-0.4-0.8-0.7-1.4-0.9-1.8c-0.7-1.4-1.3-2.9-2-4.3c-2.1-4.6-4.3-9.3-6.8-13.8
				c-1.3-2.3-2.5-4.8-3.6-7.1c-1.8-3.8-3.5-7.4-5.9-10.6l-2.9-3.8l4.8-0.2c12.4-0.5,25,0.2,35.8,1c6.3,0.4,12.9,0.4,19.2,0.3
				c5.2-0.1,10.5-0.1,15.7,0.1l4.4,0.2l-2.4,3.7c-2.1,3.3-5.4,5.8-8.7,8.2c-2.7,2.1-5.3,4-7,6.3c-2.4,3.1-5,6.2-7.4,9.1
				c-2,2.4-4.1,5-6.1,7.5c-5.3,6.6-10.4,14-14.9,21.4l-0.7-0.4L74,124C73.7,124,73.4,124.1,73.1,124.1z M50.5,69.9
				c1.5,2.5,2.7,5.1,3.9,7.6c1.1,2.4,2.2,4.6,3.4,6.8c2.7,4.7,4.9,9.5,7,14.2c0.6,1.4,1.3,2.8,2,4.2c0.2,0.4,0.5,1,0.8,1.7
				c2.9,5.7,4.9,10,4.3,12.7c4.1-6.6,8.8-13.1,13.4-19c2-2.6,4.1-5.1,6.2-7.6c2.4-2.9,5-6,7.3-9c2.2-2.8,5.1-5,8-7.2
				c1.4-1.1,2.8-2.1,4.1-3.2c-3.4,0-6.8,0-10.1,0c-6.4,0.1-13.1,0.2-19.6-0.3C71.9,70.4,61.2,69.7,50.5,69.9z"/>
		</g>
		<g>
			<path fill="#2FA9CE" d="M118.9,69.6c-1.1-1.7-2.2-3.5-3.3-5.2c-3-4.7-6.1-9.5-8.5-14.5c-12.1-2.5-25.2-1.1-37.8,0.2l-0.5,0.1
				c-1.2,0.1-2.5,0.2-3.9,0.2c-3.6,0.1-8.5,0.3-10.3,1.8c-0.9,0.7-1.6,2.1-2.3,3.5c-0.6,1.2-1.2,2.4-2.1,3.5l-0.8,1.1
				c-1.9,2.4-4.2,5.5-6.6,7.4l-0.7,0.6l-0.9,0c-1,0-1.8-0.5-2.4-1.2c-0.3-0.5-0.8-1.4-0.3-2.8l2.1,0.7l-0.9-1.2
				c1.9-1.5,4-4.3,5.8-6.5l0.9-1.1c0.6-0.7,1.1-1.7,1.6-2.7c0.9-1.7,1.9-3.7,3.6-5.1c3.1-2.5,8.5-2.7,13.3-2.9
				c1.4-0.1,2.6-0.1,3.6-0.2l0.5-0.1c13.4-1.4,27.4-2.9,40.6,0.2l1.2,0.3l0.5,1.1c2.4,5.1,5.6,10.1,8.8,15.1c1.1,1.8,2.3,3.5,3.4,5.3
				L118.9,69.6z M41.1,65.1l2,0.7c0.1-0.3,0.2-1-0.3-1.7c-0.5-0.7-1.1-0.9-1.6-0.9L41.1,65.1z"/>
		</g>
		<g>
			<path fill="#2FA9CE" d="M64,70l-1.4-4.3c-0.4-1.2-1.7-2.7-2.9-4.2c-2.1-2.6-4.4-5.3-4.3-8.3l5,0.2c0,1.2,1.7,3.3,3.1,5
				c0.6,0.8,1.3,1.5,1.9,2.3c3.9-4.2,9.6-9.4,14.2-12.5l2.8,4.2c-5,3.4-12.1,10-15.4,14.2L64,70z"/>
		</g>
		<g>
			<path fill="#2FA9CE" d="M97.8,69.6l-2.9-3.5c-3.4-4.1-10.4-10.8-15.4-14.2l2.8-4.2c4.5,3,10.2,8.3,14.2,12.5
				c0.6-0.8,1.2-1.6,1.9-2.3c1.4-1.7,3.1-3.8,3.1-5l5-0.2c0.1,3.1-2.1,5.8-4.3,8.3c-1.2,1.5-2.5,3-2.9,4.2L97.8,69.6z"/>
		</g>
		<g>
			<path fill="#2FA9CE" d="M73.5,122.3l-5-0.3c0.5-9.4-0.5-19.1-1.5-28.5c-1-9.3-2-18.9-1.6-28.4l5,0.2C70,74.4,71,83.9,72,93
				C73,102.6,74,112.5,73.5,122.3z"/>
		</g>
		<g>
			<path fill="#2FA9CE" d="M73.4,124.6l-4.9-0.8c0.6-3.8,2.4-8.1,3.9-11.8c0.6-1.5,1.2-2.8,1.7-4.1c0.6-1.5,1.1-3,1.7-4.5
				c3.1-8.4,6.3-17.1,11.2-25.2c0.5-0.8,1.1-1.7,1.6-2.5c1.4-2.1,2.9-4.3,3.3-6.3l4.9,1.2c-0.7,2.9-2.4,5.5-4,8
				c-0.5,0.8-1,1.6-1.5,2.3c-4.7,7.7-7.8,16.2-10.8,24.4c-0.6,1.5-1.1,3-1.7,4.5c-0.5,1.4-1.1,2.8-1.7,4.3
				C75.5,117.5,73.9,121.3,73.4,124.6z"/>
		</g>
		<g>
			<path fill="#2FA9CE" d="M71.8,155.2c-22.3,0-41.6-12.4-54.7-35.7C5.8,99.5-5.9,73.7,3.4,51.8c14-32.9,38.8-42.7,66.7-47l-0.6-4.2
				c23-3.2,45.7,5.5,62.3,23.7c17.8,19.5,26.5,44.5,23.4,66.7c-4.3,30.3-36.3,53-64.2,61.2C84.4,154.2,78,155.2,71.8,155.2z
				 M87.4,5.6l0.2,2.2c-33,3.2-63.9,9.1-79.6,46c-8.5,19.9,2.8,44.3,13.5,63.3c15.5,27.6,40.3,38.6,68.1,30.5
				c37.7-11.1,57.9-37.4,60.7-57.1c3-20.8-5.3-44.2-22.1-62.6C116.8,15.3,102.6,7.7,87.4,5.6z"/>
		</g>
	</g>
  </symbol>

  <symbol id="icon-hover" viewBox="0 0 151.6 144.5">
	<path opacity="0.5" fill="#CE4E63" d="M150.2,84.2c-2.5-3.7-7.5-4.6-11.2-2.1c-0.5,0.3-0.9,0.6-1.4,1c5.5-11.8,10.1-24.1,9.9-37.2
		c-0.1-2.8-1.6-5.4-4-6.8c-2.4-1.4-5.4-1.5-7.9-0.2c-1.8,1-3.5,2-5.2,3.1c2-5.8,3.3-11.7,3.4-17.7c0-2.3-0.9-4.5-2.6-6
		c-1.7-1.6-3.9-2.3-6.2-2.1c-5.3,0.5-10.2,4-14.9,9.4c0-0.5,0-1.1,0-1.6c-0.1-2.7-1.4-5.1-3.7-6.6c-2.2-1.5-5.1-1.7-7.5-0.7
		c-4.6,1.9-8.5,5.6-12,10.2c1.7-5,3.1-9.9,4-14.6c0.7-3.5-1-7.1-4.1-8.8c-3.2-1.7-7.1-1-9.6,1.6c-0.4,0.4-0.8,0.9-1.2,1.3
		c-0.4-1.8-1.4-3.4-2.9-4.5c-1.9-1.5-4.4-2.1-6.8-1.5c-4.6,1.1-7.7,4.3-10,7.6c-1.5,0.2-2.8,0.9-3.9,1.9c0,0-0.1-0.1-0.1-0.1
		c-2.6-2.1-6.2-2.3-9.1-0.6c-0.5,0.3-1,0.6-1.4,0.8C41,8.9,40,8.3,38.8,7.9c-1.2-0.4-2.2-0.5-3.2-0.4c-0.2-0.1-0.4-0.3-0.6-0.4
		C27.8,2.8,22,10,16.3,18.4c-3.4,5-3.2,8.5-1.9,10.9C7.9,41.8,1.5,55.4,0,69c-0.4,3.7,1.8,7.2,5.2,8.4c0.7,1.3,1.8,2.4,3.2,3.1
		c2.3,1.3,5.1,1.2,7.4,0.1c-2.6,8.4-4.5,15.6-4.6,19.8c-0.1,3.5,2.1,6.7,5.5,7.9c2,0.7,4,0.5,5.8-0.3c-1.7,3.9-0.1,8.6,3.8,10.5
		c2.4,1.2,5.1,1.1,7.3-0.1c-1.5,6-2.5,11.9-2.8,17.5c-0.2,3.6,2,6.9,5.4,8.1c0.9,0.3,1.8,0.4,2.6,0.4c2.6,0,5.1-1.3,6.6-3.5
		c3.6-5.1,7.5-12.2,11.6-20.2c0.5,0.8,1.2,1.5,2.1,2.1c2.8,1.9,6.5,2,9.2,0c5.1-3.6,8.2-9.4,10.8-14c0.2-0.4,0.4-0.7,0.6-1.1
		c-1.7,3.6-3.2,7.1-4.7,10.7c-1.5,3.5-0.3,7.6,2.8,9.7c3.1,2.2,7.3,1.9,10.1-0.7c10.4-9.7,17.6-23,24.6-35.8
		c4.5-8.3,8.8-16.3,13.8-23.1c-2.1,5.2-4.7,10.5-7.3,16c-5,10.2-10.1,20.7-12.4,31.7c-0.6,2.9,0.4,5.9,2.7,7.9
		c2.3,1.9,5.4,2.4,8.2,1.3c8.6-3.5,14.2-11,19.7-18.2c3.7-4.8,7.1-9.4,10.9-11.9C151.7,92.8,152.7,87.8,150.2,84.2z"/>
	<g>
  </symbol>

  <symbol id="icon-information-architecture" viewBox="0 0 150.5 150">
	<g>
		<g>
			<path fill="#2FA9CE" d="M84.8,150c-3.5,0-7.1-0.2-10.8-0.7c-22.8-2.7-50.6-8.5-62.8-28.9C-7.1,89.7-0.3,63.9,12.7,38.8l-3.7-2
				C20,16.4,40.4,3.2,64.9,0.6c26.3-2.8,51.6,4.9,67.6,20.6c21.9,21.4,21.3,60.6,11.5,88C134.6,135.5,113.3,150,84.8,150z M23.5,25.3
				l1.9,1.1C8.5,54.9-5,83.4,15.5,117.9c11,18.6,37.4,23.9,59.1,26.5c31.4,3.8,55-9.7,64.8-37c13.3-37,4-68.8-10.3-82.7
				C114,10,90.3,2.9,65.4,5.5C48.8,7.3,34.2,14.3,23.5,25.3z"/>
		</g>
		<g>
			<path fill="#2FA9CE" d="M103,93.2l-3.8,1.9c-0.5-0.3-0.9-0.7-1.3-1.2l1.4-1L98,92.8c0.1-1.4-0.1-3-0.3-4.6
				c-0.1-1.2-0.3-2.4-0.3-3.7c0-1,0-2.1,0-3.3c0-3.4,0.1-8-1.1-10.2c-0.7-1.4-1.7-1.5-5-1.5c-0.4,0-0.9,0-1.3,0
				c-3.3,0-6.7,0.1-10,0.2c-3.7,0.1-7.5,0.2-11.3,0.2c-3.1,0-6.2-0.6-9.1-1.3c-2.8-0.6-5.6-1.1-8.1-1.2c0,1.2,0.1,2.4,0.2,3.6
				c0.1,1.3,0.2,2.7,0.2,4c0,0.8,0.1,2.3,0.3,3.9c0.6,7.1,0.6,9.3-0.5,10.7l-3.8-3.2c-0.2,0.3-0.3,0.5-0.3,0.5c0.3-1-0.1-5.3-0.3-7.5
				c-0.2-1.8-0.3-3.3-0.3-4.3c0-1.1-0.1-2.3-0.2-3.6c-0.2-2.2-0.4-4.5-0.1-6.7l0.3-1.9l1.9-0.2c4-0.5,8,0.3,11.8,1.1
				c2.9,0.6,5.6,1.1,8.1,1.2c3.7,0,7.5-0.1,11.2-0.2c3.3-0.1,6.8-0.2,10.2-0.2c0.4,0,0.8,0,1.3,0c3.2-0.1,7.2-0.1,9.5,4.1
				c1.8,3.3,1.7,8.5,1.7,12.6c0,1.1,0,2.2,0,3c0,1,0.2,2.1,0.3,3.2C103,89.4,103.2,91.3,103,93.2L103,93.2z"/>
		</g>
		<g>
			<path fill="#2FA9CE" d="M76.3,94c-0.6,0-1.3-0.2-1.9-0.9c0,0-0.1-0.1-0.2-0.2l1.3-1.3l-1.7,0.1c0-0.3-0.1-0.7,0-1.5
				c0-0.9-0.2-2.1-0.5-3.2c-0.2-0.8-0.4-1.7-0.5-2.6c-0.4-3.6-0.4-7.3-0.4-10.8c0-1.9,0-3.9-0.1-5.8c-0.2-4.2-0.3-9.3-1.5-13.4
				l4.8-1.4c1.3,4.6,1.5,10.2,1.7,14.6c0.1,2,0.1,4,0.1,5.9c0,3.5,0,6.9,0.4,10.2c0.1,0.6,0.2,1.3,0.4,2.1c0.3,1.5,0.6,3,0.6,4.5
				c0,0.3,0,0.5,0,0.6c0.2,1.9-1.2,2.6-1.4,2.7C77.2,93.8,76.8,94,76.3,94z M76.3,89c-0.3,0-0.7,0.1-1,0.2l0.8,1.7l1.5-1.6
				C77.3,89.1,76.8,89,76.3,89z"/>
		</g>
		<g>
			<path fill="#2FA9CE" d="M69.6,54.6c-1.3,0-2.5,0-3.8-0.1l-1.8-0.1l-0.5-1.7c-0.9-3.4-0.9-6.9-0.8-10.3c0-1.4,0.1-2.7,0-4l-0.4,0
				c0-0.6,0.1-1,0.3-1.4c-0.1-1.4-0.4-2.8-0.8-4.1l4.7-1.7c0.5,1.3,0.8,2.6,1,4c0.7-0.1,1.5-0.2,2.4-0.3c3-0.4,6.7-0.7,9.3-1
				c1.4-0.1,2.5-0.2,2.9-0.3l2.5-0.3l0.3,2.5c0.6,5,2.2,10.7,3.5,15.2l0.9,3.3l-3.4-0.1c-3-0.1-6.2,0-9.2,0.2
				C74.5,54.6,72.1,54.6,69.6,54.6z M68,49.6c2.9,0.1,5.8-0.1,8.7-0.2c2-0.1,4.1-0.2,6.1-0.2c-0.9-3.2-1.8-6.9-2.4-10.4
				c-0.2,0-0.4,0-0.6,0.1c-2.7,0.3-8.8,0.8-11.9,1.3c0,0.8,0,1.6,0,2.3C67.7,45.1,67.7,47.4,68,49.6z"/>
		</g>
		<g>
			<path fill="#2FA9CE" d="M64.8,113.6l-3.6,0c-1.9,0-3.6-0.7-5-1.3c-1.2-0.5-2.3-0.9-3.4-1c-0.5,0-1.5,0.1-2.5,0.2
				c-2.4,0.3-5,0.5-6.8-0.4c-5.5-2.8-4.9-16.2-4.3-22l0,0l4-5l0.2,0.3c1.1,0.1,2.3,0.1,3.4,0.2c4.5,0.3,9.2,0.5,14,1.6l1.8,0.4
				l0.2,1.8c0.3,3.3,0.1,6.3-0.1,9.3c-0.3,4.3-0.6,8.3,1,12.7L64.8,113.6z M52.5,106.3c0.2,0,0.4,0,0.6,0c1.7,0.1,3.3,0.7,4.6,1.2
				c-0.6-3.7-0.4-7-0.1-10.4c0.2-2.1,0.3-4.3,0.2-6.6c-3.7-0.6-7.5-0.9-11.4-1.1c-0.8,0-1.6-0.1-2.4-0.1c-0.9,8,0.1,16.4,1.6,17.2
				c0.6,0.3,2.8,0,4-0.1C50.7,106.4,51.7,106.3,52.5,106.3z"/>
		</g>
		<g>
			<path fill="#2FA9CE" d="M70.9,110.7c-1.9,0-3.7-0.6-4.7-2.6c-0.8-1.5-0.7-3.7-0.5-7c0.1-1.1,0.2-2.7,0.1-3.2
				c-0.5-2.5-0.3-3.4,0-5.3c0.1-0.3,0.1-0.7,0.2-1.2l0.6-3.4l1,0.5c0.4-0.5,0.9-1,1.7-1.2l1.2-0.3l1,0.8l-0.6,0.8
				c4.3-1.4,11.6-1.7,13.2-1.6l1.7,0.1l0.5,1.6c0.2,0.8,0.7,1.9,1.1,3.1c1.9,5,3.3,9.1,2.6,12.1c-1.2,4.7-5.4,4.6-7.8,4.6
				c-0.6,0-1.2,0-1.8,0c-0.7,0-2,0.4-3.3,0.8C75.2,110,73,110.7,70.9,110.7z M70.6,105.7c0.9,0.2,3.6-0.6,5-1c1.6-0.5,3.1-1,4.4-1
				c0.8-0.1,1.5,0,2.2,0c2.7,0.1,2.7-0.1,2.9-0.8c0.4-1.7-1.3-6.4-2.4-9.1c-0.2-0.6-0.4-1.2-0.6-1.7c-3.5,0.1-9.4,1-10.5,1.7
				c0,0,0.1-0.1,0.2-0.2L71,92.7c-0.1,0.1-0.1,0.2-0.2,0.3c0,0.2-0.1,0.3-0.1,0.5c-0.3,1.5-0.3,1.8,0,3.5c0.2,1.1,0.1,2.7,0,4.5
				C70.6,102.7,70.5,104.8,70.6,105.7z"/>
		</g>
		<g>
			<path fill="#2FA9CE" d="M99.9,112.4c-1.1,0-2.1,0-2.9-0.1l-2.1-0.3l-0.1-2.1c-0.1-2-0.4-4-0.7-6.1c-0.2-1.2-0.4-2.3-0.5-3.5
				c-0.1-0.8-0.1-1.9-0.1-3.3c0-1.8-0.1-5.5-0.5-6.4c0,0.1,0.2,0.3,0.6,0.5l2.3-4.4c1.1,0.6,1.8,1.7,2.1,3.2
				c3.1-0.8,7.1-1.3,10.1-0.8c0.6,0.1,1,0.1,1.3,0.1c1.7,0.1,2.3,0.7,3.3,2c0.1,0.2,0.3,0.4,0.4,0.6c2,2.8,2.3,6.9,2.6,10.4
				c0.1,1.8,0.2,3.6,0.6,4.9l0.5,1.9l-1.8,0.9C111.4,111.5,104.6,112.4,99.9,112.4z M99.6,107.4c3.4,0,8.2-0.5,11.2-1.4
				c-0.1-1.1-0.2-2.3-0.3-3.5c-0.2-2.9-0.4-6.1-1.6-7.8c-0.1-0.2-0.3-0.4-0.4-0.5c-0.3,0-0.7-0.1-1.3-0.1c-2.5-0.4-6.3,0.1-8.9,0.9
				c0,0.6,0,1.3,0,2c0,1.1,0,2.2,0.1,2.7c0.1,1.1,0.3,2.2,0.5,3.4C99.2,104.4,99.5,105.9,99.6,107.4z"/>
		</g>
	</g>
  </symbol>

  <symbol id="icon-messaging" viewBox="0 0 148.1 143.2">
	<g>
		<g>
			<path fill="#2FA9CE" d="M71.8,50.4c-2.3-1.2-6.8-1.1-10.8-1c-2.6,0.1-5,0.1-7.1-0.1l0.6-5c1.7,0.2,4,0.1,6.4,0.1
				c4.8-0.1,9.7-0.2,13.1,1.5L71.8,50.4z"/>
		</g>
		<g>
			<path fill="#2FA9CE" d="M64.3,60.9l-4.8-1.5c0.5-1.7,0.4-4,0.3-6.2c-0.1-1.3-0.1-2.5-0.1-3.8c0-0.7,0.1-1.6,0.2-2.6
				c0.2-1.7,0.7-6.2,0.1-7.2c0,0,0,0.1,0.2,0.2l3.1-3.9c2.4,1.9,2.2,6.2,1.6,11.5c-0.1,0.9-0.2,1.7-0.2,2.2c0,1,0,2.1,0.1,3.4
				C65,55.7,65.1,58.4,64.3,60.9z"/>
		</g>
		<g>
			<path fill="#2FA9CE" d="M97.5,66.2l-0.6-0.4c-1.2-0.8-1.4-1.9-1.2-2.8c0.2-0.8,0.9-1.8,2.3-2c-0.4,0-0.9,0.3-1.4,0.8l1.6,1.4
				l0-2.1c1.1,0,2.2,0,3.3,0c1.7,0,3.3,0,4.9-0.1l0.6,0c1.4-0.1,2.8-0.1,4.2-0.1l0.4,0v0c0,0,0.1,0,0.1,0l0.1,0
				c2.5,0.2,2.5,2.4,2.5,2.5c0,0.1-0.1,2.3-2.6,2.5v0l-0.2,0c0,0-0.1,0-0.1,0l-0.4,0c-1.3,0-2.6,0.1-4,0.1l-0.6,0
				c-1.8,0.1-3.5,0.1-5.2,0.1c-1.1,0-2.1,0-3.2,0L97.5,66.2z M98.4,63.4l1.8,1.6c0.2-0.2,0.3-0.5,0.4-0.9c0.3-1.1-0.3-2.1-1-2.6
				L98.4,63.4z"/>
		</g>
		<g>
			<path fill="#2FA9CE" d="M108.2,70.3l-5-0.3c0.2-4.2,0-10.2-1.1-13.9l4.8-1.4C108.2,59.3,108.4,66,108.2,70.3z"/>
		</g>
		<g>
			<path fill="#2FA9CE" d="M101.4,84.1c-0.2,0-0.4,0-0.6-0.1c-0.4-0.1-1-0.2-1.7-0.2l0-0.4c-1,0-1.9,0.1-3,0.2
				c-1.3,0.1-2.7,0.2-4.1,0.2c-2.8,0-5.5-0.4-8-0.8c-1.6-0.2-3.1-0.4-4.6-0.6l0.4-5c1.7,0.1,3.3,0.4,4.9,0.6c2.5,0.4,4.9,0.7,7.3,0.7
				c1.1,0,2.3-0.1,3.6-0.2c2-0.2,4.1-0.3,6.2-0.1l4,0.5l-2.2,3.4C103.5,82.9,102.8,84.1,101.4,84.1z"/>
		</g>
		<g>
			<path fill="#2FA9CE" d="M94.4,96.5L91,94.4c-0.6-0.4-1.6-1.2-1.4-2.9c0,0,0,0,0,0s0,0.2,0,0.4l0.2-0.1c0.8-8.6,0.2-15.4-1.7-19.1
				l4.5-2.2c3,5.9,2.8,15.2,2.2,22L94.4,96.5z M93.6,90.2l-0.5,0.9l1.2-0.3C94.1,90.5,93.9,90.3,93.6,90.2z"/>
		</g>
		<g>
			<path fill="#2FA9CE" d="M42.3,111.5l-2.4-1.6c-1.1-0.8-2.5-1.7-3.5-2.8c-0.4-0.4-0.7-0.9-1.1-1.4c-0.6,0.3-1,0.2-1.6,0l1.1-3.7
				l-1.1-0.4l1-0.8c-0.8-0.1-1.4,0.2-1.6,0.4c0.8-0.6,4.9-4.8,8-7.9c3.8-3.9,6.2-6.3,7.2-7.1c3.4-2.9,6.6-6,9.8-9
				c4-3.9,8.1-7.9,12.7-11.4c4.9-3.8,10-7.8,13.8-12.5c0.5-0.6,0.9-1.1,1.4-1.7c1.7-2.1,3.4-4.2,5.5-6.1l2.3-2.1l1.4,2.6
				c0.2,0.1,0.6,0.4,0.9,0.6c1,0.6,2.1,1.2,2.6,2.5c1.7,4.2-4,8.1-8.6,11.2c-0.8,0.6-1.6,1.1-2,1.4c-5.5,4.6-10.6,10.2-15.6,15.6
				c-2.6,2.9-5.3,5.9-8.1,8.6c-8.4,8.5-15.4,16.5-20.8,23.7L42.3,111.5z M39.1,102.3c0.3,0.5,0.7,1,0.9,1.3c0.3,0.3,0.7,0.7,1.1,1
				c5.3-6.9,11.9-14.4,19.7-22.3c2.7-2.7,5.3-5.7,7.9-8.5c0.2-0.2,0.3-0.3,0.5-0.5c-2.7,2.4-5.3,4.9-7.8,7.3c-3.2,3.1-6.5,6.3-10,9.3
				c-0.8,0.7-4,3.9-6.8,6.8C42.2,99.2,40.5,101,39.1,102.3z M93.2,50.6c-0.9,1-1.8,2-2.7,3.2c1.3-1,2.6-2.1,3.2-2.8
				c-0.1,0-0.1-0.1-0.2-0.1C93.4,50.8,93.3,50.7,93.2,50.6z"/>
		</g>
		<g>
			<path fill="#2FA9CE" d="M75.9,38.5L73.3,36c0-1.8,1.2-2.3,2.6-2.5l0,0l0,0c0.5-0.1,0.9-0.1,1.4-0.1c0.9,0,2.1-0.1,2.9-0.1l1.3,0
				c2.1-0.1,5.6-0.1,7.4-0.1l0.6,0l0,5l-0.6,0c-1.7,0-5.2,0-7.2,0.1l-1.3,0.1c-1.3,0-4,0.2-4.3,0.2l-0.2-2.3L75.9,38.5z"/>
		</g>
		<g>
			<path fill="#2FA9CE" d="M78.1,143.2c-21.9,0-47.3-2.7-61.2-19.4C-5.3,97.1-2.2,70.9,6.8,46l-3.9-1.5C10.8,23.6,29,8.4,52.8,2.8
				c25.4-6.1,51.4-2,69.4,10.8c24.6,17.5,29.6,54.9,23.8,82.2c-6.3,29.6-29.3,46.8-63.3,47.3C81.1,143.1,79.6,143.2,78.1,143.2z
				 M15.6,31.7l2,0.9c-12.6,29.2-21.8,57.9,3.2,88c13.5,16.2,40.2,17.9,61.9,17.6c31.4-0.5,52.7-16.3,58.5-43.4
				c7.8-36.8-5.8-65.7-21.8-77.1C102.4,5.6,78,1.9,53.9,7.6C37.8,11.5,24.5,20,15.6,31.7z"/>
		</g>
	</g>
  </symbol>

  <symbol id="icon-mock-up" viewBox="0 0 151.5 150.8">
	<g>
		<g>
			<path fill="#2FA9CE" d="M119.5,111.8l-4.4-1.5c-14.1-4.8-29.5-2.8-44.4-0.9c-12.5,1.6-25.5,3.2-37.9,1l-1.9-0.3l-0.1-1.9
				c-0.9-13.1,1.6-31.6,3.6-46.6C35,56,35.6,51.2,36,47.4c-0.1,0-0.2-0.1-0.4-0.1l0.5-1.9c0-0.2,0-0.5,0.1-0.7l0.1,0l0.6-2.2
				c6.7,1.9,22.7,3,31.7,1.7c1.4-0.2,2.8-0.4,4.2-0.6c11.5-1.8,22.3-3.5,34.2-1.1c2.7,0.5,5.4,0.4,8.2-0.6l3.2-1.1l0.1,3.4
				c0.2,7.5-0.5,15.6-1.1,23.4c-1.1,13.6-2.3,27.6,0.9,39.8L119.5,111.8z M35.6,105.8c11.1,1.6,23,0.1,34.5-1.4
				c14.1-1.8,28.6-3.6,42.5-0.1c-2.2-11.9-1.1-24.8-0.1-37.3c0.6-6.9,1.1-13.4,1.1-19.7c-2.5,0.4-5,0.4-7.5-0.1
				C95,45,84.6,46.7,73.6,48.4c-1.4,0.2-2.8,0.4-4.2,0.6c-7.9,1.2-20.2,0.6-28.5-0.7c-0.4,3.8-1,8.6-1.7,13.8
				C37.3,76.1,35,93.3,35.6,105.8z"/>
		</g>
		<g>
			<path fill="#2FA9CE" d="M111.3,100.3c-0.2-0.3-0.3-0.6-0.3-0.8c-2.7-2.9-4.6-6.6-6.5-10.1c-1.2-2.3-2.4-4.4-3.6-6.3
				c-1.4-2-2.5-4.2-3.6-6.3c-1.1-2.1-2-4-3.2-5.7c-0.1-0.1-0.2-0.3-0.3-0.4c0,0-0.1,0-0.1,0C89.5,70.8,82.9,76,78.3,81
				c-0.5,0.5-0.9,1-1.4,1.5c-3,3.3-6.1,6.7-10.3,9.1c-0.3,0.2-0.7,0.4-1,0.6c-2.4,1.4-5.7,3.4-8.9,1.8c-1.3-0.7-2.3-1.9-3.1-2.9
				c-0.4-0.5-0.9-1.2-1.3-1.5c-0.3,0.4-0.8,1.4-1.1,2c-0.7,1.4-1.3,2.8-2.5,3.7c-1.4,1.2-2.1,1.6-3.9,1.4c-0.2,0-0.5,0-0.9-0.1
				c-0.4,0-1.7,0.1-2.9,0.1c-7.4,0.4-10.2,0.5-10.4-2.5l5-0.4c-0.1-1.2-1-1.9-1.5-2c0.9,0.2,4.8,0,6.7-0.1c1.7-0.1,2.8-0.1,3.4-0.1
				c0.5,0,0.8,0,1.1,0.1c0,0,0,0,0,0c0.1-0.1,0.2-0.2,0.3-0.3c0.3-0.3,0.8-1.4,1.2-2.1c0.9-1.8,1.8-3.8,3.8-4.6
				c3.4-1.4,5.7,1.4,7.1,3.1c0.4,0.5,1.1,1.4,1.4,1.6c0.8,0.4,2.8-0.8,4.1-1.6c0.4-0.2,0.8-0.5,1.1-0.7c3.5-2,6.2-4.9,9-8.1
				c0.5-0.5,0.9-1,1.4-1.5c2.5-2.7,11.3-11.6,18.8-11.9c0.3,0,0.4,0,0.6,0c1.9-0.2,2.7,0.5,3.6,1.9c0.1,0.2,0.3,0.4,0.4,0.6
				c1.4,2,2.5,4.2,3.6,6.3c1.1,2.1,2,4,3.3,5.8c1.4,2.1,2.7,4.4,3.9,6.7c1.9,3.6,3.9,7.3,6.4,9.8l1.6,1.6l-0.8,1c0,0,0,0.1,0,0.1
				l-0.1,0l-0.6,0.7c0.2-0.2,0.3-0.4,0.3-0.7l-3.4,0.2l-0.6,0.7c-0.2-0.2-0.4-0.4-0.6-0.6l-0.1,0
				C111.2,100.1,111.3,100.3,111.3,100.3z"/>
		</g>
		<g>
			<path fill="#2FA9CE" d="M60.3,79.3c-0.7,0-1.3-0.1-1.8-0.2c-5.3-1.2-9.2-7.7-9.8-13c-0.4-4.2,1.1-7.6,4.4-9.1l9.4-4.4l-3.9,5
				c1.3,0,2.3,0.2,2.3,0.2c3.6,0.7,6.7,3.1,8.2,6.5c1.4,3.2,1.1,6.8-0.8,9.8C65.6,78.3,62.6,79.3,60.3,79.3z M54.5,62.1
				c-0.8,0.9-0.9,2.3-0.7,3.4c0.4,3.8,3.3,8,5.9,8.7c1.5,0.4,3-0.6,4.4-2.9c1.4-2.1,0.8-4.1,0.4-5.1c-0.8-1.8-2.5-3.2-4.5-3.5
				c-1.1-0.2-3.5-0.2-4.1,0.1c0.4-0.2,0.8-1.1,0.5-1.7L54.5,62.1z"/>
		</g>
		<g>
			<path fill="#2FA9CE" d="M85.7,150.8c-5.4,0-11.1-0.6-16.9-1.7c-22.6-4.5-49.8-12.4-60.3-33.7c-15.8-32-7.1-57.3,7.9-81.2l-3.5-2.3
				C25.3,12.3,46.6,0.8,71.3,0c26.4-0.8,51,8.9,65.8,25.7c20.2,23,16.5,62.1,4.6,88.6C131.1,138.1,111.1,150.8,85.7,150.8z
				 M28.1,21.5l1.8,1.3c-19.1,27.1-34.8,54.4-17,90.4c9.6,19.4,35.4,26.8,56.8,31c31,6.2,55.6-5.4,67.5-31.8
				c16.1-35.8,9.3-68.3-3.8-83.2c-13.8-15.8-37-24.8-61.9-24C54.7,5.5,39.6,11.4,28.1,21.5z"/>
		</g>
	</g>
  </symbol>

  <symbol id="icon-research" viewBox="0 0 149.2 149">
	<g>
		<g>
			<path fill="#2FA9CE" d="M109.6,112.6c-4.4-5.6-8-10.2-11.1-14.6c-0.3-0.5-0.9-1.3-1.6-2.2c-1.7-2.4-6.7-9.7-8-10.7
				c0,0,0.5,0.3,1.2,0.2l-0.6-5c2.1-0.2,3.5,1,11.5,12.6c0.6,0.9,1.2,1.7,1.5,2.1c2.9,4,6.2,8.3,10.2,13.4l0.3-0.2
				c0.2,0.4,0.3,0.7,0.4,0.9c0,0.1,0.1,0.2,0.1,0.3L109.6,112.6z"/>
		</g>
		<g>
			<path fill="#2FA9CE" d="M65.6,92.6c-6.1,0-12.2-1.2-16.5-5.3c-7.4-7.1-6.7-17.2-4.3-26.5l-1.5,0.8c-1.8-3.5-2.2-6.8-1-9.8
				c2.2-5.8,9.4-8.9,15.3-11.1c9.2-3.3,19-2.8,26.2,1.2c10,5.5,13.5,19.2,12.4,29.5C95.1,82.9,87.1,90.4,74.4,92
				C71.6,92.3,68.6,92.6,65.6,92.6z M52.8,48.3l1,0.3c-0.4,1.4-0.9,2.9-1.4,4.5c-3.4,10.3-7.7,23.2,0.1,30.7
				c4.9,4.7,13.9,4.2,21.2,3.3c6-0.8,16.3-3.9,17.5-16c1.2-12.5-4.3-21.5-9.9-24.6c-6-3.3-14.3-3.7-22.1-0.9
				C57.3,46.2,54.9,47.1,52.8,48.3z M46.9,53.7C46.9,53.7,46.9,53.7,46.9,53.7c-0.1,0.2-0.1,0.4-0.2,0.6C46.8,54,46.9,53.9,46.9,53.7
				z"/>
		</g>
		<g>
			<path fill="#2FA9CE" d="M83.9,149c-10.9,0-21.9-2.4-32.9-5.8l-1.3,4C27.6,140.1,11,122.4,4,98.7c-7.5-25.4-4.4-51.6,8.2-70.2
				C29.3,3.1,68-3.3,96.7,1.5c31,5.2,50,27.7,52.1,61.8c1.4,23,0.7,51.3-17.3,66.9C115.6,144,99.7,149,83.9,149z M36.5,132.9
				c31.1,11.6,61.5,19.8,91.7-6.5c16.3-14.2,16.9-41,15.6-62.8C141.9,32,124.4,11.2,95.9,6.4c-38.7-6.5-68.4,8.4-79.5,24.9
				C4.6,48.6,1.8,73.3,8.8,97.3c4.7,16.1,14.2,29.2,26.9,37.7L36.5,132.9z"/>
		</g>
	</g>
  </symbol>

  <symbol id="icon-sketch" viewBox="0 0 142.9 150.4">
	<g>
		<g>
			<path fill="#2FA9CE" d="M95.2,105.1c-2.2,0-4.1-0.6-5.9-1.1c-0.4-0.1-0.8-0.2-1.3-0.4c-4.8-1.3-9.5-1.8-15.8-1.5
				c-2.1,0.1-4.9,0.5-7.9,0.9c-8.8,1.3-19.8,2.9-26-1.8l-1.3-1l0.4-1.6c1.2-4.4,1-10.2,0.8-15.9c-0.1-2.7-0.2-5.2-0.1-7.5
				c0.1-4-0.1-8.6-0.3-13c-0.2-4.6-0.4-9.4-0.3-13.7l0.1-2.4h2.4c4.9,0,9.6,0,13.2,0.5c1.5,0.2,2.2,0.1,3,0c0.9-0.1,2-0.3,4-0.2
				c1.9,0.1,3.7,0.5,5.4,0.9c1.9,0.4,3.7,0.8,5.4,0.8c0,0,0,0,0.1,0l0,5c-2.3,0-4.5-0.5-6.6-0.9c-1.6-0.4-3.2-0.7-4.7-0.8
				c-1.4-0.1-2.1,0-2.9,0.1c-1,0.2-2.2,0.3-4.4,0c-2.7-0.4-6.3-0.4-10.1-0.5c0,3.5,0.1,7.2,0.3,10.9c0.2,4.5,0.4,9.1,0.3,13.3
				c-0.1,2.2,0,4.6,0.1,7.2c0.2,5.3,0.3,10.7-0.6,15.5c4.9,2.4,13.7,1.1,20.9,0c3.1-0.5,6.1-0.9,8.5-1c6.8-0.3,12.1,0.3,17.4,1.7
				c0.5,0.1,0.9,0.3,1.3,0.4c1,0.3,1.9,0.6,2.8,0.7c-0.7-7-0.6-14.1-0.5-21c0-1.5,0-3,0-4.5l0-0.3c-0.1,0.8,0.4,2.1,1.7,2.5
				c0.6,0.2,1.1,0.2,1.6,0l-2.7-3.7c-0.4,0.3-0.5,0.6-0.6,0.6l0.1-0.1c1.1-2,2.7-1.7,3.2-1.5c1,0.3,1.8,1.3,1.7,2.7
				c0,1.5,0,2.9,0,4.4c-0.1,7.7-0.2,15.7,0.8,23.3l0.3,2.5l-2.5,0.3C96.1,105.1,95.7,105.1,95.2,105.1z"/>
		</g>
		<g>
			<path fill="#2FA9CE" d="M56.2,87.3L57,84c0.1-0.5,0.3-1.1,0.6-1.9c0.4-1.1,1.2-3.6,1.2-4.3c0,0.2,0.2,0.9,0.8,1.4l0.1-0.1
				l-0.8-1.2l1-1.4c8-11.2,18.5-21.1,29.5-31.1l0.5-0.5c4.8-4.3,9.7-8.8,14.7-12.9l2-1.6l1.6,2c0.6,0.8,1.7,1.4,2.9,2
				c1,0.5,1.9,1.1,2.9,1.8l2.4,1.8l-2.3,2c-3.9,3.5-7.8,7.2-11.5,10.8c-4.1,4-8.4,8.1-12.8,12c-4.6,4-10,8.9-15.1,14.2
				c-0.8,0.8-1.4,1.7-2,2.6c-1.2,1.6-2.5,3.4-4.7,4.7l-0.1,1.6L65.7,86c-0.5,0-1.7,0.3-2.8,0.5c-1.3,0.3-2.5,0.5-3.3,0.6L56.2,87.3z
				 M65.2,77.7c0.4,0.4,0.9,0.9,1.3,1.5c0.7-0.6,1.3-1.5,2.1-2.6c0.7-0.9,1.5-2,2.4-3.1C76.3,68,81.8,63.1,86.5,59
				c4.3-3.8,8.6-7.9,12.7-11.8c3-2.9,6-5.8,9.1-8.7c-0.7-0.4-1.4-0.8-2.1-1.3c-4.4,3.6-8.7,7.6-12.9,11.4L92.8,49
				C82.5,58.4,72.7,67.6,65.2,77.7z"/>
		</g>
		<g>
			<path fill="#2FA9CE" d="M68.2,150.4c-18.5,0-35.7-5.9-48.1-17c-22-19.7-23.6-59.1-15.8-87.3c8.5-30.6,32-47.3,64.5-46
				c21.9,0.9,48.7,4.5,61.4,24.1c19.1,29.4,14,55.8,3,82l3.7,1.6c-9.3,21.4-28,36.3-51.2,40.9C79.8,149.8,73.9,150.4,68.2,150.4z
				 M65.2,5C36.9,5,16.6,20.3,9.1,47.4c-10.6,38.2,0,69.5,14.3,82.3c15,13.5,37.9,18.7,61.3,14.1c15.7-3.1,29.2-11.3,38.7-23.3
				l-1.9-0.9c14.5-30,25.8-59.7,4.4-92.7C114.5,9.2,89.2,5.9,68.5,5.1C67.4,5,66.3,5,65.2,5z"/>
		</g>
	</g>
  </symbol>

  <symbol id="icon-user-testing" viewBox="0 0 156 155.3">
	<g>
		<g>
			<path fill="#2FA9CE" d="M77.7,59.9c-3.1,0-5.7-1.5-7.3-4.3c-2.3-3.9-2.2-9.9,0.3-13.6c0.3-0.4,0.6-0.8,0.9-1.1l-0.3-0.3
				c1-0.9,2.2-1.3,3.6-1.5c0.5-0.1,0.9-0.1,1.4-0.1c3.5,0,7.5,1.5,9.6,3.4c3,2.7,4,6.5,2.7,10.1c-1.5,4.2-5.6,7.2-10.2,7.5
				C78,59.9,77.9,59.9,77.7,59.9z M75.7,43.9c-0.2,0.1-0.5,0.2-0.9,0.8c-1.2,1.9-1.6,5.9-0.1,8.4c0.8,1.3,1.8,1.9,3.3,1.8
				c2.6-0.1,5-1.8,5.8-4.1c0.4-1.2,0.5-3-1.3-4.8C80.9,44.6,77.6,43.8,75.7,43.9z"/>
		</g>
		<g>
			<path fill="#2FA9CE" d="M84.9,97.4l-2.1-4.5c0.7-0.3,1.4-0.6,2.1-0.8c1.9-0.6,3.1-1.1,3.6-2.1c0.8-1.8,0.7-5.2,0.6-7.9
				c-0.1-1.4-0.1-2.8,0-3.9c0.1-2.4,0.5-4.7,0.8-6.9c0.2-1.1,0.3-2.2,0.5-3.3c0-0.3,0.1-0.7,0.2-1.2c0.5-3.4,0.6-5.6,0.4-6.5
				c-1.1-0.4-4.2-0.3-5.3-0.3c-0.5,0-1,0-1.3,0c-4.6,0-9.7-0.1-14.2,1.9c-2,0.9-2.2,1.6-2.9,4.2c-0.1,0.5-0.3,1-0.4,1.5
				c-1.5,5.1-3,14.4-1.3,18c0.5,0.8,3.7,3.2,4.6,3.6c-0.4-0.2-1.3-0.2-2,0.4l3,4c-0.4,0.3-1.2,0.7-2.3,0.4c-1.6-0.4-6.8-4-7.8-6.2
				c-3.3-6.9,1-21.4,1.1-21.5c0.1-0.5,0.3-0.9,0.4-1.4c0.8-2.9,1.5-5.6,5.8-7.4c5.5-2.4,11.4-2.4,16.3-2.3c0.3,0,0.7,0,1.2,0
				c4.1-0.1,7.7-0.1,9.3,2c1.7,2.1,1.3,6,0.6,10.4c-0.1,0.4-0.1,0.8-0.2,1.1c-0.1,1.2-0.3,2.3-0.5,3.5c-0.3,2.2-0.6,4.3-0.7,6.4
				c0,1,0,2.2,0.1,3.5c0.1,3.5,0.3,7.4-1.1,10.3c-1.4,3-4.4,4-6.5,4.7C85.9,97,85.4,97.2,84.9,97.4z"/>
		</g>
		<g>
			<path fill="#2FA9CE" d="M82.9,120.5c-0.3,0-0.6,0-0.9,0c-0.3,0-0.5,0-0.9-0.1c-0.6,0-1.2-0.1-1.9-0.1c-4.4-0.1-12.7-0.3-13.4-8.4
				c-0.6-6.4,0.2-12.7,1-18.7c0.9-7.2,1.8-13.9,0.4-20.9l4.9-0.9c1.5,7.8,0.5,15.2-0.4,22.5c-0.8,6-1.5,11.7-0.9,17.6
				c0.3,3.2,2.7,3.7,8.5,3.9c0.7,0,1.4,0,2.1,0.1c0.3,0,0.6,0,0.8,0.1c0-0.1,0-0.3,0.1-0.4c0.4-3.2,0.3-6.7,0.3-10.1
				c0-1.6-0.1-3.2,0-4.7c0-2.1,0-4.3-0.1-6.6c-0.1-4.4-0.2-9,0.2-13.2c0.1-0.8,0.1-1.6,0.1-2.3c0-1.1,0.1-2.3,0.2-3.7
				c0-0.2,0-0.4,0-0.9c0-0.4,0-1,0-1.7h5c0,0.7,0,1.2,0,1.6c0,0.6,0,1.1,0,1.6c-0.1,1.1-0.2,2.1-0.2,3.2c0,0.8,0,1.7-0.1,2.6
				c-0.3,3.9-0.2,8.4-0.2,12.7c0,2.4,0.1,4.6,0.1,6.8c0,1.5,0,3,0,4.6c0.1,3.5,0.1,7.2-0.3,10.8C86.8,119.1,85.6,120.5,82.9,120.5z"
				/>
		</g>
		<g>
			<path fill="#2FA9CE" d="M79.4,124.6l-2.9-4.9l-1.4,0.3l-0.9-1.4l1.2-0.8l-0.7-1.1l1.4-0.8l-0.1-0.4l-1.5,0
				c-0.3,0.3-0.5,0.6-0.5,0.8c0-0.1,0.1-0.3,0.1-0.5c0.1-0.3,0.1-0.6,0.2-0.9c0-2.9,0.3-5.6,0.6-8.2c0.3-3.2,0.7-6.3,0.5-9.8
				c-0.1-1.1,0.1-2.3,0.3-3.3c0.2-1.6,0.4-3-0.1-3.8c-0.2-0.3-0.3-0.6-0.4-0.7c0.1,0.2,0.3,0.4,0.4,0.5l2-4.5c1.1,0.5,1.7,1,2.1,1.9
				c0,0,0,0.1,0.1,0.1c1.5,2.4,1.2,5.1,0.9,7.2c-0.1,0.9-0.2,1.7-0.2,2.4c0.2,3.9-0.2,7.3-0.5,10.6c-0.3,2.7-0.6,5.3-0.5,8.2
				L79.4,124.6z M77,116.7l1.4-0.9L77,116.7z"/>
		</g>
		<g>
			<path fill="#2FA9CE" d="M105.5,57.9c-2,0-4.1-0.5-5.9-1.4c-3.3-1.7-5.1-3.8-5.3-6.3c-0.3-2.5,1-4.9,3.8-7.1
				c1.4-1.1,5.7-4.1,9.1-4.2l0,1.1c0.9,0.1,1.9,0.5,2.8,1.1c2.5,1.8,4.8,5.8,4.8,8.5c0,3-1.3,5.4-3.7,6.9
				C109.5,57.4,107.5,57.9,105.5,57.9z M106.2,44c-1.4,0.5-3.5,1.6-5,2.8c-1.3,1.1-2,2.1-2,2.8c0.1,0.5,0.8,1.5,2.7,2.4
				c2,1,4.9,1.1,6.5,0.2c0.9-0.5,1.3-1.4,1.3-2.6c0-1.4-2.2-4.7-3.2-4.7L106.2,44z"/>
		</g>
		<g>
			<path fill="#2FA9CE" d="M109.6,98.7l-3.2-3.9c1.3-1.1,2.6-1.6,3.7-2c1.5-0.6,1.5-0.6,1.5-1.2c0.2-2,0.1-4.1,0-6.2
				c-0.1-2.9-0.2-5.8,0.3-8.8c0.2-1.2,0.6-2.6,1.1-4.3c1.5-5.1,2.6-9.8,0.2-11c-2.7-1.4-11.7-1.2-15.4-0.3L96.7,56
				c3.4-0.8,14.3-1.6,18.9,0.8c6.2,3.2,3.9,11.4,2.3,16.9c-0.4,1.4-0.8,2.8-0.9,3.6c-0.4,2.6-0.3,5.2-0.2,7.9c0.1,2.2,0.1,4.5,0,6.7
				c-0.3,3.8-2.9,4.8-4.7,5.5C111.1,97.8,110.3,98.1,109.6,98.7z"/>
		</g>
		<g>
			<path fill="#2FA9CE" d="M102.8,123.6c-2.3,0-4.9-0.6-7.2-1.1c-1-0.2-2-0.5-2.6-0.5l-2-0.3l-0.2-2c-0.5-4.3-0.3-8.8-0.1-13.2
				c0.2-4,0.3-7.8,0-11.2l5-0.5c0.4,3.8,0.2,7.9,0,11.9c-0.1,3.6-0.3,7.2-0.1,10.7c0.3,0.1,0.7,0.2,1.1,0.2c1.7,0.4,6,1.4,7.3,0.9
				c0.1-0.5,0.1-1.3,0.1-1.7c0-0.4,0-0.7,0-0.9c0.3-3.9,0.5-7.9,0.6-12c0.2-4.6,0.2-8.7,0.3-12.8c0.1-3.4,0.1-6.9,0.3-10.6l5,0.2
				c-0.1,3.7-0.2,7-0.3,10.6c-0.1,4-0.2,8.2-0.3,12.8c-0.2,4.1-0.3,8.2-0.7,12.2c0,0.1,0,0.4,0,0.6c-0.1,1.8-0.1,3.2-0.8,4.2
				C107.1,123,105.1,123.6,102.8,123.6z"/>
		</g>
		<g>
			<path fill="#2FA9CE" d="M100.7,120.3l-0.1-0.8l-2.5,0.4c-0.9-4.5-0.6-8.8-0.3-13.1l0.1-1.6c0-0.9-0.1-3.5-0.1-5.8
				c-0.1-2-0.2-3.9-0.2-5h5c0,1.1,0.1,3,0.1,4.8c0.1,2.7,0.2,5.2,0.1,6.3l-0.1,1.6c-0.2,3.4-0.4,6.7,0,9.9c0.1,0.2,0.1,0.4,0.2,0.7
				l0,0l0,0c0,0.3,0.1,0.8,0.2,1.4l-2.4,0.4L100.7,120.3z"/>
		</g>
		<g>
			<path fill="#2FA9CE" d="M56.7,58.1L56.7,58.1c-2.2,0-4.5-1.2-6.9-3.5c-3.1-3-4.7-7.8-3.8-11.6c0.7-2.9,2.7-5,5.7-5.9
				c0.7-0.2,1.5-0.3,2.4-0.3c2.7,0,6.5,1,8.7,3.1c1,1,1.6,2.2,1.7,3.4c0.7,2.7,0.5,5.6-0.6,8.4C61.9,57,58.9,58.1,56.7,58.1z
				 M54.2,41.8c-0.6,0-0.8,0.1-0.9,0.1c-1.3,0.4-2.1,1.2-2.4,2.3c-0.5,2,0.6,5,2.4,6.8c1.9,1.8,3,2,3.4,2c1.2,0,2.2-2.2,2.6-3.1
				c0.7-1.9,0.9-3.8,0.4-5.5l-0.1-0.4l0-0.4C59.4,43.1,56.8,41.8,54.2,41.8z"/>
		</g>
		<g>
			<path fill="#2FA9CE" d="M45.7,96c-0.7-0.7-1.4-1-2.2-1.5c-1.7-0.9-4.2-2.2-4.1-5.9c0-2.3,0.3-4.5,0.6-6.7c0.3-2.7,0.7-5.3,0.5-7.9
				c0-0.9-0.3-2.3-0.6-3.7c-1-5.6-2.6-14,3.9-16.6c4.6-1.9,17.3-0.1,21,1.2l-1.7,4.7c-3.6-1.3-14.7-2.4-17.5-1.3
				c-2.5,1-1.8,5.8-0.8,11c0.3,1.7,0.6,3.1,0.7,4.4c0.2,3-0.2,6-0.6,8.8c-0.3,2.1-0.5,4.2-0.6,6.2c0,0.6,0,0.7,1.4,1.4
				c1,0.5,2.3,1.2,3.5,2.4L45.7,96z"/>
		</g>
		<g>
			<path fill="#2FA9CE" d="M51.7,121.6c-3,0-5.6-0.7-6.8-3.1c-0.5-1.1-0.5-2.4-0.4-4.3c0-0.3,0-0.5,0-0.6c0-4.1,0.3-8.3,0.5-12.2
				c0.3-4.6,0.7-9.2,1.1-13.7c0.4-4.1,0.7-8,0.9-11.7l5,0.3c-0.2,3.8-0.6,7.7-0.9,11.8c-0.4,4.5-0.8,9.1-1,13.5
				c-0.2,3.9-0.5,8-0.5,12c0,0.2,0,0.5,0,0.9c0,0.4-0.1,1.2-0.1,1.7c1.2,0.6,5.6,0,7.3-0.2c0.4-0.1,0.7-0.1,1.1-0.1
				c0.5-3.4,0.7-7.1,0.9-10.6c0.2-4,0.4-8.1,1.2-11.8l4.9,0.9c-0.6,3.4-0.9,7.1-1.1,11.1c-0.2,4.4-0.5,8.9-1.4,13.1l-0.4,1.9l-2,0.1
				c-0.6,0-1.6,0.2-2.6,0.3C55.6,121.4,53.6,121.6,51.7,121.6z"/>
		</g>
		<g>
			<path fill="#2FA9CE" d="M52.7,120.5c-0.1,0-0.1,0-0.2,0l-3-0.1l0.7-2.9c0-0.1,0-0.1,0-0.2l0-0.9l0.2-0.2c0.7-3.3,1.1-7.9,1.3-12.7
				c0-0.1,0.5-9.4,1.6-12l4.6,2c-0.5,1.1-1.1,7.5-1.2,10.2c-0.1,3.1-0.5,8.6-1.4,13.4c0.3,0.9,0.1,1.6,0,1.9
				C55.2,119.5,54.5,120.5,52.7,120.5z M53.4,118.2l1,1.2L53.4,118.2z M51.6,116l1.1,1.3l0.1-1.8h0C52.4,115.5,52,115.7,51.6,116z"/>
		</g>
		<g>
			<path fill="#2FA9CE" d="M77.1,155.3c-19.4,0-38.1-8.3-52.4-23.7C6.7,112.2-2.4,87.4,0.5,65.1C4.5,34.8,36.2,11.7,64,3.1
				C94-6.2,121.1,5.5,138.2,35c11.5,19.9,23.6,45.6,14.6,67.6c-13.6,33-38.3,43.1-66.1,47.8l0.6,4.2C83.9,155,80.5,155.3,77.1,155.3z
				 M83.6,5C77.7,5,71.7,6,65.5,7.9C27.9,19.5,8.1,46,5.5,65.8c-2.7,20.8,5.8,44.1,22.9,62.4c11.4,12.3,25.8,19.7,41,21.6l-0.2-2.2
				c33-3.6,63.8-9.8,79.1-46.9c8.2-20-3.3-44.2-14.3-63.2C121.6,16.3,103.8,5,83.6,5z"/>
		</g>
	</g>
  </symbol>

  
</svg>